<?xml version="1.0" encoding="utf-8" standalone="no"?>
<!DOCTYPE svg PUBLIC "-//W3C//DTD SVG 1.1//EN"
  "http://www.w3.org/Graphics/SVG/1.1/DTD/svg11.dtd">
<svg xmlns:xlink="http://www.w3.org/1999/xlink" width="509.3025pt" height="294.636562pt" viewBox="0 0 509.3025 294.636562" xmlns="http://www.w3.org/2000/svg" version="1.1">
 <metadata>
  <rdf:RDF xmlns:dc="http://purl.org/dc/elements/1.1/" xmlns:cc="http://creativecommons.org/ns#" xmlns:rdf="http://www.w3.org/1999/02/22-rdf-syntax-ns#">
   <cc:Work>
    <dc:type rdf:resource="http://purl.org/dc/dcmitype/StillImage"/>
    <dc:date>2026-06-23T09:36:25.182289</dc:date>
    <dc:format>image/svg+xml</dc:format>
    <dc:creator>
     <cc:Agent>
      <dc:title>Matplotlib v3.11.0, https://matplotlib.org/</dc:title>
     </cc:Agent>
    </dc:creator>
   </cc:Work>
  </rdf:RDF>
 </metadata>
 <defs>
  <style type="text/css">*{stroke-linejoin: round; stroke-linecap: butt}</style>
 </defs>
 <g id="figure_1">
  <g id="patch_1">
   <path d="M 0 294.636562 
L 509.3025 294.636562 
L 509.3025 0 
L 0 0 
z
" style="fill: #ffffff"/>
  </g>
  <g id="axes_1">
   <g id="patch_2">
    <path d="M 160.4425 256.435781 
L 502.1025 256.435781 
L 502.1025 22.318125 
L 160.4425 22.318125 
z
" style="fill: #ffffff"/>
   </g>
   <g id="matplotlib.axis_1">
    <g id="xtick_1">
     <g id="line2d_1">
      <defs>
       <path id="mf76aed8a83" d="M 0 0 
L 0 3.5 
" style="stroke: #000000; stroke-width: 0.8"/>
      </defs>
      <g>
       <use xlink:href="#mf76aed8a83" x="163.108537" y="256.435781" style="stroke: #000000; stroke-width: 0.8"/>
      </g>
     </g>
     <g id="text_1">
      <!-- −0.30 -->
      <g transform="translate(147.785881 271.033437) scale(0.1 -0.1)">
       <defs>
        <path id="DejaVuSans-c9c" d="M 678 2272 
L 4684 2272 
L 4684 1741 
L 678 1741 
L 678 2272 
z
" transform="scale(0.015625)"/>
        <path id="DejaVuSans-13" d="M 2034 4250 
Q 1547 4250 1301 3770 
Q 1056 3291 1056 2328 
Q 1056 1369 1301 889 
Q 1547 409 2034 409 
Q 2525 409 2770 889 
Q 3016 1369 3016 2328 
Q 3016 3291 2770 3770 
Q 2525 4250 2034 4250 
z
M 2034 4750 
Q 2819 4750 3233 4129 
Q 3647 3509 3647 2328 
Q 3647 1150 3233 529 
Q 2819 -91 2034 -91 
Q 1250 -91 836 529 
Q 422 1150 422 2328 
Q 422 3509 836 4129 
Q 1250 4750 2034 4750 
z
" transform="scale(0.015625)"/>
        <path id="DejaVuSans-11" d="M 684 794 
L 1344 794 
L 1344 0 
L 684 0 
L 684 794 
z
" transform="scale(0.015625)"/>
        <path id="DejaVuSans-16" d="M 2597 2516 
Q 3050 2419 3304 2112 
Q 3559 1806 3559 1356 
Q 3559 666 3084 287 
Q 2609 -91 1734 -91 
Q 1441 -91 1130 -33 
Q 819 25 488 141 
L 488 750 
Q 750 597 1062 519 
Q 1375 441 1716 441 
Q 2309 441 2620 675 
Q 2931 909 2931 1356 
Q 2931 1769 2642 2001 
Q 2353 2234 1838 2234 
L 1294 2234 
L 1294 2753 
L 1863 2753 
Q 2328 2753 2575 2939 
Q 2822 3125 2822 3475 
Q 2822 3834 2567 4026 
Q 2313 4219 1838 4219 
Q 1578 4219 1281 4162 
Q 984 4106 628 3988 
L 628 4550 
Q 988 4650 1302 4700 
Q 1616 4750 1894 4750 
Q 2613 4750 3031 4423 
Q 3450 4097 3450 3541 
Q 3450 3153 3228 2886 
Q 3006 2619 2597 2516 
z
" transform="scale(0.015625)"/>
       </defs>
       <use xlink:href="#DejaVuSans-c9c"/>
       <use xlink:href="#DejaVuSans-13" transform="translate(83.796875 0)"/>
       <use xlink:href="#DejaVuSans-11" transform="translate(147.421875 0)"/>
       <use xlink:href="#DejaVuSans-16" transform="translate(179.203125 0)"/>
       <use xlink:href="#DejaVuSans-13" transform="translate(242.828125 0)"/>
      </g>
     </g>
    </g>
    <g id="xtick_2">
     <g id="line2d_2">
      <g>
       <use xlink:href="#mf76aed8a83" x="212.663747" y="256.435781" style="stroke: #000000; stroke-width: 0.8"/>
      </g>
     </g>
     <g id="text_2">
      <!-- −0.25 -->
      <g transform="translate(197.34109 271.033437) scale(0.1 -0.1)">
       <defs>
        <path id="DejaVuSans-15" d="M 1228 531 
L 3431 531 
L 3431 0 
L 469 0 
L 469 531 
Q 828 903 1448 1529 
Q 2069 2156 2228 2338 
Q 2531 2678 2651 2914 
Q 2772 3150 2772 3378 
Q 2772 3750 2511 3984 
Q 2250 4219 1831 4219 
Q 1534 4219 1204 4116 
Q 875 4013 500 3803 
L 500 4441 
Q 881 4594 1212 4672 
Q 1544 4750 1819 4750 
Q 2544 4750 2975 4387 
Q 3406 4025 3406 3419 
Q 3406 3131 3298 2873 
Q 3191 2616 2906 2266 
Q 2828 2175 2409 1742 
Q 1991 1309 1228 531 
z
" transform="scale(0.015625)"/>
        <path id="DejaVuSans-18" d="M 691 4666 
L 3169 4666 
L 3169 4134 
L 1269 4134 
L 1269 2991 
Q 1406 3038 1543 3061 
Q 1681 3084 1819 3084 
Q 2600 3084 3056 2656 
Q 3513 2228 3513 1497 
Q 3513 744 3044 326 
Q 2575 -91 1722 -91 
Q 1428 -91 1123 -41 
Q 819 9 494 109 
L 494 744 
Q 775 591 1075 516 
Q 1375 441 1709 441 
Q 2250 441 2565 725 
Q 2881 1009 2881 1497 
Q 2881 1984 2565 2268 
Q 2250 2553 1709 2553 
Q 1456 2553 1204 2497 
Q 953 2441 691 2322 
L 691 4666 
z
" transform="scale(0.015625)"/>
       </defs>
       <use xlink:href="#DejaVuSans-c9c"/>
       <use xlink:href="#DejaVuSans-13" transform="translate(83.796875 0)"/>
       <use xlink:href="#DejaVuSans-11" transform="translate(147.421875 0)"/>
       <use xlink:href="#DejaVuSans-15" transform="translate(179.203125 0)"/>
       <use xlink:href="#DejaVuSans-18" transform="translate(242.828125 0)"/>
      </g>
     </g>
    </g>
    <g id="xtick_3">
     <g id="line2d_3">
      <g>
       <use xlink:href="#mf76aed8a83" x="262.218956" y="256.435781" style="stroke: #000000; stroke-width: 0.8"/>
      </g>
     </g>
     <g id="text_3">
      <!-- −0.20 -->
      <g transform="translate(246.8963 271.033437) scale(0.1 -0.1)">
       <use xlink:href="#DejaVuSans-c9c"/>
       <use xlink:href="#DejaVuSans-13" transform="translate(83.796875 0)"/>
       <use xlink:href="#DejaVuSans-11" transform="translate(147.421875 0)"/>
       <use xlink:href="#DejaVuSans-15" transform="translate(179.203125 0)"/>
       <use xlink:href="#DejaVuSans-13" transform="translate(242.828125 0)"/>
      </g>
     </g>
    </g>
    <g id="xtick_4">
     <g id="line2d_4">
      <g>
       <use xlink:href="#mf76aed8a83" x="311.774166" y="256.435781" style="stroke: #000000; stroke-width: 0.8"/>
      </g>
     </g>
     <g id="text_4">
      <!-- −0.15 -->
      <g transform="translate(296.45151 271.033437) scale(0.1 -0.1)">
       <defs>
        <path id="DejaVuSans-14" d="M 794 531 
L 1825 531 
L 1825 4091 
L 703 3866 
L 703 4441 
L 1819 4666 
L 2450 4666 
L 2450 531 
L 3481 531 
L 3481 0 
L 794 0 
L 794 531 
z
" transform="scale(0.015625)"/>
       </defs>
       <use xlink:href="#DejaVuSans-c9c"/>
       <use xlink:href="#DejaVuSans-13" transform="translate(83.796875 0)"/>
       <use xlink:href="#DejaVuSans-11" transform="translate(147.421875 0)"/>
       <use xlink:href="#DejaVuSans-14" transform="translate(179.203125 0)"/>
       <use xlink:href="#DejaVuSans-18" transform="translate(242.828125 0)"/>
      </g>
     </g>
    </g>
    <g id="xtick_5">
     <g id="line2d_5">
      <g>
       <use xlink:href="#mf76aed8a83" x="361.329375" y="256.435781" style="stroke: #000000; stroke-width: 0.8"/>
      </g>
     </g>
     <g id="text_5">
      <!-- −0.10 -->
      <g transform="translate(346.006719 271.033437) scale(0.1 -0.1)">
       <use xlink:href="#DejaVuSans-c9c"/>
       <use xlink:href="#DejaVuSans-13" transform="translate(83.796875 0)"/>
       <use xlink:href="#DejaVuSans-11" transform="translate(147.421875 0)"/>
       <use xlink:href="#DejaVuSans-14" transform="translate(179.203125 0)"/>
       <use xlink:href="#DejaVuSans-13" transform="translate(242.828125 0)"/>
      </g>
     </g>
    </g>
    <g id="xtick_6">
     <g id="line2d_6">
      <g>
       <use xlink:href="#mf76aed8a83" x="410.884585" y="256.435781" style="stroke: #000000; stroke-width: 0.8"/>
      </g>
     </g>
     <g id="text_6">
      <!-- −0.05 -->
      <g transform="translate(395.561929 271.033437) scale(0.1 -0.1)">
       <use xlink:href="#DejaVuSans-c9c"/>
       <use xlink:href="#DejaVuSans-13" transform="translate(83.796875 0)"/>
       <use xlink:href="#DejaVuSans-11" transform="translate(147.421875 0)"/>
       <use xlink:href="#DejaVuSans-13" transform="translate(179.203125 0)"/>
       <use xlink:href="#DejaVuSans-18" transform="translate(242.828125 0)"/>
      </g>
     </g>
    </g>
    <g id="xtick_7">
     <g id="line2d_7">
      <g>
       <use xlink:href="#mf76aed8a83" x="460.439795" y="256.435781" style="stroke: #000000; stroke-width: 0.8"/>
      </g>
     </g>
     <g id="text_7">
      <!-- 0.00 -->
      <g transform="translate(449.306982 271.033437) scale(0.1 -0.1)">
       <use xlink:href="#DejaVuSans-13"/>
       <use xlink:href="#DejaVuSans-11" transform="translate(63.625 0)"/>
       <use xlink:href="#DejaVuSans-13" transform="translate(95.40625 0)"/>
       <use xlink:href="#DejaVuSans-13" transform="translate(159.03125 0)"/>
      </g>
     </g>
    </g>
    <g id="text_8">
     <!-- Interaction estimate (null = 0) -->
     <g transform="translate(255.399844 285.034219) scale(0.1 -0.1)">
      <defs>
       <path id="DejaVuSans-2c" d="M 628 4666 
L 1259 4666 
L 1259 0 
L 628 0 
L 628 4666 
z
" transform="scale(0.015625)"/>
       <path id="DejaVuSans-51" d="M 3513 2113 
L 3513 0 
L 2938 0 
L 2938 2094 
Q 2938 2591 2744 2837 
Q 2550 3084 2163 3084 
Q 1697 3084 1428 2787 
Q 1159 2491 1159 1978 
L 1159 0 
L 581 0 
L 581 3500 
L 1159 3500 
L 1159 2956 
Q 1366 3272 1645 3428 
Q 1925 3584 2291 3584 
Q 2894 3584 3203 3211 
Q 3513 2838 3513 2113 
z
" transform="scale(0.015625)"/>
       <path id="DejaVuSans-57" d="M 1172 4494 
L 1172 3500 
L 2356 3500 
L 2356 3053 
L 1172 3053 
L 1172 1153 
Q 1172 725 1289 603 
Q 1406 481 1766 481 
L 2356 481 
L 2356 0 
L 1766 0 
Q 1100 0 847 248 
Q 594 497 594 1153 
L 594 3053 
L 172 3053 
L 172 3500 
L 594 3500 
L 594 4494 
L 1172 4494 
z
" transform="scale(0.015625)"/>
       <path id="DejaVuSans-48" d="M 3597 1894 
L 3597 1613 
L 953 1613 
Q 991 1019 1311 708 
Q 1631 397 2203 397 
Q 2534 397 2845 478 
Q 3156 559 3463 722 
L 3463 178 
Q 3153 47 2828 -22 
Q 2503 -91 2169 -91 
Q 1331 -91 842 396 
Q 353 884 353 1716 
Q 353 2575 817 3079 
Q 1281 3584 2069 3584 
Q 2775 3584 3186 3129 
Q 3597 2675 3597 1894 
z
M 3022 2063 
Q 3016 2534 2758 2815 
Q 2500 3097 2075 3097 
Q 1594 3097 1305 2825 
Q 1016 2553 972 2059 
L 3022 2063 
z
" transform="scale(0.015625)"/>
       <path id="DejaVuSans-55" d="M 2631 2963 
Q 2534 3019 2420 3045 
Q 2306 3072 2169 3072 
Q 1681 3072 1420 2755 
Q 1159 2438 1159 1844 
L 1159 0 
L 581 0 
L 581 3500 
L 1159 3500 
L 1159 2956 
Q 1341 3275 1631 3429 
Q 1922 3584 2338 3584 
Q 2397 3584 2469 3576 
Q 2541 3569 2628 3553 
L 2631 2963 
z
" transform="scale(0.015625)"/>
       <path id="DejaVuSans-44" d="M 2194 1759 
Q 1497 1759 1228 1600 
Q 959 1441 959 1056 
Q 959 750 1161 570 
Q 1363 391 1709 391 
Q 2188 391 2477 730 
Q 2766 1069 2766 1631 
L 2766 1759 
L 2194 1759 
z
M 3341 1997 
L 3341 0 
L 2766 0 
L 2766 531 
Q 2569 213 2275 61 
Q 1981 -91 1556 -91 
Q 1019 -91 701 211 
Q 384 513 384 1019 
Q 384 1609 779 1909 
Q 1175 2209 1959 2209 
L 2766 2209 
L 2766 2266 
Q 2766 2663 2505 2880 
Q 2244 3097 1772 3097 
Q 1472 3097 1187 3025 
Q 903 2953 641 2809 
L 641 3341 
Q 956 3463 1253 3523 
Q 1550 3584 1831 3584 
Q 2591 3584 2966 3190 
Q 3341 2797 3341 1997 
z
" transform="scale(0.015625)"/>
       <path id="DejaVuSans-46" d="M 3122 3366 
L 3122 2828 
Q 2878 2963 2633 3030 
Q 2388 3097 2138 3097 
Q 1578 3097 1268 2742 
Q 959 2388 959 1747 
Q 959 1106 1268 751 
Q 1578 397 2138 397 
Q 2388 397 2633 464 
Q 2878 531 3122 666 
L 3122 134 
Q 2881 22 2623 -34 
Q 2366 -91 2075 -91 
Q 1284 -91 818 406 
Q 353 903 353 1747 
Q 353 2603 823 3093 
Q 1294 3584 2113 3584 
Q 2378 3584 2631 3529 
Q 2884 3475 3122 3366 
z
" transform="scale(0.015625)"/>
       <path id="DejaVuSans-4c" d="M 603 3500 
L 1178 3500 
L 1178 0 
L 603 0 
L 603 3500 
z
M 603 4863 
L 1178 4863 
L 1178 4134 
L 603 4134 
L 603 4863 
z
" transform="scale(0.015625)"/>
       <path id="DejaVuSans-52" d="M 1959 3097 
Q 1497 3097 1228 2736 
Q 959 2375 959 1747 
Q 959 1119 1226 758 
Q 1494 397 1959 397 
Q 2419 397 2687 759 
Q 2956 1122 2956 1747 
Q 2956 2369 2687 2733 
Q 2419 3097 1959 3097 
z
M 1959 3584 
Q 2709 3584 3137 3096 
Q 3566 2609 3566 1747 
Q 3566 888 3137 398 
Q 2709 -91 1959 -91 
Q 1206 -91 779 398 
Q 353 888 353 1747 
Q 353 2609 779 3096 
Q 1206 3584 1959 3584 
z
" transform="scale(0.015625)"/>
       <path id="DejaVuSans-3" transform="scale(0.015625)"/>
       <path id="DejaVuSans-56" d="M 2834 3397 
L 2834 2853 
Q 2591 2978 2328 3040 
Q 2066 3103 1784 3103 
Q 1356 3103 1142 2972 
Q 928 2841 928 2578 
Q 928 2378 1081 2264 
Q 1234 2150 1697 2047 
L 1894 2003 
Q 2506 1872 2764 1633 
Q 3022 1394 3022 966 
Q 3022 478 2636 193 
Q 2250 -91 1575 -91 
Q 1294 -91 989 -36 
Q 684 19 347 128 
L 347 722 
Q 666 556 975 473 
Q 1284 391 1588 391 
Q 1994 391 2212 530 
Q 2431 669 2431 922 
Q 2431 1156 2273 1281 
Q 2116 1406 1581 1522 
L 1381 1569 
Q 847 1681 609 1914 
Q 372 2147 372 2553 
Q 372 3047 722 3315 
Q 1072 3584 1716 3584 
Q 2034 3584 2315 3537 
Q 2597 3491 2834 3397 
z
" transform="scale(0.015625)"/>
       <path id="DejaVuSans-50" d="M 3328 2828 
Q 3544 3216 3844 3400 
Q 4144 3584 4550 3584 
Q 5097 3584 5394 3201 
Q 5691 2819 5691 2113 
L 5691 0 
L 5113 0 
L 5113 2094 
Q 5113 2597 4934 2840 
Q 4756 3084 4391 3084 
Q 3944 3084 3684 2787 
Q 3425 2491 3425 1978 
L 3425 0 
L 2847 0 
L 2847 2094 
Q 2847 2600 2669 2842 
Q 2491 3084 2119 3084 
Q 1678 3084 1418 2786 
Q 1159 2488 1159 1978 
L 1159 0 
L 581 0 
L 581 3500 
L 1159 3500 
L 1159 2956 
Q 1356 3278 1631 3431 
Q 1906 3584 2284 3584 
Q 2666 3584 2933 3390 
Q 3200 3197 3328 2828 
z
" transform="scale(0.015625)"/>
       <path id="DejaVuSans-b" d="M 1984 4856 
Q 1566 4138 1362 3434 
Q 1159 2731 1159 2009 
Q 1159 1288 1364 580 
Q 1569 -128 1984 -844 
L 1484 -844 
Q 1016 -109 783 600 
Q 550 1309 550 2009 
Q 550 2706 781 3412 
Q 1013 4119 1484 4856 
L 1984 4856 
z
" transform="scale(0.015625)"/>
       <path id="DejaVuSans-58" d="M 544 1381 
L 544 3500 
L 1119 3500 
L 1119 1403 
Q 1119 906 1312 657 
Q 1506 409 1894 409 
Q 2359 409 2629 706 
Q 2900 1003 2900 1516 
L 2900 3500 
L 3475 3500 
L 3475 0 
L 2900 0 
L 2900 538 
Q 2691 219 2414 64 
Q 2138 -91 1772 -91 
Q 1169 -91 856 284 
Q 544 659 544 1381 
z
M 1991 3584 
L 1991 3584 
z
" transform="scale(0.015625)"/>
       <path id="DejaVuSans-4f" d="M 603 4863 
L 1178 4863 
L 1178 0 
L 603 0 
L 603 4863 
z
" transform="scale(0.015625)"/>
       <path id="DejaVuSans-20" d="M 678 2906 
L 4684 2906 
L 4684 2381 
L 678 2381 
L 678 2906 
z
M 678 1631 
L 4684 1631 
L 4684 1100 
L 678 1100 
L 678 1631 
z
" transform="scale(0.015625)"/>
       <path id="DejaVuSans-c" d="M 513 4856 
L 1013 4856 
Q 1481 4119 1714 3412 
Q 1947 2706 1947 2009 
Q 1947 1309 1714 600 
Q 1481 -109 1013 -844 
L 513 -844 
Q 928 -128 1133 580 
Q 1338 1288 1338 2009 
Q 1338 2731 1133 3434 
Q 928 4138 513 4856 
z
" transform="scale(0.015625)"/>
      </defs>
      <use xlink:href="#DejaVuSans-2c"/>
      <use xlink:href="#DejaVuSans-51" transform="translate(29.5 0)"/>
      <use xlink:href="#DejaVuSans-57" transform="translate(92.875 0)"/>
      <use xlink:href="#DejaVuSans-48" transform="translate(132.078125 0)"/>
      <use xlink:href="#DejaVuSans-55" transform="translate(193.609375 0)"/>
      <use xlink:href="#DejaVuSans-44" transform="translate(234.71875 0)"/>
      <use xlink:href="#DejaVuSans-46" transform="translate(296 0)"/>
      <use xlink:href="#DejaVuSans-57" transform="translate(350.984375 0)"/>
      <use xlink:href="#DejaVuSans-4c" transform="translate(390.1875 0)"/>
      <use xlink:href="#DejaVuSans-52" transform="translate(417.96875 0)"/>
      <use xlink:href="#DejaVuSans-51" transform="translate(479.15625 0)"/>
      <use xlink:href="#DejaVuSans-3" transform="translate(542.53125 0)"/>
      <use xlink:href="#DejaVuSans-48" transform="translate(574.3125 0)"/>
      <use xlink:href="#DejaVuSans-56" transform="translate(635.84375 0)"/>
      <use xlink:href="#DejaVuSans-57" transform="translate(687.9375 0)"/>
      <use xlink:href="#DejaVuSans-4c" transform="translate(727.140625 0)"/>
      <use xlink:href="#DejaVuSans-50" transform="translate(754.921875 0)"/>
      <use xlink:href="#DejaVuSans-44" transform="translate(852.328125 0)"/>
      <use xlink:href="#DejaVuSans-57" transform="translate(913.609375 0)"/>
      <use xlink:href="#DejaVuSans-48" transform="translate(952.8125 0)"/>
      <use xlink:href="#DejaVuSans-3" transform="translate(1014.34375 0)"/>
      <use xlink:href="#DejaVuSans-b" transform="translate(1046.125 0)"/>
      <use xlink:href="#DejaVuSans-51" transform="translate(1085.140625 0)"/>
      <use xlink:href="#DejaVuSans-58" transform="translate(1148.515625 0)"/>
      <use xlink:href="#DejaVuSans-4f" transform="translate(1211.890625 0)"/>
      <use xlink:href="#DejaVuSans-4f" transform="translate(1239.671875 0)"/>
      <use xlink:href="#DejaVuSans-3" transform="translate(1267.453125 0)"/>
      <use xlink:href="#DejaVuSans-20" transform="translate(1299.234375 0)"/>
      <use xlink:href="#DejaVuSans-3" transform="translate(1383.03125 0)"/>
      <use xlink:href="#DejaVuSans-13" transform="translate(1414.8125 0)"/>
      <use xlink:href="#DejaVuSans-c" transform="translate(1478.4375 0)"/>
     </g>
    </g>
   </g>
   <g id="matplotlib.axis_2">
    <g id="ytick_1">
     <g id="line2d_8">
      <defs>
       <path id="mcff94eda97" d="M 0 0 
L -3.5 0 
" style="stroke: #000000; stroke-width: 0.8"/>
      </defs>
      <g>
       <use xlink:href="#mcff94eda97" x="160.4425" y="245.79407" style="stroke: #000000; stroke-width: 0.8"/>
      </g>
     </g>
     <g id="text_9">
      <!-- Mortality interaction contrast -->
      <g transform="translate(36.65625 248.833445) scale(0.08 -0.08)">
       <defs>
        <path id="DejaVuSans-30" d="M 628 4666 
L 1569 4666 
L 2759 1491 
L 3956 4666 
L 4897 4666 
L 4897 0 
L 4281 0 
L 4281 4097 
L 3078 897 
L 2444 897 
L 1241 4097 
L 1241 0 
L 628 0 
L 628 4666 
z
" transform="scale(0.015625)"/>
        <path id="DejaVuSans-5c" d="M 2059 -325 
Q 1816 -950 1584 -1140 
Q 1353 -1331 966 -1331 
L 506 -1331 
L 506 -850 
L 844 -850 
Q 1081 -850 1212 -737 
Q 1344 -625 1503 -206 
L 1606 56 
L 191 3500 
L 800 3500 
L 1894 763 
L 2988 3500 
L 3597 3500 
L 2059 -325 
z
" transform="scale(0.015625)"/>
       </defs>
       <use xlink:href="#DejaVuSans-30"/>
       <use xlink:href="#DejaVuSans-52" transform="translate(86.28125 0)"/>
       <use xlink:href="#DejaVuSans-55" transform="translate(147.46875 0)"/>
       <use xlink:href="#DejaVuSans-57" transform="translate(188.578125 0)"/>
       <use xlink:href="#DejaVuSans-44" transform="translate(227.78125 0)"/>
       <use xlink:href="#DejaVuSans-4f" transform="translate(289.0625 0)"/>
       <use xlink:href="#DejaVuSans-4c" transform="translate(316.84375 0)"/>
       <use xlink:href="#DejaVuSans-57" transform="translate(344.625 0)"/>
       <use xlink:href="#DejaVuSans-5c" transform="translate(383.828125 0)"/>
       <use xlink:href="#DejaVuSans-3" transform="translate(443.015625 0)"/>
       <use xlink:href="#DejaVuSans-4c" transform="translate(474.796875 0)"/>
       <use xlink:href="#DejaVuSans-51" transform="translate(502.578125 0)"/>
       <use xlink:href="#DejaVuSans-57" transform="translate(565.953125 0)"/>
       <use xlink:href="#DejaVuSans-48" transform="translate(605.15625 0)"/>
       <use xlink:href="#DejaVuSans-55" transform="translate(666.6875 0)"/>
       <use xlink:href="#DejaVuSans-44" transform="translate(707.796875 0)"/>
       <use xlink:href="#DejaVuSans-46" transform="translate(769.078125 0)"/>
       <use xlink:href="#DejaVuSans-57" transform="translate(824.0625 0)"/>
       <use xlink:href="#DejaVuSans-4c" transform="translate(863.265625 0)"/>
       <use xlink:href="#DejaVuSans-52" transform="translate(891.046875 0)"/>
       <use xlink:href="#DejaVuSans-51" transform="translate(952.234375 0)"/>
       <use xlink:href="#DejaVuSans-3" transform="translate(1015.609375 0)"/>
       <use xlink:href="#DejaVuSans-46" transform="translate(1047.390625 0)"/>
       <use xlink:href="#DejaVuSans-52" transform="translate(1102.375 0)"/>
       <use xlink:href="#DejaVuSans-51" transform="translate(1163.5625 0)"/>
       <use xlink:href="#DejaVuSans-57" transform="translate(1226.9375 0)"/>
       <use xlink:href="#DejaVuSans-55" transform="translate(1266.140625 0)"/>
       <use xlink:href="#DejaVuSans-44" transform="translate(1307.25 0)"/>
       <use xlink:href="#DejaVuSans-56" transform="translate(1368.53125 0)"/>
       <use xlink:href="#DejaVuSans-57" transform="translate(1420.625 0)"/>
      </g>
     </g>
    </g>
    <g id="ytick_2">
     <g id="line2d_9">
      <g>
       <use xlink:href="#mcff94eda97" x="160.4425" y="203.227223" style="stroke: #000000; stroke-width: 0.8"/>
      </g>
     </g>
     <g id="text_10">
      <!-- Mortality RERI -->
      <g transform="translate(96.92625 206.266598) scale(0.08 -0.08)">
       <defs>
        <path id="DejaVuSans-35" d="M 2841 2188 
Q 3044 2119 3236 1894 
Q 3428 1669 3622 1275 
L 4263 0 
L 3584 0 
L 2988 1197 
Q 2756 1666 2539 1819 
Q 2322 1972 1947 1972 
L 1259 1972 
L 1259 0 
L 628 0 
L 628 4666 
L 2053 4666 
Q 2853 4666 3247 4331 
Q 3641 3997 3641 3322 
Q 3641 2881 3436 2590 
Q 3231 2300 2841 2188 
z
M 1259 4147 
L 1259 2491 
L 2053 2491 
Q 2509 2491 2742 2702 
Q 2975 2913 2975 3322 
Q 2975 3731 2742 3939 
Q 2509 4147 2053 4147 
L 1259 4147 
z
" transform="scale(0.015625)"/>
        <path id="DejaVuSans-28" d="M 628 4666 
L 3578 4666 
L 3578 4134 
L 1259 4134 
L 1259 2753 
L 3481 2753 
L 3481 2222 
L 1259 2222 
L 1259 531 
L 3634 531 
L 3634 0 
L 628 0 
L 628 4666 
z
" transform="scale(0.015625)"/>
       </defs>
       <use xlink:href="#DejaVuSans-30"/>
       <use xlink:href="#DejaVuSans-52" transform="translate(86.28125 0)"/>
       <use xlink:href="#DejaVuSans-55" transform="translate(147.46875 0)"/>
       <use xlink:href="#DejaVuSans-57" transform="translate(188.578125 0)"/>
       <use xlink:href="#DejaVuSans-44" transform="translate(227.78125 0)"/>
       <use xlink:href="#DejaVuSans-4f" transform="translate(289.0625 0)"/>
       <use xlink:href="#DejaVuSans-4c" transform="translate(316.84375 0)"/>
       <use xlink:href="#DejaVuSans-57" transform="translate(344.625 0)"/>
       <use xlink:href="#DejaVuSans-5c" transform="translate(383.828125 0)"/>
       <use xlink:href="#DejaVuSans-3" transform="translate(443.015625 0)"/>
       <use xlink:href="#DejaVuSans-35" transform="translate(474.796875 0)"/>
       <use xlink:href="#DejaVuSans-28" transform="translate(544.28125 0)"/>
       <use xlink:href="#DejaVuSans-35" transform="translate(607.46875 0)"/>
       <use xlink:href="#DejaVuSans-2c" transform="translate(676.953125 0)"/>
      </g>
     </g>
    </g>
    <g id="ytick_3">
     <g id="line2d_10">
      <g>
       <use xlink:href="#mcff94eda97" x="160.4425" y="160.660376" style="stroke: #000000; stroke-width: 0.8"/>
      </g>
     </g>
     <g id="text_11">
      <!-- Readmission interaction contrast -->
      <g transform="translate(21.45625 163.699751) scale(0.08 -0.08)">
       <defs>
        <path id="DejaVuSans-47" d="M 2906 2969 
L 2906 4863 
L 3481 4863 
L 3481 0 
L 2906 0 
L 2906 525 
Q 2725 213 2448 61 
Q 2172 -91 1784 -91 
Q 1150 -91 751 415 
Q 353 922 353 1747 
Q 353 2572 751 3078 
Q 1150 3584 1784 3584 
Q 2172 3584 2448 3432 
Q 2725 3281 2906 2969 
z
M 947 1747 
Q 947 1113 1208 752 
Q 1469 391 1925 391 
Q 2381 391 2643 752 
Q 2906 1113 2906 1747 
Q 2906 2381 2643 2742 
Q 2381 3103 1925 3103 
Q 1469 3103 1208 2742 
Q 947 2381 947 1747 
z
" transform="scale(0.015625)"/>
       </defs>
       <use xlink:href="#DejaVuSans-35"/>
       <use xlink:href="#DejaVuSans-48" transform="translate(65 0)"/>
       <use xlink:href="#DejaVuSans-44" transform="translate(126.53125 0)"/>
       <use xlink:href="#DejaVuSans-47" transform="translate(187.8125 0)"/>
       <use xlink:href="#DejaVuSans-50" transform="translate(251.296875 0)"/>
       <use xlink:href="#DejaVuSans-4c" transform="translate(348.703125 0)"/>
       <use xlink:href="#DejaVuSans-56" transform="translate(376.484375 0)"/>
       <use xlink:href="#DejaVuSans-56" transform="translate(428.578125 0)"/>
       <use xlink:href="#DejaVuSans-4c" transform="translate(480.671875 0)"/>
       <use xlink:href="#DejaVuSans-52" transform="translate(508.453125 0)"/>
       <use xlink:href="#DejaVuSans-51" transform="translate(569.640625 0)"/>
       <use xlink:href="#DejaVuSans-3" transform="translate(633.015625 0)"/>
       <use xlink:href="#DejaVuSans-4c" transform="translate(664.796875 0)"/>
       <use xlink:href="#DejaVuSans-51" transform="translate(692.578125 0)"/>
       <use xlink:href="#DejaVuSans-57" transform="translate(755.953125 0)"/>
       <use xlink:href="#DejaVuSans-48" transform="translate(795.15625 0)"/>
       <use xlink:href="#DejaVuSans-55" transform="translate(856.6875 0)"/>
       <use xlink:href="#DejaVuSans-44" transform="translate(897.796875 0)"/>
       <use xlink:href="#DejaVuSans-46" transform="translate(959.078125 0)"/>
       <use xlink:href="#DejaVuSans-57" transform="translate(1014.0625 0)"/>
       <use xlink:href="#DejaVuSans-4c" transform="translate(1053.265625 0)"/>
       <use xlink:href="#DejaVuSans-52" transform="translate(1081.046875 0)"/>
       <use xlink:href="#DejaVuSans-51" transform="translate(1142.234375 0)"/>
       <use xlink:href="#DejaVuSans-3" transform="translate(1205.609375 0)"/>
       <use xlink:href="#DejaVuSans-46" transform="translate(1237.390625 0)"/>
       <use xlink:href="#DejaVuSans-52" transform="translate(1292.375 0)"/>
       <use xlink:href="#DejaVuSans-51" transform="translate(1353.5625 0)"/>
       <use xlink:href="#DejaVuSans-57" transform="translate(1416.9375 0)"/>
       <use xlink:href="#DejaVuSans-55" transform="translate(1456.140625 0)"/>
       <use xlink:href="#DejaVuSans-44" transform="translate(1497.25 0)"/>
       <use xlink:href="#DejaVuSans-56" transform="translate(1558.53125 0)"/>
       <use xlink:href="#DejaVuSans-57" transform="translate(1610.625 0)"/>
      </g>
     </g>
    </g>
    <g id="ytick_4">
     <g id="line2d_11">
      <g>
       <use xlink:href="#mcff94eda97" x="160.4425" y="118.09353" style="stroke: #000000; stroke-width: 0.8"/>
      </g>
     </g>
     <g id="text_12">
      <!-- Readmission RERI -->
      <g transform="translate(81.72625 121.132905) scale(0.08 -0.08)">
       <use xlink:href="#DejaVuSans-35"/>
       <use xlink:href="#DejaVuSans-48" transform="translate(65 0)"/>
       <use xlink:href="#DejaVuSans-44" transform="translate(126.53125 0)"/>
       <use xlink:href="#DejaVuSans-47" transform="translate(187.8125 0)"/>
       <use xlink:href="#DejaVuSans-50" transform="translate(251.296875 0)"/>
       <use xlink:href="#DejaVuSans-4c" transform="translate(348.703125 0)"/>
       <use xlink:href="#DejaVuSans-56" transform="translate(376.484375 0)"/>
       <use xlink:href="#DejaVuSans-56" transform="translate(428.578125 0)"/>
       <use xlink:href="#DejaVuSans-4c" transform="translate(480.671875 0)"/>
       <use xlink:href="#DejaVuSans-52" transform="translate(508.453125 0)"/>
       <use xlink:href="#DejaVuSans-51" transform="translate(569.640625 0)"/>
       <use xlink:href="#DejaVuSans-3" transform="translate(633.015625 0)"/>
       <use xlink:href="#DejaVuSans-35" transform="translate(664.796875 0)"/>
       <use xlink:href="#DejaVuSans-28" transform="translate(734.28125 0)"/>
       <use xlink:href="#DejaVuSans-35" transform="translate(797.46875 0)"/>
       <use xlink:href="#DejaVuSans-2c" transform="translate(866.953125 0)"/>
      </g>
     </g>
    </g>
    <g id="ytick_5">
     <g id="line2d_12">
      <g>
       <use xlink:href="#mcff94eda97" x="160.4425" y="75.526683" style="stroke: #000000; stroke-width: 0.8"/>
      </g>
     </g>
     <g id="text_13">
      <!-- ICU readmission interaction contrast -->
      <g transform="translate(7.2 78.566058) scale(0.08 -0.08)">
       <defs>
        <path id="DejaVuSans-26" d="M 4122 4306 
L 4122 3641 
Q 3803 3938 3442 4084 
Q 3081 4231 2675 4231 
Q 1875 4231 1450 3742 
Q 1025 3253 1025 2328 
Q 1025 1406 1450 917 
Q 1875 428 2675 428 
Q 3081 428 3442 575 
Q 3803 722 4122 1019 
L 4122 359 
Q 3791 134 3420 21 
Q 3050 -91 2638 -91 
Q 1578 -91 968 557 
Q 359 1206 359 2328 
Q 359 3453 968 4101 
Q 1578 4750 2638 4750 
Q 3056 4750 3426 4639 
Q 3797 4528 4122 4306 
z
" transform="scale(0.015625)"/>
        <path id="DejaVuSans-38" d="M 556 4666 
L 1191 4666 
L 1191 1831 
Q 1191 1081 1462 751 
Q 1734 422 2344 422 
Q 2950 422 3222 751 
Q 3494 1081 3494 1831 
L 3494 4666 
L 4128 4666 
L 4128 1753 
Q 4128 841 3676 375 
Q 3225 -91 2344 -91 
Q 1459 -91 1007 375 
Q 556 841 556 1753 
L 556 4666 
z
" transform="scale(0.015625)"/>
       </defs>
       <use xlink:href="#DejaVuSans-2c"/>
       <use xlink:href="#DejaVuSans-26" transform="translate(29.5 0)"/>
       <use xlink:href="#DejaVuSans-38" transform="translate(99.328125 0)"/>
       <use xlink:href="#DejaVuSans-3" transform="translate(172.515625 0)"/>
       <use xlink:href="#DejaVuSans-55" transform="translate(204.296875 0)"/>
       <use xlink:href="#DejaVuSans-48" transform="translate(243.203125 0)"/>
       <use xlink:href="#DejaVuSans-44" transform="translate(304.734375 0)"/>
       <use xlink:href="#DejaVuSans-47" transform="translate(366.015625 0)"/>
       <use xlink:href="#DejaVuSans-50" transform="translate(429.5 0)"/>
       <use xlink:href="#DejaVuSans-4c" transform="translate(526.90625 0)"/>
       <use xlink:href="#DejaVuSans-56" transform="translate(554.6875 0)"/>
       <use xlink:href="#DejaVuSans-56" transform="translate(606.78125 0)"/>
       <use xlink:href="#DejaVuSans-4c" transform="translate(658.875 0)"/>
       <use xlink:href="#DejaVuSans-52" transform="translate(686.65625 0)"/>
       <use xlink:href="#DejaVuSans-51" transform="translate(747.84375 0)"/>
       <use xlink:href="#DejaVuSans-3" transform="translate(811.21875 0)"/>
       <use xlink:href="#DejaVuSans-4c" transform="translate(843 0)"/>
       <use xlink:href="#DejaVuSans-51" transform="translate(870.78125 0)"/>
       <use xlink:href="#DejaVuSans-57" transform="translate(934.15625 0)"/>
       <use xlink:href="#DejaVuSans-48" transform="translate(973.359375 0)"/>
       <use xlink:href="#DejaVuSans-55" transform="translate(1034.890625 0)"/>
       <use xlink:href="#DejaVuSans-44" transform="translate(1076 0)"/>
       <use xlink:href="#DejaVuSans-46" transform="translate(1137.28125 0)"/>
       <use xlink:href="#DejaVuSans-57" transform="translate(1192.265625 0)"/>
       <use xlink:href="#DejaVuSans-4c" transform="translate(1231.46875 0)"/>
       <use xlink:href="#DejaVuSans-52" transform="translate(1259.25 0)"/>
       <use xlink:href="#DejaVuSans-51" transform="translate(1320.4375 0)"/>
       <use xlink:href="#DejaVuSans-3" transform="translate(1383.8125 0)"/>
       <use xlink:href="#DejaVuSans-46" transform="translate(1415.59375 0)"/>
       <use xlink:href="#DejaVuSans-52" transform="translate(1470.578125 0)"/>
       <use xlink:href="#DejaVuSans-51" transform="translate(1531.765625 0)"/>
       <use xlink:href="#DejaVuSans-57" transform="translate(1595.140625 0)"/>
       <use xlink:href="#DejaVuSans-55" transform="translate(1634.34375 0)"/>
       <use xlink:href="#DejaVuSans-44" transform="translate(1675.453125 0)"/>
       <use xlink:href="#DejaVuSans-56" transform="translate(1736.734375 0)"/>
       <use xlink:href="#DejaVuSans-57" transform="translate(1788.828125 0)"/>
      </g>
     </g>
    </g>
    <g id="ytick_6">
     <g id="line2d_13">
      <g>
       <use xlink:href="#mcff94eda97" x="160.4425" y="32.959837" style="stroke: #000000; stroke-width: 0.8"/>
      </g>
     </g>
     <g id="text_14">
      <!-- ICU readmission RERI -->
      <g transform="translate(67.47 35.999212) scale(0.08 -0.08)">
       <use xlink:href="#DejaVuSans-2c"/>
       <use xlink:href="#DejaVuSans-26" transform="translate(29.5 0)"/>
       <use xlink:href="#DejaVuSans-38" transform="translate(99.328125 0)"/>
       <use xlink:href="#DejaVuSans-3" transform="translate(172.515625 0)"/>
       <use xlink:href="#DejaVuSans-55" transform="translate(204.296875 0)"/>
       <use xlink:href="#DejaVuSans-48" transform="translate(243.203125 0)"/>
       <use xlink:href="#DejaVuSans-44" transform="translate(304.734375 0)"/>
       <use xlink:href="#DejaVuSans-47" transform="translate(366.015625 0)"/>
       <use xlink:href="#DejaVuSans-50" transform="translate(429.5 0)"/>
       <use xlink:href="#DejaVuSans-4c" transform="translate(526.90625 0)"/>
       <use xlink:href="#DejaVuSans-56" transform="translate(554.6875 0)"/>
       <use xlink:href="#DejaVuSans-56" transform="translate(606.78125 0)"/>
       <use xlink:href="#DejaVuSans-4c" transform="translate(658.875 0)"/>
       <use xlink:href="#DejaVuSans-52" transform="translate(686.65625 0)"/>
       <use xlink:href="#DejaVuSans-51" transform="translate(747.84375 0)"/>
       <use xlink:href="#DejaVuSans-3" transform="translate(811.21875 0)"/>
       <use xlink:href="#DejaVuSans-35" transform="translate(843 0)"/>
       <use xlink:href="#DejaVuSans-28" transform="translate(912.484375 0)"/>
       <use xlink:href="#DejaVuSans-35" transform="translate(975.671875 0)"/>
       <use xlink:href="#DejaVuSans-2c" transform="translate(1045.15625 0)"/>
      </g>
     </g>
    </g>
   </g>
   <g id="LineCollection_1">
    <path d="M 426.999724 245.79407 
L 462.919594 245.79407 
" clip-path="url(#p61faa30eb7)" style="fill: none; stroke: #777777"/>
    <path d="M 238.638174 203.227223 
L 476.35113 203.227223 
" clip-path="url(#p61faa30eb7)" style="fill: none; stroke: #777777"/>
    <path d="M 420.491466 160.660376 
L 466.954853 160.660376 
" clip-path="url(#p61faa30eb7)" style="fill: none; stroke: #777777"/>
    <path d="M 300.827147 118.09353 
L 486.5725 118.09353 
" clip-path="url(#p61faa30eb7)" style="fill: none; stroke: #777777"/>
    <path d="M 423.452495 75.526683 
L 461.144101 75.526683 
" clip-path="url(#p61faa30eb7)" style="fill: none; stroke: #777777"/>
    <path d="M 175.9725 32.959837 
L 465.615186 32.959837 
" clip-path="url(#p61faa30eb7)" style="fill: none; stroke: #777777"/>
   </g>
   <g id="line2d_14">
    <path d="M 460.439795 256.435781 
L 460.439795 22.318125 
" clip-path="url(#p61faa30eb7)" style="fill: none; stroke-dasharray: 3.7,1.6; stroke-dashoffset: 0; stroke: #777777"/>
   </g>
   <g id="line2d_15">
    <defs>
     <path id="m9fc23a638d" d="M 0 3 
C 0.795609 3 1.55874 2.683901 2.12132 2.12132 
C 2.683901 1.55874 3 0.795609 3 0 
C 3 -0.795609 2.683901 -1.55874 2.12132 -2.12132 
C 1.55874 -2.683901 0.795609 -3 0 -3 
C -0.795609 -3 -1.55874 -2.683901 -2.12132 -2.12132 
C -2.683901 -1.55874 -3 -0.795609 -3 0 
C -3 0.795609 -2.683901 1.55874 -2.12132 2.12132 
C -1.55874 2.683901 -0.795609 3 0 3 
z
" style="stroke: #222222"/>
    </defs>
    <g clip-path="url(#p61faa30eb7)">
     <use xlink:href="#m9fc23a638d" x="445.362304" y="245.79407" style="fill: #222222; stroke: #222222"/>
     <use xlink:href="#m9fc23a638d" x="361.604017" y="203.227223" style="fill: #222222; stroke: #222222"/>
     <use xlink:href="#m9fc23a638d" x="443.524138" y="160.660376" style="fill: #222222; stroke: #222222"/>
     <use xlink:href="#m9fc23a638d" x="393.243282" y="118.09353" style="fill: #222222; stroke: #222222"/>
     <use xlink:href="#m9fc23a638d" x="442.017841" y="75.526683" style="fill: #222222; stroke: #222222"/>
     <use xlink:href="#m9fc23a638d" x="320.119683" y="32.959837" style="fill: #222222; stroke: #222222"/>
    </g>
   </g>
   <g id="patch_3">
    <path d="M 160.4425 256.435781 
L 160.4425 22.318125 
" style="fill: none; stroke: #000000; stroke-width: 0.8; stroke-linejoin: miter; stroke-linecap: square"/>
   </g>
   <g id="patch_4">
    <path d="M 502.1025 256.435781 
L 502.1025 22.318125 
" style="fill: none; stroke: #000000; stroke-width: 0.8; stroke-linejoin: miter; stroke-linecap: square"/>
   </g>
   <g id="patch_5">
    <path d="M 160.4425 256.435781 
L 502.1025 256.435781 
" style="fill: none; stroke: #000000; stroke-width: 0.8; stroke-linejoin: miter; stroke-linecap: square"/>
   </g>
   <g id="patch_6">
    <path d="M 160.4425 22.318125 
L 502.1025 22.318125 
" style="fill: none; stroke: #000000; stroke-width: 0.8; stroke-linejoin: miter; stroke-linecap: square"/>
   </g>
   <g id="text_15">
    <!-- Additive interaction estimates -->
    <g transform="translate(240.935938 16.318125) scale(0.12 -0.12)">
     <defs>
      <path id="DejaVuSans-24" d="M 2188 4044 
L 1331 1722 
L 3047 1722 
L 2188 4044 
z
M 1831 4666 
L 2547 4666 
L 4325 0 
L 3669 0 
L 3244 1197 
L 1141 1197 
L 716 0 
L 50 0 
L 1831 4666 
z
" transform="scale(0.015625)"/>
      <path id="DejaVuSans-59" d="M 191 3500 
L 800 3500 
L 1894 563 
L 2988 3500 
L 3597 3500 
L 2284 0 
L 1503 0 
L 191 3500 
z
" transform="scale(0.015625)"/>
     </defs>
     <use xlink:href="#DejaVuSans-24"/>
     <use xlink:href="#DejaVuSans-47" transform="translate(66.65625 0)"/>
     <use xlink:href="#DejaVuSans-47" transform="translate(130.140625 0)"/>
     <use xlink:href="#DejaVuSans-4c" transform="translate(193.625 0)"/>
     <use xlink:href="#DejaVuSans-57" transform="translate(221.40625 0)"/>
     <use xlink:href="#DejaVuSans-4c" transform="translate(260.609375 0)"/>
     <use xlink:href="#DejaVuSans-59" transform="translate(288.390625 0)"/>
     <use xlink:href="#DejaVuSans-48" transform="translate(347.578125 0)"/>
     <use xlink:href="#DejaVuSans-3" transform="translate(409.109375 0)"/>
     <use xlink:href="#DejaVuSans-4c" transform="translate(440.890625 0)"/>
     <use xlink:href="#DejaVuSans-51" transform="translate(468.671875 0)"/>
     <use xlink:href="#DejaVuSans-57" transform="translate(532.046875 0)"/>
     <use xlink:href="#DejaVuSans-48" transform="translate(571.25 0)"/>
     <use xlink:href="#DejaVuSans-55" transform="translate(632.78125 0)"/>
     <use xlink:href="#DejaVuSans-44" transform="translate(673.890625 0)"/>
     <use xlink:href="#DejaVuSans-46" transform="translate(735.171875 0)"/>
     <use xlink:href="#DejaVuSans-57" transform="translate(790.15625 0)"/>
     <use xlink:href="#DejaVuSans-4c" transform="translate(829.359375 0)"/>
     <use xlink:href="#DejaVuSans-52" transform="translate(857.140625 0)"/>
     <use xlink:href="#DejaVuSans-51" transform="translate(918.328125 0)"/>
     <use xlink:href="#DejaVuSans-3" transform="translate(981.703125 0)"/>
     <use xlink:href="#DejaVuSans-48" transform="translate(1013.484375 0)"/>
     <use xlink:href="#DejaVuSans-56" transform="translate(1075.015625 0)"/>
     <use xlink:href="#DejaVuSans-57" transform="translate(1127.109375 0)"/>
     <use xlink:href="#DejaVuSans-4c" transform="translate(1166.3125 0)"/>
     <use xlink:href="#DejaVuSans-50" transform="translate(1194.09375 0)"/>
     <use xlink:href="#DejaVuSans-44" transform="translate(1291.5 0)"/>
     <use xlink:href="#DejaVuSans-57" transform="translate(1352.78125 0)"/>
     <use xlink:href="#DejaVuSans-48" transform="translate(1391.984375 0)"/>
     <use xlink:href="#DejaVuSans-56" transform="translate(1453.515625 0)"/>
    </g>
   </g>
  </g>
 </g>
 <defs>
  <clipPath id="p61faa30eb7">
   <rect x="160.4425" y="22.318125" width="341.66" height="234.117656"/>
  </clipPath>
 </defs>
</svg>
