<?xml version="1.0" encoding="utf-8" standalone="no"?>
<!DOCTYPE svg PUBLIC "-//W3C//DTD SVG 1.1//EN"
  "http://www.w3.org/Graphics/SVG/1.1/DTD/svg11.dtd">
<svg xmlns:xlink="http://www.w3.org/1999/xlink" width="662.4pt" height="216pt" viewBox="0 0 662.4 216" xmlns="http://www.w3.org/2000/svg" version="1.1">
 <metadata>
  <rdf:RDF xmlns:dc="http://purl.org/dc/elements/1.1/" xmlns:cc="http://creativecommons.org/ns#" xmlns:rdf="http://www.w3.org/1999/02/22-rdf-syntax-ns#">
   <cc:Work>
    <dc:type rdf:resource="http://purl.org/dc/dcmitype/StillImage"/>
    <dc:date>2026-06-23T10:00:48.860874</dc:date>
    <dc:format>image/svg+xml</dc:format>
    <dc:creator>
     <cc:Agent>
      <dc:title>Matplotlib v3.11.0, https://matplotlib.org/</dc:title>
     </cc:Agent>
    </dc:creator>
   </cc:Work>
  </rdf:RDF>
 </metadata>
 <defs>
  <style type="text/css">*{stroke-linejoin: round; stroke-linecap: butt}</style>
 </defs>
 <g id="figure_1">
  <g id="patch_1">
   <path d="M 0 216 
L 662.4 216 
L 662.4 0 
L 0 0 
z
" style="fill: #ffffff"/>
  </g>
  <g id="axes_1">
   <g id="patch_2">
    <path d="M 0 216 
L 662.4 216 
L 662.4 0 
L 0 0 
z
" clip-path="url(#pe972b4ea0d)" style="fill: #ffffff; stroke: #ffffff; stroke-linejoin: miter"/>
   </g>
   <g id="patch_3">
    <path d="M 218.592 91.8 
C 228.253879 91.8 237.521334 90.548248 244.353314 88.320429 
C 251.185295 86.092609 255.024 83.070613 255.024 79.92 
C 255.024 76.769387 251.185295 73.747391 244.353314 71.519571 
C 237.521334 69.291752 228.253879 68.04 218.592 68.04 
C 208.930121 68.04 199.662666 69.291752 192.830686 71.519571 
C 185.998705 73.747391 182.16 76.769387 182.16 79.92 
C 182.16 83.070613 185.998705 86.092609 192.830686 88.320429 
C 199.662666 90.548248 208.930121 91.8 218.592 91.8 
z
" clip-path="url(#pe972b4ea0d)" style="fill: #4d4d4d; stroke: #4d4d4d; stroke-linejoin: miter"/>
   </g>
   <g id="patch_4">
    <path d="M 331.2 91.8 
C 340.861879 91.8 350.129334 90.548248 356.961314 88.320429 
C 363.793295 86.092609 367.632 83.070613 367.632 79.92 
C 367.632 76.769387 363.793295 73.747391 356.961314 71.519571 
C 350.129334 69.291752 340.861879 68.04 331.2 68.04 
C 321.538121 68.04 312.270666 69.291752 305.438686 71.519571 
C 298.606705 73.747391 294.768 76.769387 294.768 79.92 
C 294.768 83.070613 298.606705 86.092609 305.438686 88.320429 
C 312.270666 90.548248 321.538121 91.8 331.2 91.8 
z
" clip-path="url(#pe972b4ea0d)" style="fill: #377eb8; stroke: #377eb8; stroke-linejoin: miter"/>
   </g>
   <g id="patch_5">
    <path d="M 443.808 91.8 
C 453.469879 91.8 462.737334 90.548248 469.569314 88.320429 
C 476.401295 86.092609 480.24 83.070613 480.24 79.92 
C 480.24 76.769387 476.401295 73.747391 469.569314 71.519571 
C 462.737334 69.291752 453.469879 68.04 443.808 68.04 
C 434.146121 68.04 424.878666 69.291752 418.046686 71.519571 
C 411.214705 73.747391 407.376 76.769387 407.376 79.92 
C 407.376 83.070613 411.214705 86.092609 418.046686 88.320429 
C 424.878666 90.548248 434.146121 91.8 443.808 91.8 
z
" clip-path="url(#pe972b4ea0d)" style="fill: #e69f00; stroke: #e69f00; stroke-linejoin: miter"/>
   </g>
   <g id="patch_6">
    <path d="M 556.416 91.8 
C 566.077879 91.8 575.345334 90.548248 582.177314 88.320429 
C 589.009295 86.092609 592.848 83.070613 592.848 79.92 
C 592.848 76.769387 589.009295 73.747391 582.177314 71.519571 
C 575.345334 69.291752 566.077879 68.04 556.416 68.04 
C 546.754121 68.04 537.486666 69.291752 530.654686 71.519571 
C 523.822705 73.747391 519.984 76.769387 519.984 79.92 
C 519.984 83.070613 523.822705 86.092609 530.654686 88.320429 
C 537.486666 90.548248 546.754121 91.8 556.416 91.8 
z
" clip-path="url(#pe972b4ea0d)" style="fill: #d55e00; stroke: #d55e00; stroke-linejoin: miter"/>
   </g>
   <g id="text_1">
    <!-- MIMIC-IV v3.1 -->
    <g style="fill: #222222" transform="translate(26.496 47.52) scale(0.16 -0.16)">
     <defs>
      <path id="DejaVuSans-Bold-30" d="M 588 4666 
L 2119 4666 
L 3181 2169 
L 4250 4666 
L 5778 4666 
L 5778 0 
L 4641 0 
L 4641 3413 
L 3566 897 
L 2803 897 
L 1728 3413 
L 1728 0 
L 588 0 
L 588 4666 
z
" transform="scale(0.015625)"/>
      <path id="DejaVuSans-Bold-2c" d="M 588 4666 
L 1791 4666 
L 1791 0 
L 588 0 
L 588 4666 
z
" transform="scale(0.015625)"/>
      <path id="DejaVuSans-Bold-26" d="M 4288 256 
Q 3956 84 3597 -3 
Q 3238 -91 2847 -91 
Q 1681 -91 1000 561 
Q 319 1213 319 2328 
Q 319 3447 1000 4098 
Q 1681 4750 2847 4750 
Q 3238 4750 3597 4662 
Q 3956 4575 4288 4403 
L 4288 3438 
Q 3953 3666 3628 3772 
Q 3303 3878 2944 3878 
Q 2300 3878 1931 3465 
Q 1563 3053 1563 2328 
Q 1563 1606 1931 1193 
Q 2300 781 2944 781 
Q 3303 781 3628 887 
Q 3953 994 4288 1222 
L 4288 256 
z
" transform="scale(0.015625)"/>
      <path id="DejaVuSans-Bold-10" d="M 347 2297 
L 2309 2297 
L 2309 1388 
L 347 1388 
L 347 2297 
z
" transform="scale(0.015625)"/>
      <path id="DejaVuSans-Bold-39" d="M 31 4666 
L 1241 4666 
L 2478 1222 
L 3713 4666 
L 4922 4666 
L 3194 0 
L 1759 0 
L 31 4666 
z
" transform="scale(0.015625)"/>
      <path id="DejaVuSans-Bold-3" transform="scale(0.015625)"/>
      <path id="DejaVuSans-Bold-59" d="M 97 3500 
L 1216 3500 
L 2088 1081 
L 2956 3500 
L 4078 3500 
L 2700 0 
L 1472 0 
L 97 3500 
z
" transform="scale(0.015625)"/>
      <path id="DejaVuSans-Bold-16" d="M 2981 2516 
Q 3453 2394 3698 2092 
Q 3944 1791 3944 1325 
Q 3944 631 3412 270 
Q 2881 -91 1863 -91 
Q 1503 -91 1142 -33 
Q 781 25 428 141 
L 428 1069 
Q 766 900 1098 814 
Q 1431 728 1753 728 
Q 2231 728 2486 893 
Q 2741 1059 2741 1369 
Q 2741 1688 2480 1852 
Q 2219 2016 1709 2016 
L 1228 2016 
L 1228 2791 
L 1734 2791 
Q 2188 2791 2409 2933 
Q 2631 3075 2631 3366 
Q 2631 3634 2415 3781 
Q 2200 3928 1806 3928 
Q 1516 3928 1219 3862 
Q 922 3797 628 3669 
L 628 4550 
Q 984 4650 1334 4700 
Q 1684 4750 2022 4750 
Q 2931 4750 3382 4451 
Q 3834 4153 3834 3553 
Q 3834 3144 3618 2883 
Q 3403 2622 2981 2516 
z
" transform="scale(0.015625)"/>
      <path id="DejaVuSans-Bold-11" d="M 653 1209 
L 1778 1209 
L 1778 0 
L 653 0 
L 653 1209 
z
" transform="scale(0.015625)"/>
      <path id="DejaVuSans-Bold-14" d="M 750 831 
L 1813 831 
L 1813 3847 
L 722 3622 
L 722 4441 
L 1806 4666 
L 2950 4666 
L 2950 831 
L 4013 831 
L 4013 0 
L 750 0 
L 750 831 
z
" transform="scale(0.015625)"/>
     </defs>
     <use xlink:href="#DejaVuSans-Bold-30"/>
     <use xlink:href="#DejaVuSans-Bold-2c" transform="translate(99.515625 0)"/>
     <use xlink:href="#DejaVuSans-Bold-30" transform="translate(136.71875 0)"/>
     <use xlink:href="#DejaVuSans-Bold-2c" transform="translate(236.234375 0)"/>
     <use xlink:href="#DejaVuSans-Bold-26" transform="translate(273.4375 0)"/>
     <use xlink:href="#DejaVuSans-Bold-10" transform="translate(349.125 0)"/>
     <use xlink:href="#DejaVuSans-Bold-2c" transform="translate(390.625 0)"/>
     <use xlink:href="#DejaVuSans-Bold-39" transform="translate(427.828125 0)"/>
     <use xlink:href="#DejaVuSans-Bold-3" transform="translate(505.21875 0)"/>
     <use xlink:href="#DejaVuSans-Bold-59" transform="translate(540.03125 0)"/>
     <use xlink:href="#DejaVuSans-Bold-16" transform="translate(605.21875 0)"/>
     <use xlink:href="#DejaVuSans-Bold-11" transform="translate(674.796875 0)"/>
     <use xlink:href="#DejaVuSans-Bold-14" transform="translate(712.78125 0)"/>
    </g>
   </g>
   <g id="text_2">
    <!-- Adult ICU survivors -->
    <g style="fill: #333333" transform="translate(26.496 73.196992) scale(0.11 -0.11)">
     <defs>
      <path id="DejaVuSans-24" d="M 2188 4044 
L 1331 1722 
L 3047 1722 
L 2188 4044 
z
M 1831 4666 
L 2547 4666 
L 4325 0 
L 3669 0 
L 3244 1197 
L 1141 1197 
L 716 0 
L 50 0 
L 1831 4666 
z
" transform="scale(0.015625)"/>
      <path id="DejaVuSans-47" d="M 2906 2969 
L 2906 4863 
L 3481 4863 
L 3481 0 
L 2906 0 
L 2906 525 
Q 2725 213 2448 61 
Q 2172 -91 1784 -91 
Q 1150 -91 751 415 
Q 353 922 353 1747 
Q 353 2572 751 3078 
Q 1150 3584 1784 3584 
Q 2172 3584 2448 3432 
Q 2725 3281 2906 2969 
z
M 947 1747 
Q 947 1113 1208 752 
Q 1469 391 1925 391 
Q 2381 391 2643 752 
Q 2906 1113 2906 1747 
Q 2906 2381 2643 2742 
Q 2381 3103 1925 3103 
Q 1469 3103 1208 2742 
Q 947 2381 947 1747 
z
" transform="scale(0.015625)"/>
      <path id="DejaVuSans-58" d="M 544 1381 
L 544 3500 
L 1119 3500 
L 1119 1403 
Q 1119 906 1312 657 
Q 1506 409 1894 409 
Q 2359 409 2629 706 
Q 2900 1003 2900 1516 
L 2900 3500 
L 3475 3500 
L 3475 0 
L 2900 0 
L 2900 538 
Q 2691 219 2414 64 
Q 2138 -91 1772 -91 
Q 1169 -91 856 284 
Q 544 659 544 1381 
z
M 1991 3584 
L 1991 3584 
z
" transform="scale(0.015625)"/>
      <path id="DejaVuSans-4f" d="M 603 4863 
L 1178 4863 
L 1178 0 
L 603 0 
L 603 4863 
z
" transform="scale(0.015625)"/>
      <path id="DejaVuSans-57" d="M 1172 4494 
L 1172 3500 
L 2356 3500 
L 2356 3053 
L 1172 3053 
L 1172 1153 
Q 1172 725 1289 603 
Q 1406 481 1766 481 
L 2356 481 
L 2356 0 
L 1766 0 
Q 1100 0 847 248 
Q 594 497 594 1153 
L 594 3053 
L 172 3053 
L 172 3500 
L 594 3500 
L 594 4494 
L 1172 4494 
z
" transform="scale(0.015625)"/>
      <path id="DejaVuSans-3" transform="scale(0.015625)"/>
      <path id="DejaVuSans-2c" d="M 628 4666 
L 1259 4666 
L 1259 0 
L 628 0 
L 628 4666 
z
" transform="scale(0.015625)"/>
      <path id="DejaVuSans-26" d="M 4122 4306 
L 4122 3641 
Q 3803 3938 3442 4084 
Q 3081 4231 2675 4231 
Q 1875 4231 1450 3742 
Q 1025 3253 1025 2328 
Q 1025 1406 1450 917 
Q 1875 428 2675 428 
Q 3081 428 3442 575 
Q 3803 722 4122 1019 
L 4122 359 
Q 3791 134 3420 21 
Q 3050 -91 2638 -91 
Q 1578 -91 968 557 
Q 359 1206 359 2328 
Q 359 3453 968 4101 
Q 1578 4750 2638 4750 
Q 3056 4750 3426 4639 
Q 3797 4528 4122 4306 
z
" transform="scale(0.015625)"/>
      <path id="DejaVuSans-38" d="M 556 4666 
L 1191 4666 
L 1191 1831 
Q 1191 1081 1462 751 
Q 1734 422 2344 422 
Q 2950 422 3222 751 
Q 3494 1081 3494 1831 
L 3494 4666 
L 4128 4666 
L 4128 1753 
Q 4128 841 3676 375 
Q 3225 -91 2344 -91 
Q 1459 -91 1007 375 
Q 556 841 556 1753 
L 556 4666 
z
" transform="scale(0.015625)"/>
      <path id="DejaVuSans-56" d="M 2834 3397 
L 2834 2853 
Q 2591 2978 2328 3040 
Q 2066 3103 1784 3103 
Q 1356 3103 1142 2972 
Q 928 2841 928 2578 
Q 928 2378 1081 2264 
Q 1234 2150 1697 2047 
L 1894 2003 
Q 2506 1872 2764 1633 
Q 3022 1394 3022 966 
Q 3022 478 2636 193 
Q 2250 -91 1575 -91 
Q 1294 -91 989 -36 
Q 684 19 347 128 
L 347 722 
Q 666 556 975 473 
Q 1284 391 1588 391 
Q 1994 391 2212 530 
Q 2431 669 2431 922 
Q 2431 1156 2273 1281 
Q 2116 1406 1581 1522 
L 1381 1569 
Q 847 1681 609 1914 
Q 372 2147 372 2553 
Q 372 3047 722 3315 
Q 1072 3584 1716 3584 
Q 2034 3584 2315 3537 
Q 2597 3491 2834 3397 
z
" transform="scale(0.015625)"/>
      <path id="DejaVuSans-55" d="M 2631 2963 
Q 2534 3019 2420 3045 
Q 2306 3072 2169 3072 
Q 1681 3072 1420 2755 
Q 1159 2438 1159 1844 
L 1159 0 
L 581 0 
L 581 3500 
L 1159 3500 
L 1159 2956 
Q 1341 3275 1631 3429 
Q 1922 3584 2338 3584 
Q 2397 3584 2469 3576 
Q 2541 3569 2628 3553 
L 2631 2963 
z
" transform="scale(0.015625)"/>
      <path id="DejaVuSans-59" d="M 191 3500 
L 800 3500 
L 1894 563 
L 2988 3500 
L 3597 3500 
L 2284 0 
L 1503 0 
L 191 3500 
z
" transform="scale(0.015625)"/>
      <path id="DejaVuSans-4c" d="M 603 3500 
L 1178 3500 
L 1178 0 
L 603 0 
L 603 3500 
z
M 603 4863 
L 1178 4863 
L 1178 4134 
L 603 4134 
L 603 4863 
z
" transform="scale(0.015625)"/>
      <path id="DejaVuSans-52" d="M 1959 3097 
Q 1497 3097 1228 2736 
Q 959 2375 959 1747 
Q 959 1119 1226 758 
Q 1494 397 1959 397 
Q 2419 397 2687 759 
Q 2956 1122 2956 1747 
Q 2956 2369 2687 2733 
Q 2419 3097 1959 3097 
z
M 1959 3584 
Q 2709 3584 3137 3096 
Q 3566 2609 3566 1747 
Q 3566 888 3137 398 
Q 2709 -91 1959 -91 
Q 1206 -91 779 398 
Q 353 888 353 1747 
Q 353 2609 779 3096 
Q 1206 3584 1959 3584 
z
" transform="scale(0.015625)"/>
     </defs>
     <use xlink:href="#DejaVuSans-24"/>
     <use xlink:href="#DejaVuSans-47" transform="translate(66.65625 0)"/>
     <use xlink:href="#DejaVuSans-58" transform="translate(130.140625 0)"/>
     <use xlink:href="#DejaVuSans-4f" transform="translate(193.515625 0)"/>
     <use xlink:href="#DejaVuSans-57" transform="translate(221.296875 0)"/>
     <use xlink:href="#DejaVuSans-3" transform="translate(260.5 0)"/>
     <use xlink:href="#DejaVuSans-2c" transform="translate(292.28125 0)"/>
     <use xlink:href="#DejaVuSans-26" transform="translate(321.78125 0)"/>
     <use xlink:href="#DejaVuSans-38" transform="translate(391.609375 0)"/>
     <use xlink:href="#DejaVuSans-3" transform="translate(464.796875 0)"/>
     <use xlink:href="#DejaVuSans-56" transform="translate(496.578125 0)"/>
     <use xlink:href="#DejaVuSans-58" transform="translate(548.671875 0)"/>
     <use xlink:href="#DejaVuSans-55" transform="translate(612.046875 0)"/>
     <use xlink:href="#DejaVuSans-59" transform="translate(653.15625 0)"/>
     <use xlink:href="#DejaVuSans-4c" transform="translate(712.34375 0)"/>
     <use xlink:href="#DejaVuSans-59" transform="translate(740.125 0)"/>
     <use xlink:href="#DejaVuSans-52" transform="translate(799.3125 0)"/>
     <use xlink:href="#DejaVuSans-55" transform="translate(860.5 0)"/>
     <use xlink:href="#DejaVuSans-56" transform="translate(901.609375 0)"/>
    </g>
    <!-- n=29,458 classifiable -->
    <g style="fill: #333333" transform="translate(26.496 86.4) scale(0.11 -0.11)">
     <defs>
      <path id="DejaVuSans-51" d="M 3513 2113 
L 3513 0 
L 2938 0 
L 2938 2094 
Q 2938 2591 2744 2837 
Q 2550 3084 2163 3084 
Q 1697 3084 1428 2787 
Q 1159 2491 1159 1978 
L 1159 0 
L 581 0 
L 581 3500 
L 1159 3500 
L 1159 2956 
Q 1366 3272 1645 3428 
Q 1925 3584 2291 3584 
Q 2894 3584 3203 3211 
Q 3513 2838 3513 2113 
z
" transform="scale(0.015625)"/>
      <path id="DejaVuSans-20" d="M 678 2906 
L 4684 2906 
L 4684 2381 
L 678 2381 
L 678 2906 
z
M 678 1631 
L 4684 1631 
L 4684 1100 
L 678 1100 
L 678 1631 
z
" transform="scale(0.015625)"/>
      <path id="DejaVuSans-15" d="M 1228 531 
L 3431 531 
L 3431 0 
L 469 0 
L 469 531 
Q 828 903 1448 1529 
Q 2069 2156 2228 2338 
Q 2531 2678 2651 2914 
Q 2772 3150 2772 3378 
Q 2772 3750 2511 3984 
Q 2250 4219 1831 4219 
Q 1534 4219 1204 4116 
Q 875 4013 500 3803 
L 500 4441 
Q 881 4594 1212 4672 
Q 1544 4750 1819 4750 
Q 2544 4750 2975 4387 
Q 3406 4025 3406 3419 
Q 3406 3131 3298 2873 
Q 3191 2616 2906 2266 
Q 2828 2175 2409 1742 
Q 1991 1309 1228 531 
z
" transform="scale(0.015625)"/>
      <path id="DejaVuSans-1c" d="M 703 97 
L 703 672 
Q 941 559 1184 500 
Q 1428 441 1663 441 
Q 2288 441 2617 861 
Q 2947 1281 2994 2138 
Q 2813 1869 2534 1725 
Q 2256 1581 1919 1581 
Q 1219 1581 811 2004 
Q 403 2428 403 3163 
Q 403 3881 828 4315 
Q 1253 4750 1959 4750 
Q 2769 4750 3195 4129 
Q 3622 3509 3622 2328 
Q 3622 1225 3098 567 
Q 2575 -91 1691 -91 
Q 1453 -91 1209 -44 
Q 966 3 703 97 
z
M 1959 2075 
Q 2384 2075 2632 2365 
Q 2881 2656 2881 3163 
Q 2881 3666 2632 3958 
Q 2384 4250 1959 4250 
Q 1534 4250 1286 3958 
Q 1038 3666 1038 3163 
Q 1038 2656 1286 2365 
Q 1534 2075 1959 2075 
z
" transform="scale(0.015625)"/>
      <path id="DejaVuSans-f" d="M 750 794 
L 1409 794 
L 1409 256 
L 897 -744 
L 494 -744 
L 750 256 
L 750 794 
z
" transform="scale(0.015625)"/>
      <path id="DejaVuSans-17" d="M 2419 4116 
L 825 1625 
L 2419 1625 
L 2419 4116 
z
M 2253 4666 
L 3047 4666 
L 3047 1625 
L 3713 1625 
L 3713 1100 
L 3047 1100 
L 3047 0 
L 2419 0 
L 2419 1100 
L 313 1100 
L 313 1709 
L 2253 4666 
z
" transform="scale(0.015625)"/>
      <path id="DejaVuSans-18" d="M 691 4666 
L 3169 4666 
L 3169 4134 
L 1269 4134 
L 1269 2991 
Q 1406 3038 1543 3061 
Q 1681 3084 1819 3084 
Q 2600 3084 3056 2656 
Q 3513 2228 3513 1497 
Q 3513 744 3044 326 
Q 2575 -91 1722 -91 
Q 1428 -91 1123 -41 
Q 819 9 494 109 
L 494 744 
Q 775 591 1075 516 
Q 1375 441 1709 441 
Q 2250 441 2565 725 
Q 2881 1009 2881 1497 
Q 2881 1984 2565 2268 
Q 2250 2553 1709 2553 
Q 1456 2553 1204 2497 
Q 953 2441 691 2322 
L 691 4666 
z
" transform="scale(0.015625)"/>
      <path id="DejaVuSans-1b" d="M 2034 2216 
Q 1584 2216 1326 1975 
Q 1069 1734 1069 1313 
Q 1069 891 1326 650 
Q 1584 409 2034 409 
Q 2484 409 2743 651 
Q 3003 894 3003 1313 
Q 3003 1734 2745 1975 
Q 2488 2216 2034 2216 
z
M 1403 2484 
Q 997 2584 770 2862 
Q 544 3141 544 3541 
Q 544 4100 942 4425 
Q 1341 4750 2034 4750 
Q 2731 4750 3128 4425 
Q 3525 4100 3525 3541 
Q 3525 3141 3298 2862 
Q 3072 2584 2669 2484 
Q 3125 2378 3379 2068 
Q 3634 1759 3634 1313 
Q 3634 634 3220 271 
Q 2806 -91 2034 -91 
Q 1263 -91 848 271 
Q 434 634 434 1313 
Q 434 1759 690 2068 
Q 947 2378 1403 2484 
z
M 1172 3481 
Q 1172 3119 1398 2916 
Q 1625 2713 2034 2713 
Q 2441 2713 2670 2916 
Q 2900 3119 2900 3481 
Q 2900 3844 2670 4047 
Q 2441 4250 2034 4250 
Q 1625 4250 1398 4047 
Q 1172 3844 1172 3481 
z
" transform="scale(0.015625)"/>
      <path id="DejaVuSans-46" d="M 3122 3366 
L 3122 2828 
Q 2878 2963 2633 3030 
Q 2388 3097 2138 3097 
Q 1578 3097 1268 2742 
Q 959 2388 959 1747 
Q 959 1106 1268 751 
Q 1578 397 2138 397 
Q 2388 397 2633 464 
Q 2878 531 3122 666 
L 3122 134 
Q 2881 22 2623 -34 
Q 2366 -91 2075 -91 
Q 1284 -91 818 406 
Q 353 903 353 1747 
Q 353 2603 823 3093 
Q 1294 3584 2113 3584 
Q 2378 3584 2631 3529 
Q 2884 3475 3122 3366 
z
" transform="scale(0.015625)"/>
      <path id="DejaVuSans-44" d="M 2194 1759 
Q 1497 1759 1228 1600 
Q 959 1441 959 1056 
Q 959 750 1161 570 
Q 1363 391 1709 391 
Q 2188 391 2477 730 
Q 2766 1069 2766 1631 
L 2766 1759 
L 2194 1759 
z
M 3341 1997 
L 3341 0 
L 2766 0 
L 2766 531 
Q 2569 213 2275 61 
Q 1981 -91 1556 -91 
Q 1019 -91 701 211 
Q 384 513 384 1019 
Q 384 1609 779 1909 
Q 1175 2209 1959 2209 
L 2766 2209 
L 2766 2266 
Q 2766 2663 2505 2880 
Q 2244 3097 1772 3097 
Q 1472 3097 1187 3025 
Q 903 2953 641 2809 
L 641 3341 
Q 956 3463 1253 3523 
Q 1550 3584 1831 3584 
Q 2591 3584 2966 3190 
Q 3341 2797 3341 1997 
z
" transform="scale(0.015625)"/>
      <path id="DejaVuSans-13af" d="M 3431 3500 
L 3431 0 
L 2853 0 
L 2853 3053 
L 1275 3053 
L 1275 0 
L 697 0 
L 697 3053 
L 147 3053 
L 147 3500 
L 697 3500 
L 697 3744 
Q 697 4316 967 4589 
Q 1238 4863 1797 4863 
L 2375 4863 
L 2375 4384 
L 1825 4384 
Q 1516 4384 1395 4259 
Q 1275 4134 1275 3809 
L 1275 3500 
L 3431 3500 
z
M 2853 4856 
L 3431 4856 
L 3431 4128 
L 2853 4128 
L 2853 4856 
z
" transform="scale(0.015625)"/>
      <path id="DejaVuSans-45" d="M 3116 1747 
Q 3116 2381 2855 2742 
Q 2594 3103 2138 3103 
Q 1681 3103 1420 2742 
Q 1159 2381 1159 1747 
Q 1159 1113 1420 752 
Q 1681 391 2138 391 
Q 2594 391 2855 752 
Q 3116 1113 3116 1747 
z
M 1159 2969 
Q 1341 3281 1617 3432 
Q 1894 3584 2278 3584 
Q 2916 3584 3314 3078 
Q 3713 2572 3713 1747 
Q 3713 922 3314 415 
Q 2916 -91 2278 -91 
Q 1894 -91 1617 61 
Q 1341 213 1159 525 
L 1159 0 
L 581 0 
L 581 4863 
L 1159 4863 
L 1159 2969 
z
" transform="scale(0.015625)"/>
      <path id="DejaVuSans-48" d="M 3597 1894 
L 3597 1613 
L 953 1613 
Q 991 1019 1311 708 
Q 1631 397 2203 397 
Q 2534 397 2845 478 
Q 3156 559 3463 722 
L 3463 178 
Q 3153 47 2828 -22 
Q 2503 -91 2169 -91 
Q 1331 -91 842 396 
Q 353 884 353 1716 
Q 353 2575 817 3079 
Q 1281 3584 2069 3584 
Q 2775 3584 3186 3129 
Q 3597 2675 3597 1894 
z
M 3022 2063 
Q 3016 2534 2758 2815 
Q 2500 3097 2075 3097 
Q 1594 3097 1305 2825 
Q 1016 2553 972 2059 
L 3022 2063 
z
" transform="scale(0.015625)"/>
     </defs>
     <use xlink:href="#DejaVuSans-51"/>
     <use xlink:href="#DejaVuSans-20" transform="translate(63.375 0)"/>
     <use xlink:href="#DejaVuSans-15" transform="translate(147.171875 0)"/>
     <use xlink:href="#DejaVuSans-1c" transform="translate(210.796875 0)"/>
     <use xlink:href="#DejaVuSans-f" transform="translate(274.421875 0)"/>
     <use xlink:href="#DejaVuSans-17" transform="translate(306.203125 0)"/>
     <use xlink:href="#DejaVuSans-18" transform="translate(369.828125 0)"/>
     <use xlink:href="#DejaVuSans-1b" transform="translate(433.453125 0)"/>
     <use xlink:href="#DejaVuSans-3" transform="translate(497.078125 0)"/>
     <use xlink:href="#DejaVuSans-46" transform="translate(528.859375 0)"/>
     <use xlink:href="#DejaVuSans-4f" transform="translate(583.84375 0)"/>
     <use xlink:href="#DejaVuSans-44" transform="translate(611.625 0)"/>
     <use xlink:href="#DejaVuSans-56" transform="translate(672.90625 0)"/>
     <use xlink:href="#DejaVuSans-56" transform="translate(725 0)"/>
     <use xlink:href="#DejaVuSans-4c" transform="translate(777.09375 0)"/>
     <use xlink:href="#DejaVuSans-13af" transform="translate(804.875 0)"/>
     <use xlink:href="#DejaVuSans-44" transform="translate(867.859375 0)"/>
     <use xlink:href="#DejaVuSans-45" transform="translate(929.140625 0)"/>
     <use xlink:href="#DejaVuSans-4f" transform="translate(992.625 0)"/>
     <use xlink:href="#DejaVuSans-48" transform="translate(1020.40625 0)"/>
    </g>
   </g>
   <g id="text_3">
    <!-- 1_ -->
    <g style="fill: #ffffff" transform="translate(212.613094 82.517656) scale(0.1 -0.1)">
     <defs>
      <path id="DejaVuSans-Bold-42" d="M 3200 -916 
L 3200 -1509 
L 0 -1509 
L 0 -916 
L 3200 -916 
z
" transform="scale(0.015625)"/>
     </defs>
     <use xlink:href="#DejaVuSans-Bold-14"/>
     <use xlink:href="#DejaVuSans-Bold-42" transform="translate(69.578125 0)"/>
    </g>
   </g>
   <g id="text_4">
    <!-- 15.3% -->
    <g style="fill: #222222" transform="translate(194.307469 115.956719) scale(0.14 -0.14)">
     <defs>
      <path id="DejaVuSans-Bold-18" d="M 678 4666 
L 3669 4666 
L 3669 3781 
L 1638 3781 
L 1638 3059 
Q 1775 3097 1914 3117 
Q 2053 3138 2203 3138 
Q 3056 3138 3531 2711 
Q 4006 2284 4006 1522 
Q 4006 766 3489 337 
Q 2972 -91 2053 -91 
Q 1656 -91 1267 -14 
Q 878 63 494 219 
L 494 1166 
Q 875 947 1217 837 
Q 1559 728 1863 728 
Q 2300 728 2551 942 
Q 2803 1156 2803 1522 
Q 2803 1891 2551 2103 
Q 2300 2316 1863 2316 
Q 1603 2316 1309 2248 
Q 1016 2181 678 2041 
L 678 4666 
z
" transform="scale(0.015625)"/>
      <path id="DejaVuSans-Bold-8" d="M 4959 1925 
Q 4738 1925 4616 1733 
Q 4494 1541 4494 1184 
Q 4494 825 4614 633 
Q 4734 441 4959 441 
Q 5184 441 5303 633 
Q 5422 825 5422 1184 
Q 5422 1541 5301 1733 
Q 5181 1925 4959 1925 
z
M 4959 2450 
Q 5541 2450 5875 2112 
Q 6209 1775 6209 1184 
Q 6209 594 5875 251 
Q 5541 -91 4959 -91 
Q 4378 -91 4042 251 
Q 3706 594 3706 1184 
Q 3706 1772 4042 2111 
Q 4378 2450 4959 2450 
z
M 2094 -91 
L 1403 -91 
L 4319 4750 
L 5013 4750 
L 2094 -91 
z
M 1453 4750 
Q 2034 4750 2367 4411 
Q 2700 4072 2700 3481 
Q 2700 2891 2367 2550 
Q 2034 2209 1453 2209 
Q 872 2209 539 2550 
Q 206 2891 206 3481 
Q 206 4072 539 4411 
Q 872 4750 1453 4750 
z
M 1453 4225 
Q 1228 4225 1106 4031 
Q 984 3838 984 3481 
Q 984 3122 1106 2926 
Q 1228 2731 1453 2731 
Q 1678 2731 1798 2926 
Q 1919 3122 1919 3481 
Q 1919 3838 1797 4031 
Q 1675 4225 1453 4225 
z
" transform="scale(0.015625)"/>
     </defs>
     <use xlink:href="#DejaVuSans-Bold-14"/>
     <use xlink:href="#DejaVuSans-Bold-18" transform="translate(69.578125 0)"/>
     <use xlink:href="#DejaVuSans-Bold-11" transform="translate(139.15625 0)"/>
     <use xlink:href="#DejaVuSans-Bold-16" transform="translate(177.140625 0)"/>
     <use xlink:href="#DejaVuSans-Bold-8" transform="translate(246.71875 0)"/>
    </g>
   </g>
   <g id="text_5">
    <!-- 365-day -->
    <g style="fill: #444444" transform="translate(202.15575 137.677344) scale(0.08 -0.08)">
     <defs>
      <path id="DejaVuSans-16" d="M 2597 2516 
Q 3050 2419 3304 2112 
Q 3559 1806 3559 1356 
Q 3559 666 3084 287 
Q 2609 -91 1734 -91 
Q 1441 -91 1130 -33 
Q 819 25 488 141 
L 488 750 
Q 750 597 1062 519 
Q 1375 441 1716 441 
Q 2309 441 2620 675 
Q 2931 909 2931 1356 
Q 2931 1769 2642 2001 
Q 2353 2234 1838 2234 
L 1294 2234 
L 1294 2753 
L 1863 2753 
Q 2328 2753 2575 2939 
Q 2822 3125 2822 3475 
Q 2822 3834 2567 4026 
Q 2313 4219 1838 4219 
Q 1578 4219 1281 4162 
Q 984 4106 628 3988 
L 628 4550 
Q 988 4650 1302 4700 
Q 1616 4750 1894 4750 
Q 2613 4750 3031 4423 
Q 3450 4097 3450 3541 
Q 3450 3153 3228 2886 
Q 3006 2619 2597 2516 
z
" transform="scale(0.015625)"/>
      <path id="DejaVuSans-19" d="M 2113 2584 
Q 1688 2584 1439 2293 
Q 1191 2003 1191 1497 
Q 1191 994 1439 701 
Q 1688 409 2113 409 
Q 2538 409 2786 701 
Q 3034 994 3034 1497 
Q 3034 2003 2786 2293 
Q 2538 2584 2113 2584 
z
M 3366 4563 
L 3366 3988 
Q 3128 4100 2886 4159 
Q 2644 4219 2406 4219 
Q 1781 4219 1451 3797 
Q 1122 3375 1075 2522 
Q 1259 2794 1537 2939 
Q 1816 3084 2150 3084 
Q 2853 3084 3261 2657 
Q 3669 2231 3669 1497 
Q 3669 778 3244 343 
Q 2819 -91 2113 -91 
Q 1303 -91 875 529 
Q 447 1150 447 2328 
Q 447 3434 972 4092 
Q 1497 4750 2381 4750 
Q 2619 4750 2861 4703 
Q 3103 4656 3366 4563 
z
" transform="scale(0.015625)"/>
      <path id="DejaVuSans-10" d="M 313 2009 
L 1997 2009 
L 1997 1497 
L 313 1497 
L 313 2009 
z
" transform="scale(0.015625)"/>
      <path id="DejaVuSans-5c" d="M 2059 -325 
Q 1816 -950 1584 -1140 
Q 1353 -1331 966 -1331 
L 506 -1331 
L 506 -850 
L 844 -850 
Q 1081 -850 1212 -737 
Q 1344 -625 1503 -206 
L 1606 56 
L 191 3500 
L 800 3500 
L 1894 763 
L 2988 3500 
L 3597 3500 
L 2059 -325 
z
" transform="scale(0.015625)"/>
     </defs>
     <use xlink:href="#DejaVuSans-16"/>
     <use xlink:href="#DejaVuSans-19" transform="translate(63.625 0)"/>
     <use xlink:href="#DejaVuSans-18" transform="translate(127.25 0)"/>
     <use xlink:href="#DejaVuSans-10" transform="translate(190.875 0)"/>
     <use xlink:href="#DejaVuSans-47" transform="translate(226.953125 0)"/>
     <use xlink:href="#DejaVuSans-44" transform="translate(290.4375 0)"/>
     <use xlink:href="#DejaVuSans-5c" transform="translate(351.71875 0)"/>
    </g>
    <!-- mortality -->
    <g style="fill: #444444" transform="translate(200.426375 147.279531) scale(0.08 -0.08)">
     <defs>
      <path id="DejaVuSans-50" d="M 3328 2828 
Q 3544 3216 3844 3400 
Q 4144 3584 4550 3584 
Q 5097 3584 5394 3201 
Q 5691 2819 5691 2113 
L 5691 0 
L 5113 0 
L 5113 2094 
Q 5113 2597 4934 2840 
Q 4756 3084 4391 3084 
Q 3944 3084 3684 2787 
Q 3425 2491 3425 1978 
L 3425 0 
L 2847 0 
L 2847 2094 
Q 2847 2600 2669 2842 
Q 2491 3084 2119 3084 
Q 1678 3084 1418 2786 
Q 1159 2488 1159 1978 
L 1159 0 
L 581 0 
L 581 3500 
L 1159 3500 
L 1159 2956 
Q 1356 3278 1631 3431 
Q 1906 3584 2284 3584 
Q 2666 3584 2933 3390 
Q 3200 3197 3328 2828 
z
" transform="scale(0.015625)"/>
     </defs>
     <use xlink:href="#DejaVuSans-50"/>
     <use xlink:href="#DejaVuSans-52" transform="translate(97.40625 0)"/>
     <use xlink:href="#DejaVuSans-55" transform="translate(158.59375 0)"/>
     <use xlink:href="#DejaVuSans-57" transform="translate(199.703125 0)"/>
     <use xlink:href="#DejaVuSans-44" transform="translate(238.90625 0)"/>
     <use xlink:href="#DejaVuSans-4f" transform="translate(300.1875 0)"/>
     <use xlink:href="#DejaVuSans-4c" transform="translate(327.96875 0)"/>
     <use xlink:href="#DejaVuSans-57" transform="translate(355.75 0)"/>
     <use xlink:href="#DejaVuSans-5c" transform="translate(394.953125 0)"/>
    </g>
   </g>
   <g id="text_6">
    <!-- 2_ -->
    <g style="fill: #ffffff" transform="translate(325.221094 82.517656) scale(0.1 -0.1)">
     <defs>
      <path id="DejaVuSans-Bold-15" d="M 1844 884 
L 3897 884 
L 3897 0 
L 506 0 
L 506 884 
L 2209 2388 
Q 2438 2594 2547 2791 
Q 2656 2988 2656 3200 
Q 2656 3528 2436 3728 
Q 2216 3928 1850 3928 
Q 1569 3928 1234 3808 
Q 900 3688 519 3450 
L 519 4475 
Q 925 4609 1322 4679 
Q 1719 4750 2100 4750 
Q 2938 4750 3402 4381 
Q 3866 4013 3866 3353 
Q 3866 2972 3669 2642 
Q 3472 2313 2841 1759 
L 1844 884 
z
" transform="scale(0.015625)"/>
     </defs>
     <use xlink:href="#DejaVuSans-Bold-15"/>
     <use xlink:href="#DejaVuSans-Bold-42" transform="translate(69.578125 0)"/>
    </g>
   </g>
   <g id="text_7">
    <!-- 16.7% -->
    <g style="fill: #222222" transform="translate(306.915469 115.956719) scale(0.14 -0.14)">
     <defs>
      <path id="DejaVuSans-Bold-19" d="M 2316 2303 
Q 2000 2303 1842 2098 
Q 1684 1894 1684 1484 
Q 1684 1075 1842 870 
Q 2000 666 2316 666 
Q 2634 666 2792 870 
Q 2950 1075 2950 1484 
Q 2950 1894 2792 2098 
Q 2634 2303 2316 2303 
z
M 3803 4544 
L 3803 3681 
Q 3506 3822 3243 3889 
Q 2981 3956 2731 3956 
Q 2194 3956 1894 3657 
Q 1594 3359 1544 2772 
Q 1750 2925 1990 3001 
Q 2231 3078 2516 3078 
Q 3231 3078 3670 2659 
Q 4109 2241 4109 1563 
Q 4109 813 3618 361 
Q 3128 -91 2303 -91 
Q 1394 -91 895 523 
Q 397 1138 397 2266 
Q 397 3422 980 4083 
Q 1563 4744 2578 4744 
Q 2900 4744 3203 4694 
Q 3506 4644 3803 4544 
z
" transform="scale(0.015625)"/>
      <path id="DejaVuSans-Bold-1a" d="M 428 4666 
L 3944 4666 
L 3944 3988 
L 2125 0 
L 953 0 
L 2675 3781 
L 428 3781 
L 428 4666 
z
" transform="scale(0.015625)"/>
     </defs>
     <use xlink:href="#DejaVuSans-Bold-14"/>
     <use xlink:href="#DejaVuSans-Bold-19" transform="translate(69.578125 0)"/>
     <use xlink:href="#DejaVuSans-Bold-11" transform="translate(139.15625 0)"/>
     <use xlink:href="#DejaVuSans-Bold-1a" transform="translate(177.140625 0)"/>
     <use xlink:href="#DejaVuSans-Bold-8" transform="translate(246.71875 0)"/>
    </g>
   </g>
   <g id="text_8">
    <!-- 365-day -->
    <g style="fill: #444444" transform="translate(314.76375 137.677344) scale(0.08 -0.08)">
     <use xlink:href="#DejaVuSans-16"/>
     <use xlink:href="#DejaVuSans-19" transform="translate(63.625 0)"/>
     <use xlink:href="#DejaVuSans-18" transform="translate(127.25 0)"/>
     <use xlink:href="#DejaVuSans-10" transform="translate(190.875 0)"/>
     <use xlink:href="#DejaVuSans-47" transform="translate(226.953125 0)"/>
     <use xlink:href="#DejaVuSans-44" transform="translate(290.4375 0)"/>
     <use xlink:href="#DejaVuSans-5c" transform="translate(351.71875 0)"/>
    </g>
    <!-- mortality -->
    <g style="fill: #444444" transform="translate(313.034375 147.279531) scale(0.08 -0.08)">
     <use xlink:href="#DejaVuSans-50"/>
     <use xlink:href="#DejaVuSans-52" transform="translate(97.40625 0)"/>
     <use xlink:href="#DejaVuSans-55" transform="translate(158.59375 0)"/>
     <use xlink:href="#DejaVuSans-57" transform="translate(199.703125 0)"/>
     <use xlink:href="#DejaVuSans-44" transform="translate(238.90625 0)"/>
     <use xlink:href="#DejaVuSans-4f" transform="translate(300.1875 0)"/>
     <use xlink:href="#DejaVuSans-4c" transform="translate(327.96875 0)"/>
     <use xlink:href="#DejaVuSans-57" transform="translate(355.75 0)"/>
     <use xlink:href="#DejaVuSans-5c" transform="translate(394.953125 0)"/>
    </g>
   </g>
   <g id="text_9">
    <!-- 3_ -->
    <g style="fill: #ffffff" transform="translate(437.829094 82.517656) scale(0.1 -0.1)">
     <use xlink:href="#DejaVuSans-Bold-16"/>
     <use xlink:href="#DejaVuSans-Bold-42" transform="translate(69.578125 0)"/>
    </g>
   </g>
   <g id="text_10">
    <!-- 20.2% -->
    <g style="fill: #222222" transform="translate(419.523469 115.956719) scale(0.14 -0.14)">
     <defs>
      <path id="DejaVuSans-Bold-13" d="M 2944 2338 
Q 2944 3213 2780 3570 
Q 2616 3928 2228 3928 
Q 1841 3928 1675 3570 
Q 1509 3213 1509 2338 
Q 1509 1453 1675 1090 
Q 1841 728 2228 728 
Q 2613 728 2778 1090 
Q 2944 1453 2944 2338 
z
M 4147 2328 
Q 4147 1169 3647 539 
Q 3147 -91 2228 -91 
Q 1306 -91 806 539 
Q 306 1169 306 2328 
Q 306 3491 806 4120 
Q 1306 4750 2228 4750 
Q 3147 4750 3647 4120 
Q 4147 3491 4147 2328 
z
" transform="scale(0.015625)"/>
     </defs>
     <use xlink:href="#DejaVuSans-Bold-15"/>
     <use xlink:href="#DejaVuSans-Bold-13" transform="translate(69.578125 0)"/>
     <use xlink:href="#DejaVuSans-Bold-11" transform="translate(139.15625 0)"/>
     <use xlink:href="#DejaVuSans-Bold-15" transform="translate(177.140625 0)"/>
     <use xlink:href="#DejaVuSans-Bold-8" transform="translate(246.71875 0)"/>
    </g>
   </g>
   <g id="text_11">
    <!-- 365-day -->
    <g style="fill: #444444" transform="translate(427.37175 137.677344) scale(0.08 -0.08)">
     <use xlink:href="#DejaVuSans-16"/>
     <use xlink:href="#DejaVuSans-19" transform="translate(63.625 0)"/>
     <use xlink:href="#DejaVuSans-18" transform="translate(127.25 0)"/>
     <use xlink:href="#DejaVuSans-10" transform="translate(190.875 0)"/>
     <use xlink:href="#DejaVuSans-47" transform="translate(226.953125 0)"/>
     <use xlink:href="#DejaVuSans-44" transform="translate(290.4375 0)"/>
     <use xlink:href="#DejaVuSans-5c" transform="translate(351.71875 0)"/>
    </g>
    <!-- mortality -->
    <g style="fill: #444444" transform="translate(425.642375 147.279531) scale(0.08 -0.08)">
     <use xlink:href="#DejaVuSans-50"/>
     <use xlink:href="#DejaVuSans-52" transform="translate(97.40625 0)"/>
     <use xlink:href="#DejaVuSans-55" transform="translate(158.59375 0)"/>
     <use xlink:href="#DejaVuSans-57" transform="translate(199.703125 0)"/>
     <use xlink:href="#DejaVuSans-44" transform="translate(238.90625 0)"/>
     <use xlink:href="#DejaVuSans-4f" transform="translate(300.1875 0)"/>
     <use xlink:href="#DejaVuSans-4c" transform="translate(327.96875 0)"/>
     <use xlink:href="#DejaVuSans-57" transform="translate(355.75 0)"/>
     <use xlink:href="#DejaVuSans-5c" transform="translate(394.953125 0)"/>
    </g>
   </g>
   <g id="text_12">
    <!-- 4_ -->
    <g style="fill: #ffffff" transform="translate(550.437094 82.517656) scale(0.1 -0.1)">
     <defs>
      <path id="DejaVuSans-Bold-17" d="M 2356 3675 
L 1038 1722 
L 2356 1722 
L 2356 3675 
z
M 2156 4666 
L 3494 4666 
L 3494 1722 
L 4159 1722 
L 4159 850 
L 3494 850 
L 3494 0 
L 2356 0 
L 2356 850 
L 288 850 
L 288 1881 
L 2156 4666 
z
" transform="scale(0.015625)"/>
     </defs>
     <use xlink:href="#DejaVuSans-Bold-17"/>
     <use xlink:href="#DejaVuSans-Bold-42" transform="translate(69.578125 0)"/>
    </g>
   </g>
   <g id="text_13">
    <!-- 20.2% -->
    <g style="fill: #222222" transform="translate(532.131469 115.956719) scale(0.14 -0.14)">
     <use xlink:href="#DejaVuSans-Bold-15"/>
     <use xlink:href="#DejaVuSans-Bold-13" transform="translate(69.578125 0)"/>
     <use xlink:href="#DejaVuSans-Bold-11" transform="translate(139.15625 0)"/>
     <use xlink:href="#DejaVuSans-Bold-15" transform="translate(177.140625 0)"/>
     <use xlink:href="#DejaVuSans-Bold-8" transform="translate(246.71875 0)"/>
    </g>
   </g>
   <g id="text_14">
    <!-- 365-day -->
    <g style="fill: #444444" transform="translate(539.97975 137.677344) scale(0.08 -0.08)">
     <use xlink:href="#DejaVuSans-16"/>
     <use xlink:href="#DejaVuSans-19" transform="translate(63.625 0)"/>
     <use xlink:href="#DejaVuSans-18" transform="translate(127.25 0)"/>
     <use xlink:href="#DejaVuSans-10" transform="translate(190.875 0)"/>
     <use xlink:href="#DejaVuSans-47" transform="translate(226.953125 0)"/>
     <use xlink:href="#DejaVuSans-44" transform="translate(290.4375 0)"/>
     <use xlink:href="#DejaVuSans-5c" transform="translate(351.71875 0)"/>
    </g>
    <!-- mortality -->
    <g style="fill: #444444" transform="translate(538.250375 147.279531) scale(0.08 -0.08)">
     <use xlink:href="#DejaVuSans-50"/>
     <use xlink:href="#DejaVuSans-52" transform="translate(97.40625 0)"/>
     <use xlink:href="#DejaVuSans-55" transform="translate(158.59375 0)"/>
     <use xlink:href="#DejaVuSans-57" transform="translate(199.703125 0)"/>
     <use xlink:href="#DejaVuSans-44" transform="translate(238.90625 0)"/>
     <use xlink:href="#DejaVuSans-4f" transform="translate(300.1875 0)"/>
     <use xlink:href="#DejaVuSans-4c" transform="translate(327.96875 0)"/>
     <use xlink:href="#DejaVuSans-57" transform="translate(355.75 0)"/>
     <use xlink:href="#DejaVuSans-5c" transform="translate(394.953125 0)"/>
    </g>
   </g>
   <g id="patch_7">
    <path d="M 121.23327 79.92 
Q 152.350865 79.92 181.455999 79.92 
" style="fill: none; stroke: #555555; stroke-width: 1.8; stroke-linecap: round"/>
    <path d="M 177.455999 77.92 
L 181.455999 79.92 
L 177.455999 81.92 
" style="fill: none; stroke: #555555; stroke-width: 1.8; stroke-linecap: round"/>
   </g>
   <g id="text_15">
    <!-- Psychiatric comorbidity and early ICU delirium marked higher mortality/readmission risk; no robust positive interaction. -->
    <g style="fill: #222222" transform="translate(31.85625 185.76) scale(0.1 -0.1)">
     <defs>
      <path id="DejaVuSans-33" d="M 1259 4147 
L 1259 2394 
L 2053 2394 
Q 2494 2394 2734 2622 
Q 2975 2850 2975 3272 
Q 2975 3691 2734 3919 
Q 2494 4147 2053 4147 
L 1259 4147 
z
M 628 4666 
L 2053 4666 
Q 2838 4666 3239 4311 
Q 3641 3956 3641 3272 
Q 3641 2581 3239 2228 
Q 2838 1875 2053 1875 
L 1259 1875 
L 1259 0 
L 628 0 
L 628 4666 
z
" transform="scale(0.015625)"/>
      <path id="DejaVuSans-4b" d="M 3513 2113 
L 3513 0 
L 2938 0 
L 2938 2094 
Q 2938 2591 2744 2837 
Q 2550 3084 2163 3084 
Q 1697 3084 1428 2787 
Q 1159 2491 1159 1978 
L 1159 0 
L 581 0 
L 581 4863 
L 1159 4863 
L 1159 2956 
Q 1366 3272 1645 3428 
Q 1925 3584 2291 3584 
Q 2894 3584 3203 3211 
Q 3513 2838 3513 2113 
z
" transform="scale(0.015625)"/>
      <path id="DejaVuSans-4e" d="M 581 4863 
L 1159 4863 
L 1159 1991 
L 2875 3500 
L 3609 3500 
L 1753 1863 
L 3688 0 
L 2938 0 
L 1159 1709 
L 1159 0 
L 581 0 
L 581 4863 
z
" transform="scale(0.015625)"/>
      <path id="DejaVuSans-4a" d="M 2906 1791 
Q 2906 2416 2648 2759 
Q 2391 3103 1925 3103 
Q 1463 3103 1205 2759 
Q 947 2416 947 1791 
Q 947 1169 1205 825 
Q 1463 481 1925 481 
Q 2391 481 2648 825 
Q 2906 1169 2906 1791 
z
M 3481 434 
Q 3481 -459 3084 -895 
Q 2688 -1331 1869 -1331 
Q 1566 -1331 1297 -1286 
Q 1028 -1241 775 -1147 
L 775 -588 
Q 1028 -725 1275 -790 
Q 1522 -856 1778 -856 
Q 2344 -856 2625 -561 
Q 2906 -266 2906 331 
L 2906 616 
Q 2728 306 2450 153 
Q 2172 0 1784 0 
Q 1141 0 747 490 
Q 353 981 353 1791 
Q 353 2603 747 3093 
Q 1141 3584 1784 3584 
Q 2172 3584 2450 3431 
Q 2728 3278 2906 2969 
L 2906 3500 
L 3481 3500 
L 3481 434 
z
" transform="scale(0.015625)"/>
      <path id="DejaVuSans-12" d="M 1625 4666 
L 2156 4666 
L 531 -594 
L 0 -594 
L 1625 4666 
z
" transform="scale(0.015625)"/>
      <path id="DejaVuSans-1e" d="M 750 3309 
L 1409 3309 
L 1409 2516 
L 750 2516 
L 750 3309 
z
M 750 794 
L 1409 794 
L 1409 256 
L 897 -744 
L 494 -744 
L 750 256 
L 750 794 
z
" transform="scale(0.015625)"/>
      <path id="DejaVuSans-53" d="M 1159 525 
L 1159 -1331 
L 581 -1331 
L 581 3500 
L 1159 3500 
L 1159 2969 
Q 1341 3281 1617 3432 
Q 1894 3584 2278 3584 
Q 2916 3584 3314 3078 
Q 3713 2572 3713 1747 
Q 3713 922 3314 415 
Q 2916 -91 2278 -91 
Q 1894 -91 1617 61 
Q 1341 213 1159 525 
z
M 3116 1747 
Q 3116 2381 2855 2742 
Q 2594 3103 2138 3103 
Q 1681 3103 1420 2742 
Q 1159 2381 1159 1747 
Q 1159 1113 1420 752 
Q 1681 391 2138 391 
Q 2594 391 2855 752 
Q 3116 1113 3116 1747 
z
" transform="scale(0.015625)"/>
      <path id="DejaVuSans-11" d="M 684 794 
L 1344 794 
L 1344 0 
L 684 0 
L 684 794 
z
" transform="scale(0.015625)"/>
     </defs>
     <use xlink:href="#DejaVuSans-33"/>
     <use xlink:href="#DejaVuSans-56" transform="translate(58.546875 0)"/>
     <use xlink:href="#DejaVuSans-5c" transform="translate(110.640625 0)"/>
     <use xlink:href="#DejaVuSans-46" transform="translate(169.828125 0)"/>
     <use xlink:href="#DejaVuSans-4b" transform="translate(224.8125 0)"/>
     <use xlink:href="#DejaVuSans-4c" transform="translate(288.1875 0)"/>
     <use xlink:href="#DejaVuSans-44" transform="translate(315.96875 0)"/>
     <use xlink:href="#DejaVuSans-57" transform="translate(377.25 0)"/>
     <use xlink:href="#DejaVuSans-55" transform="translate(416.453125 0)"/>
     <use xlink:href="#DejaVuSans-4c" transform="translate(457.5625 0)"/>
     <use xlink:href="#DejaVuSans-46" transform="translate(485.34375 0)"/>
     <use xlink:href="#DejaVuSans-3" transform="translate(540.328125 0)"/>
     <use xlink:href="#DejaVuSans-46" transform="translate(572.109375 0)"/>
     <use xlink:href="#DejaVuSans-52" transform="translate(627.09375 0)"/>
     <use xlink:href="#DejaVuSans-50" transform="translate(688.28125 0)"/>
     <use xlink:href="#DejaVuSans-52" transform="translate(785.6875 0)"/>
     <use xlink:href="#DejaVuSans-55" transform="translate(846.875 0)"/>
     <use xlink:href="#DejaVuSans-45" transform="translate(887.984375 0)"/>
     <use xlink:href="#DejaVuSans-4c" transform="translate(951.46875 0)"/>
     <use xlink:href="#DejaVuSans-47" transform="translate(979.25 0)"/>
     <use xlink:href="#DejaVuSans-4c" transform="translate(1042.734375 0)"/>
     <use xlink:href="#DejaVuSans-57" transform="translate(1070.515625 0)"/>
     <use xlink:href="#DejaVuSans-5c" transform="translate(1109.71875 0)"/>
     <use xlink:href="#DejaVuSans-3" transform="translate(1168.90625 0)"/>
     <use xlink:href="#DejaVuSans-44" transform="translate(1200.6875 0)"/>
     <use xlink:href="#DejaVuSans-51" transform="translate(1261.96875 0)"/>
     <use xlink:href="#DejaVuSans-47" transform="translate(1325.34375 0)"/>
     <use xlink:href="#DejaVuSans-3" transform="translate(1388.828125 0)"/>
     <use xlink:href="#DejaVuSans-48" transform="translate(1420.609375 0)"/>
     <use xlink:href="#DejaVuSans-44" transform="translate(1482.140625 0)"/>
     <use xlink:href="#DejaVuSans-55" transform="translate(1543.421875 0)"/>
     <use xlink:href="#DejaVuSans-4f" transform="translate(1584.53125 0)"/>
     <use xlink:href="#DejaVuSans-5c" transform="translate(1612.3125 0)"/>
     <use xlink:href="#DejaVuSans-3" transform="translate(1671.5 0)"/>
     <use xlink:href="#DejaVuSans-2c" transform="translate(1703.28125 0)"/>
     <use xlink:href="#DejaVuSans-26" transform="translate(1732.78125 0)"/>
     <use xlink:href="#DejaVuSans-38" transform="translate(1802.609375 0)"/>
     <use xlink:href="#DejaVuSans-3" transform="translate(1875.796875 0)"/>
     <use xlink:href="#DejaVuSans-47" transform="translate(1907.578125 0)"/>
     <use xlink:href="#DejaVuSans-48" transform="translate(1971.0625 0)"/>
     <use xlink:href="#DejaVuSans-4f" transform="translate(2032.59375 0)"/>
     <use xlink:href="#DejaVuSans-4c" transform="translate(2060.375 0)"/>
     <use xlink:href="#DejaVuSans-55" transform="translate(2088.15625 0)"/>
     <use xlink:href="#DejaVuSans-4c" transform="translate(2129.265625 0)"/>
     <use xlink:href="#DejaVuSans-58" transform="translate(2157.046875 0)"/>
     <use xlink:href="#DejaVuSans-50" transform="translate(2220.421875 0)"/>
     <use xlink:href="#DejaVuSans-3" transform="translate(2317.828125 0)"/>
     <use xlink:href="#DejaVuSans-50" transform="translate(2349.609375 0)"/>
     <use xlink:href="#DejaVuSans-44" transform="translate(2447.015625 0)"/>
     <use xlink:href="#DejaVuSans-55" transform="translate(2508.296875 0)"/>
     <use xlink:href="#DejaVuSans-4e" transform="translate(2549.40625 0)"/>
     <use xlink:href="#DejaVuSans-48" transform="translate(2603.75 0)"/>
     <use xlink:href="#DejaVuSans-47" transform="translate(2665.28125 0)"/>
     <use xlink:href="#DejaVuSans-3" transform="translate(2728.765625 0)"/>
     <use xlink:href="#DejaVuSans-4b" transform="translate(2760.546875 0)"/>
     <use xlink:href="#DejaVuSans-4c" transform="translate(2823.921875 0)"/>
     <use xlink:href="#DejaVuSans-4a" transform="translate(2851.703125 0)"/>
     <use xlink:href="#DejaVuSans-4b" transform="translate(2915.1875 0)"/>
     <use xlink:href="#DejaVuSans-48" transform="translate(2978.5625 0)"/>
     <use xlink:href="#DejaVuSans-55" transform="translate(3040.09375 0)"/>
     <use xlink:href="#DejaVuSans-3" transform="translate(3081.203125 0)"/>
     <use xlink:href="#DejaVuSans-50" transform="translate(3112.984375 0)"/>
     <use xlink:href="#DejaVuSans-52" transform="translate(3210.390625 0)"/>
     <use xlink:href="#DejaVuSans-55" transform="translate(3271.578125 0)"/>
     <use xlink:href="#DejaVuSans-57" transform="translate(3312.6875 0)"/>
     <use xlink:href="#DejaVuSans-44" transform="translate(3351.890625 0)"/>
     <use xlink:href="#DejaVuSans-4f" transform="translate(3413.171875 0)"/>
     <use xlink:href="#DejaVuSans-4c" transform="translate(3440.953125 0)"/>
     <use xlink:href="#DejaVuSans-57" transform="translate(3468.734375 0)"/>
     <use xlink:href="#DejaVuSans-5c" transform="translate(3507.9375 0)"/>
     <use xlink:href="#DejaVuSans-12" transform="translate(3567.125 0)"/>
     <use xlink:href="#DejaVuSans-55" transform="translate(3600.8125 0)"/>
     <use xlink:href="#DejaVuSans-48" transform="translate(3639.71875 0)"/>
     <use xlink:href="#DejaVuSans-44" transform="translate(3701.25 0)"/>
     <use xlink:href="#DejaVuSans-47" transform="translate(3762.53125 0)"/>
     <use xlink:href="#DejaVuSans-50" transform="translate(3826.015625 0)"/>
     <use xlink:href="#DejaVuSans-4c" transform="translate(3923.421875 0)"/>
     <use xlink:href="#DejaVuSans-56" transform="translate(3951.203125 0)"/>
     <use xlink:href="#DejaVuSans-56" transform="translate(4003.296875 0)"/>
     <use xlink:href="#DejaVuSans-4c" transform="translate(4055.390625 0)"/>
     <use xlink:href="#DejaVuSans-52" transform="translate(4083.171875 0)"/>
     <use xlink:href="#DejaVuSans-51" transform="translate(4144.359375 0)"/>
     <use xlink:href="#DejaVuSans-3" transform="translate(4207.734375 0)"/>
     <use xlink:href="#DejaVuSans-55" transform="translate(4239.515625 0)"/>
     <use xlink:href="#DejaVuSans-4c" transform="translate(4280.625 0)"/>
     <use xlink:href="#DejaVuSans-56" transform="translate(4308.40625 0)"/>
     <use xlink:href="#DejaVuSans-4e" transform="translate(4360.5 0)"/>
     <use xlink:href="#DejaVuSans-1e" transform="translate(4418.40625 0)"/>
     <use xlink:href="#DejaVuSans-3" transform="translate(4452.09375 0)"/>
     <use xlink:href="#DejaVuSans-51" transform="translate(4483.875 0)"/>
     <use xlink:href="#DejaVuSans-52" transform="translate(4547.25 0)"/>
     <use xlink:href="#DejaVuSans-3" transform="translate(4608.4375 0)"/>
     <use xlink:href="#DejaVuSans-55" transform="translate(4640.21875 0)"/>
     <use xlink:href="#DejaVuSans-52" transform="translate(4679.125 0)"/>
     <use xlink:href="#DejaVuSans-45" transform="translate(4740.3125 0)"/>
     <use xlink:href="#DejaVuSans-58" transform="translate(4803.796875 0)"/>
     <use xlink:href="#DejaVuSans-56" transform="translate(4867.171875 0)"/>
     <use xlink:href="#DejaVuSans-57" transform="translate(4919.265625 0)"/>
     <use xlink:href="#DejaVuSans-3" transform="translate(4958.46875 0)"/>
     <use xlink:href="#DejaVuSans-53" transform="translate(4990.25 0)"/>
     <use xlink:href="#DejaVuSans-52" transform="translate(5053.734375 0)"/>
     <use xlink:href="#DejaVuSans-56" transform="translate(5114.921875 0)"/>
     <use xlink:href="#DejaVuSans-4c" transform="translate(5167.015625 0)"/>
     <use xlink:href="#DejaVuSans-57" transform="translate(5194.796875 0)"/>
     <use xlink:href="#DejaVuSans-4c" transform="translate(5234 0)"/>
     <use xlink:href="#DejaVuSans-59" transform="translate(5261.78125 0)"/>
     <use xlink:href="#DejaVuSans-48" transform="translate(5320.96875 0)"/>
     <use xlink:href="#DejaVuSans-3" transform="translate(5382.5 0)"/>
     <use xlink:href="#DejaVuSans-4c" transform="translate(5414.28125 0)"/>
     <use xlink:href="#DejaVuSans-51" transform="translate(5442.0625 0)"/>
     <use xlink:href="#DejaVuSans-57" transform="translate(5505.4375 0)"/>
     <use xlink:href="#DejaVuSans-48" transform="translate(5544.640625 0)"/>
     <use xlink:href="#DejaVuSans-55" transform="translate(5606.171875 0)"/>
     <use xlink:href="#DejaVuSans-44" transform="translate(5647.28125 0)"/>
     <use xlink:href="#DejaVuSans-46" transform="translate(5708.5625 0)"/>
     <use xlink:href="#DejaVuSans-57" transform="translate(5763.546875 0)"/>
     <use xlink:href="#DejaVuSans-4c" transform="translate(5802.75 0)"/>
     <use xlink:href="#DejaVuSans-52" transform="translate(5830.53125 0)"/>
     <use xlink:href="#DejaVuSans-51" transform="translate(5891.71875 0)"/>
     <use xlink:href="#DejaVuSans-11" transform="translate(5955.09375 0)"/>
    </g>
   </g>
  </g>
 </g>
 <defs>
  <clipPath id="pe972b4ea0d">
   <rect x="0" y="0" width="662.4" height="216"/>
  </clipPath>
 </defs>
</svg>
