<?xml version="1.0" encoding="utf-8" standalone="no"?>
<!DOCTYPE svg PUBLIC "-//W3C//DTD SVG 1.1//EN"
  "http://www.w3.org/Graphics/SVG/1.1/DTD/svg11.dtd">
<svg xmlns:xlink="http://www.w3.org/1999/xlink" width="600.3pt" height="358.128pt" viewBox="0 0 600.3 358.128" xmlns="http://www.w3.org/2000/svg" version="1.1">
 <metadata>
  <rdf:RDF xmlns:dc="http://purl.org/dc/elements/1.1/" xmlns:cc="http://creativecommons.org/ns#" xmlns:rdf="http://www.w3.org/1999/02/22-rdf-syntax-ns#">
   <cc:Work>
    <dc:type rdf:resource="http://purl.org/dc/dcmitype/StillImage"/>
    <dc:date>2026-06-23T01:12:54.566910</dc:date>
    <dc:format>image/svg+xml</dc:format>
    <dc:creator>
     <cc:Agent>
      <dc:title>Matplotlib v3.10.8, https://matplotlib.org/</dc:title>
     </cc:Agent>
    </dc:creator>
   </cc:Work>
  </rdf:RDF>
 </metadata>
 <defs>
  <style type="text/css">*{stroke-linejoin: round; stroke-linecap: butt}</style>
 </defs>
 <g id="figure_1">
  <g id="patch_1">
   <path d="M 0 358.128 
L 600.3 358.128 
L 600.3 0 
L 0 0 
z
" style="fill: #ffffff"/>
  </g>
  <g id="axes_1">
   <g id="patch_2">
    <path d="M 200.547 62.19648 
L 399.753 62.19648 
Q 404.4402 62.19648 404.4402 58.7592 
L 404.4402 28.683 
Q 404.4402 25.24572 399.753 25.24572 
L 200.547 25.24572 
Q 195.8598 25.24572 195.8598 28.683 
L 195.8598 58.7592 
Q 195.8598 62.19648 200.547 62.19648 
z
" clip-path="url(#p722b06900c)" style="fill: #ffffff; stroke: #1f77b4; stroke-width: 1.4; stroke-linejoin: miter"/>
   </g>
   <g id="patch_3">
    <path d="M 300.15 64.19635 
Q 300.15 75.515816 300.15 85.493641 
" clip-path="url(#p722b06900c)" style="fill: none; stroke: #595959; stroke-width: 1.2; stroke-linecap: round"/>
    <path d="M 302.55 80.693641 
L 300.15 85.493641 
L 297.75 80.693641 
z
" clip-path="url(#p722b06900c)" style="fill: #595959; stroke: #595959; stroke-width: 1.2; stroke-linecap: round"/>
   </g>
   <g id="patch_4">
    <path d="M 200.547 130.94208 
L 399.753 130.94208 
Q 404.4402 130.94208 404.4402 127.5048 
L 404.4402 97.4286 
Q 404.4402 93.99132 399.753 93.99132 
L 200.547 93.99132 
Q 195.8598 93.99132 195.8598 97.4286 
L 195.8598 127.5048 
Q 195.8598 130.94208 200.547 130.94208 
z
" clip-path="url(#p722b06900c)" style="fill: #ffffff; stroke: #ff7f0e; stroke-width: 1.4; stroke-linejoin: miter"/>
   </g>
   <g id="patch_5">
    <path d="M 446.625 130.94208 
L 566.7345 130.94208 
Q 571.4217 130.94208 571.4217 127.5048 
L 571.4217 97.4286 
Q 571.4217 93.99132 566.7345 93.99132 
L 446.625 93.99132 
Q 441.9378 93.99132 441.9378 97.4286 
L 441.9378 127.5048 
Q 441.9378 130.94208 446.625 130.94208 
z
" clip-path="url(#p722b06900c)" style="fill: #ffffff; stroke: #d62728; stroke-width: 1.4; stroke-linejoin: miter"/>
   </g>
   <g id="patch_6">
    <path d="M 406.440499 112.4667 
Q 423.190355 112.4667 438.598569 112.4667 
" clip-path="url(#p722b06900c)" style="fill: none; stroke: #595959; stroke-width: 1.2; stroke-linecap: round"/>
    <path d="M 433.798569 110.0667 
L 438.598569 112.4667 
L 433.798569 114.8667 
z
" clip-path="url(#p722b06900c)" style="fill: #595959; stroke: #595959; stroke-width: 1.2; stroke-linecap: round"/>
   </g>
   <g id="patch_7">
    <path d="M 24.777 203.98428 
L 144.8865 203.98428 
Q 149.5737 203.98428 149.5737 200.547 
L 149.5737 164.0259 
Q 149.5737 160.58862 144.8865 160.58862 
L 24.777 160.58862 
Q 20.0898 160.58862 20.0898 164.0259 
L 20.0898 200.547 
Q 20.0898 203.98428 24.777 203.98428 
z
" clip-path="url(#p722b06900c)" style="fill: #ffffff; stroke: #1f77b4; stroke-width: 1.4; stroke-linejoin: miter"/>
   </g>
   <g id="patch_8">
    <path d="M 168.3225 203.98428 
L 288.432 203.98428 
Q 293.1192 203.98428 293.1192 200.547 
L 293.1192 164.0259 
Q 293.1192 160.58862 288.432 160.58862 
L 168.3225 160.58862 
Q 163.6353 160.58862 163.6353 164.0259 
L 163.6353 200.547 
Q 163.6353 203.98428 168.3225 203.98428 
z
" clip-path="url(#p722b06900c)" style="fill: #ffffff; stroke: #ff7f0e; stroke-width: 1.4; stroke-linejoin: miter"/>
   </g>
   <g id="patch_9">
    <path d="M 311.868 203.98428 
L 431.9775 203.98428 
Q 436.6647 203.98428 436.6647 200.547 
L 436.6647 164.0259 
Q 436.6647 160.58862 431.9775 160.58862 
L 311.868 160.58862 
Q 307.1808 160.58862 307.1808 164.0259 
L 307.1808 200.547 
Q 307.1808 203.98428 311.868 203.98428 
z
" clip-path="url(#p722b06900c)" style="fill: #ffffff; stroke: #2ca02c; stroke-width: 1.4; stroke-linejoin: miter"/>
   </g>
   <g id="patch_10">
    <path d="M 455.4135 203.98428 
L 575.523 203.98428 
Q 580.2102 203.98428 580.2102 200.547 
L 580.2102 164.0259 
Q 580.2102 160.58862 575.523 160.58862 
L 455.4135 160.58862 
Q 450.7263 160.58862 450.7263 164.0259 
L 450.7263 200.547 
Q 450.7263 203.98428 455.4135 203.98428 
z
" clip-path="url(#p722b06900c)" style="fill: #ffffff; stroke: #d62728; stroke-width: 1.4; stroke-linejoin: miter"/>
   </g>
   <g id="patch_11">
    <path d="M 84.83175 147.551439 
Q 84.83175 153.069006 84.83175 157.244932 
" clip-path="url(#p722b06900c)" style="fill: none; stroke: #595959; stroke-width: 1.2; stroke-linecap: round"/>
    <path d="M 87.23175 152.444932 
L 84.83175 157.244932 
L 82.43175 152.444932 
z
" clip-path="url(#p722b06900c)" style="fill: #595959; stroke: #595959; stroke-width: 1.2; stroke-linecap: round"/>
   </g>
   <g id="patch_12">
    <path d="M 228.37725 147.551439 
Q 228.37725 153.069006 228.37725 157.244932 
" clip-path="url(#p722b06900c)" style="fill: none; stroke: #595959; stroke-width: 1.2; stroke-linecap: round"/>
    <path d="M 230.77725 152.444932 
L 228.37725 157.244932 
L 225.97725 152.444932 
z
" clip-path="url(#p722b06900c)" style="fill: #595959; stroke: #595959; stroke-width: 1.2; stroke-linecap: round"/>
   </g>
   <g id="patch_13">
    <path d="M 371.92275 147.551439 
Q 371.92275 153.069006 371.92275 157.244932 
" clip-path="url(#p722b06900c)" style="fill: none; stroke: #595959; stroke-width: 1.2; stroke-linecap: round"/>
    <path d="M 374.32275 152.444932 
L 371.92275 157.244932 
L 369.52275 152.444932 
z
" clip-path="url(#p722b06900c)" style="fill: #595959; stroke: #595959; stroke-width: 1.2; stroke-linecap: round"/>
   </g>
   <g id="patch_14">
    <path d="M 515.46825 147.551439 
Q 515.46825 153.069006 515.46825 157.244932 
" clip-path="url(#p722b06900c)" style="fill: none; stroke: #595959; stroke-width: 1.2; stroke-linecap: round"/>
    <path d="M 517.86825 152.444932 
L 515.46825 157.244932 
L 513.06825 152.444932 
z
" clip-path="url(#p722b06900c)" style="fill: #595959; stroke: #595959; stroke-width: 1.2; stroke-linecap: round"/>
   </g>
   <g id="patch_15">
    <path d="M 153.675 226.177908 
Q 153.675 237.282372 153.675 247.045195 
" clip-path="url(#p722b06900c)" style="fill: none; stroke: #595959; stroke-width: 1.2; stroke-linecap: round"/>
    <path d="M 156.075 242.245195 
L 153.675 247.045195 
L 151.275 242.245195 
z
" clip-path="url(#p722b06900c)" style="fill: #595959; stroke: #595959; stroke-width: 1.2; stroke-linecap: round"/>
   </g>
   <g id="patch_16">
    <path d="M 446.625 226.177908 
Q 446.625 237.282372 446.625 247.045195 
" clip-path="url(#p722b06900c)" style="fill: none; stroke: #595959; stroke-width: 1.2; stroke-linecap: round"/>
    <path d="M 449.025 242.245195 
L 446.625 247.045195 
L 444.225 242.245195 
z
" clip-path="url(#p722b06900c)" style="fill: #595959; stroke: #595959; stroke-width: 1.2; stroke-linecap: round"/>
   </g>
   <g id="patch_17">
    <path d="M 48.213 294.21288 
L 262.0665 294.21288 
Q 266.7537 294.21288 266.7537 290.7756 
L 266.7537 254.2545 
Q 266.7537 250.81722 262.0665 250.81722 
L 48.213 250.81722 
Q 43.5258 250.81722 43.5258 254.2545 
L 43.5258 290.7756 
Q 43.5258 294.21288 48.213 294.21288 
z
" clip-path="url(#p722b06900c)" style="fill: #ffffff; stroke: #1f77b4; stroke-width: 1.4; stroke-linejoin: miter"/>
   </g>
   <g id="patch_18">
    <path d="M 338.2335 294.21288 
L 552.087 294.21288 
Q 556.7742 294.21288 556.7742 290.7756 
L 556.7742 254.2545 
Q 556.7742 250.81722 552.087 250.81722 
L 338.2335 250.81722 
Q 333.5463 250.81722 333.5463 254.2545 
L 333.5463 290.7756 
Q 333.5463 294.21288 338.2335 294.21288 
z
" clip-path="url(#p722b06900c)" style="fill: #ffffff; stroke: #2ca02c; stroke-width: 1.4; stroke-linejoin: miter"/>
   </g>
   <g id="line2d_1">
    <path d="M 300.15 130.51242 
L 300.15 145.55052 
" clip-path="url(#p722b06900c)" style="fill: none; stroke: #595959; stroke-width: 1.2; stroke-linecap: square"/>
   </g>
   <g id="line2d_2">
    <path d="M 84.83175 145.55052 
L 515.46825 145.55052 
" clip-path="url(#p722b06900c)" style="fill: none; stroke: #595959; stroke-width: 1.2; stroke-linecap: square"/>
   </g>
   <g id="line2d_3">
    <path d="M 84.83175 202.6953 
L 84.83175 224.1783 
" clip-path="url(#p722b06900c)" style="fill: none; stroke: #595959; stroke-linecap: square"/>
   </g>
   <g id="line2d_4">
    <path d="M 228.37725 202.6953 
L 228.37725 224.1783 
" clip-path="url(#p722b06900c)" style="fill: none; stroke: #595959; stroke-linecap: square"/>
   </g>
   <g id="line2d_5">
    <path d="M 371.92275 202.6953 
L 371.92275 224.1783 
" clip-path="url(#p722b06900c)" style="fill: none; stroke: #595959; stroke-linecap: square"/>
   </g>
   <g id="line2d_6">
    <path d="M 515.46825 202.6953 
L 515.46825 224.1783 
" clip-path="url(#p722b06900c)" style="fill: none; stroke: #595959; stroke-linecap: square"/>
   </g>
   <g id="line2d_7">
    <path d="M 84.83175 224.1783 
L 515.46825 224.1783 
" clip-path="url(#p722b06900c)" style="fill: none; stroke: #595959; stroke-linecap: square"/>
   </g>
   <g id="text_1">
    <!-- Base cohort -->
    <g transform="translate(270.332813 35.282662) scale(0.1 -0.1)">
     <defs>
      <path id="DejaVuSans-42" d="M 1259 2228 
L 1259 519 
L 2272 519 
Q 2781 519 3026 730 
Q 3272 941 3272 1375 
Q 3272 1813 3026 2020 
Q 2781 2228 2272 2228 
L 1259 2228 
z
M 1259 4147 
L 1259 2741 
L 2194 2741 
Q 2656 2741 2882 2914 
Q 3109 3088 3109 3444 
Q 3109 3797 2882 3972 
Q 2656 4147 2194 4147 
L 1259 4147 
z
M 628 4666 
L 2241 4666 
Q 2963 4666 3353 4366 
Q 3744 4066 3744 3513 
Q 3744 3084 3544 2831 
Q 3344 2578 2956 2516 
Q 3422 2416 3680 2098 
Q 3938 1781 3938 1306 
Q 3938 681 3513 340 
Q 3088 0 2303 0 
L 628 0 
L 628 4666 
z
" transform="scale(0.015625)"/>
      <path id="DejaVuSans-61" d="M 2194 1759 
Q 1497 1759 1228 1600 
Q 959 1441 959 1056 
Q 959 750 1161 570 
Q 1363 391 1709 391 
Q 2188 391 2477 730 
Q 2766 1069 2766 1631 
L 2766 1759 
L 2194 1759 
z
M 3341 1997 
L 3341 0 
L 2766 0 
L 2766 531 
Q 2569 213 2275 61 
Q 1981 -91 1556 -91 
Q 1019 -91 701 211 
Q 384 513 384 1019 
Q 384 1609 779 1909 
Q 1175 2209 1959 2209 
L 2766 2209 
L 2766 2266 
Q 2766 2663 2505 2880 
Q 2244 3097 1772 3097 
Q 1472 3097 1187 3025 
Q 903 2953 641 2809 
L 641 3341 
Q 956 3463 1253 3523 
Q 1550 3584 1831 3584 
Q 2591 3584 2966 3190 
Q 3341 2797 3341 1997 
z
" transform="scale(0.015625)"/>
      <path id="DejaVuSans-73" d="M 2834 3397 
L 2834 2853 
Q 2591 2978 2328 3040 
Q 2066 3103 1784 3103 
Q 1356 3103 1142 2972 
Q 928 2841 928 2578 
Q 928 2378 1081 2264 
Q 1234 2150 1697 2047 
L 1894 2003 
Q 2506 1872 2764 1633 
Q 3022 1394 3022 966 
Q 3022 478 2636 193 
Q 2250 -91 1575 -91 
Q 1294 -91 989 -36 
Q 684 19 347 128 
L 347 722 
Q 666 556 975 473 
Q 1284 391 1588 391 
Q 1994 391 2212 530 
Q 2431 669 2431 922 
Q 2431 1156 2273 1281 
Q 2116 1406 1581 1522 
L 1381 1569 
Q 847 1681 609 1914 
Q 372 2147 372 2553 
Q 372 3047 722 3315 
Q 1072 3584 1716 3584 
Q 2034 3584 2315 3537 
Q 2597 3491 2834 3397 
z
" transform="scale(0.015625)"/>
      <path id="DejaVuSans-65" d="M 3597 1894 
L 3597 1613 
L 953 1613 
Q 991 1019 1311 708 
Q 1631 397 2203 397 
Q 2534 397 2845 478 
Q 3156 559 3463 722 
L 3463 178 
Q 3153 47 2828 -22 
Q 2503 -91 2169 -91 
Q 1331 -91 842 396 
Q 353 884 353 1716 
Q 353 2575 817 3079 
Q 1281 3584 2069 3584 
Q 2775 3584 3186 3129 
Q 3597 2675 3597 1894 
z
M 3022 2063 
Q 3016 2534 2758 2815 
Q 2500 3097 2075 3097 
Q 1594 3097 1305 2825 
Q 1016 2553 972 2059 
L 3022 2063 
z
" transform="scale(0.015625)"/>
      <path id="DejaVuSans-20" transform="scale(0.015625)"/>
      <path id="DejaVuSans-63" d="M 3122 3366 
L 3122 2828 
Q 2878 2963 2633 3030 
Q 2388 3097 2138 3097 
Q 1578 3097 1268 2742 
Q 959 2388 959 1747 
Q 959 1106 1268 751 
Q 1578 397 2138 397 
Q 2388 397 2633 464 
Q 2878 531 3122 666 
L 3122 134 
Q 2881 22 2623 -34 
Q 2366 -91 2075 -91 
Q 1284 -91 818 406 
Q 353 903 353 1747 
Q 353 2603 823 3093 
Q 1294 3584 2113 3584 
Q 2378 3584 2631 3529 
Q 2884 3475 3122 3366 
z
" transform="scale(0.015625)"/>
      <path id="DejaVuSans-6f" d="M 1959 3097 
Q 1497 3097 1228 2736 
Q 959 2375 959 1747 
Q 959 1119 1226 758 
Q 1494 397 1959 397 
Q 2419 397 2687 759 
Q 2956 1122 2956 1747 
Q 2956 2369 2687 2733 
Q 2419 3097 1959 3097 
z
M 1959 3584 
Q 2709 3584 3137 3096 
Q 3566 2609 3566 1747 
Q 3566 888 3137 398 
Q 2709 -91 1959 -91 
Q 1206 -91 779 398 
Q 353 888 353 1747 
Q 353 2609 779 3096 
Q 1206 3584 1959 3584 
z
" transform="scale(0.015625)"/>
      <path id="DejaVuSans-68" d="M 3513 2113 
L 3513 0 
L 2938 0 
L 2938 2094 
Q 2938 2591 2744 2837 
Q 2550 3084 2163 3084 
Q 1697 3084 1428 2787 
Q 1159 2491 1159 1978 
L 1159 0 
L 581 0 
L 581 4863 
L 1159 4863 
L 1159 2956 
Q 1366 3272 1645 3428 
Q 1925 3584 2291 3584 
Q 2894 3584 3203 3211 
Q 3513 2838 3513 2113 
z
" transform="scale(0.015625)"/>
      <path id="DejaVuSans-72" d="M 2631 2963 
Q 2534 3019 2420 3045 
Q 2306 3072 2169 3072 
Q 1681 3072 1420 2755 
Q 1159 2438 1159 1844 
L 1159 0 
L 581 0 
L 581 3500 
L 1159 3500 
L 1159 2956 
Q 1341 3275 1631 3429 
Q 1922 3584 2338 3584 
Q 2397 3584 2469 3576 
Q 2541 3569 2628 3553 
L 2631 2963 
z
" transform="scale(0.015625)"/>
      <path id="DejaVuSans-74" d="M 1172 4494 
L 1172 3500 
L 2356 3500 
L 2356 3053 
L 1172 3053 
L 1172 1153 
Q 1172 725 1289 603 
Q 1406 481 1766 481 
L 2356 481 
L 2356 0 
L 1766 0 
Q 1100 0 847 248 
Q 594 497 594 1153 
L 594 3053 
L 172 3053 
L 172 3500 
L 594 3500 
L 594 4494 
L 1172 4494 
z
" transform="scale(0.015625)"/>
     </defs>
     <use xlink:href="#DejaVuSans-42"/>
     <use xlink:href="#DejaVuSans-61" transform="translate(68.603516 0)"/>
     <use xlink:href="#DejaVuSans-73" transform="translate(129.882812 0)"/>
     <use xlink:href="#DejaVuSans-65" transform="translate(181.982422 0)"/>
     <use xlink:href="#DejaVuSans-20" transform="translate(243.505859 0)"/>
     <use xlink:href="#DejaVuSans-63" transform="translate(275.292969 0)"/>
     <use xlink:href="#DejaVuSans-6f" transform="translate(330.273438 0)"/>
     <use xlink:href="#DejaVuSans-68" transform="translate(391.455078 0)"/>
     <use xlink:href="#DejaVuSans-6f" transform="translate(454.833984 0)"/>
     <use xlink:href="#DejaVuSans-72" transform="translate(516.015625 0)"/>
     <use xlink:href="#DejaVuSans-74" transform="translate(557.128906 0)"/>
    </g>
    <!-- Adult first-ICU survivors, ICU stay ≥24 h -->
    <g transform="translate(200.010938 46.480475) scale(0.1 -0.1)">
     <defs>
      <path id="DejaVuSans-41" d="M 2188 4044 
L 1331 1722 
L 3047 1722 
L 2188 4044 
z
M 1831 4666 
L 2547 4666 
L 4325 0 
L 3669 0 
L 3244 1197 
L 1141 1197 
L 716 0 
L 50 0 
L 1831 4666 
z
" transform="scale(0.015625)"/>
      <path id="DejaVuSans-64" d="M 2906 2969 
L 2906 4863 
L 3481 4863 
L 3481 0 
L 2906 0 
L 2906 525 
Q 2725 213 2448 61 
Q 2172 -91 1784 -91 
Q 1150 -91 751 415 
Q 353 922 353 1747 
Q 353 2572 751 3078 
Q 1150 3584 1784 3584 
Q 2172 3584 2448 3432 
Q 2725 3281 2906 2969 
z
M 947 1747 
Q 947 1113 1208 752 
Q 1469 391 1925 391 
Q 2381 391 2643 752 
Q 2906 1113 2906 1747 
Q 2906 2381 2643 2742 
Q 2381 3103 1925 3103 
Q 1469 3103 1208 2742 
Q 947 2381 947 1747 
z
" transform="scale(0.015625)"/>
      <path id="DejaVuSans-75" d="M 544 1381 
L 544 3500 
L 1119 3500 
L 1119 1403 
Q 1119 906 1312 657 
Q 1506 409 1894 409 
Q 2359 409 2629 706 
Q 2900 1003 2900 1516 
L 2900 3500 
L 3475 3500 
L 3475 0 
L 2900 0 
L 2900 538 
Q 2691 219 2414 64 
Q 2138 -91 1772 -91 
Q 1169 -91 856 284 
Q 544 659 544 1381 
z
M 1991 3584 
L 1991 3584 
z
" transform="scale(0.015625)"/>
      <path id="DejaVuSans-6c" d="M 603 4863 
L 1178 4863 
L 1178 0 
L 603 0 
L 603 4863 
z
" transform="scale(0.015625)"/>
      <path id="DejaVuSans-66" d="M 2375 4863 
L 2375 4384 
L 1825 4384 
Q 1516 4384 1395 4259 
Q 1275 4134 1275 3809 
L 1275 3500 
L 2222 3500 
L 2222 3053 
L 1275 3053 
L 1275 0 
L 697 0 
L 697 3053 
L 147 3053 
L 147 3500 
L 697 3500 
L 697 3744 
Q 697 4328 969 4595 
Q 1241 4863 1831 4863 
L 2375 4863 
z
" transform="scale(0.015625)"/>
      <path id="DejaVuSans-69" d="M 603 3500 
L 1178 3500 
L 1178 0 
L 603 0 
L 603 3500 
z
M 603 4863 
L 1178 4863 
L 1178 4134 
L 603 4134 
L 603 4863 
z
" transform="scale(0.015625)"/>
      <path id="DejaVuSans-2d" d="M 313 2009 
L 1997 2009 
L 1997 1497 
L 313 1497 
L 313 2009 
z
" transform="scale(0.015625)"/>
      <path id="DejaVuSans-49" d="M 628 4666 
L 1259 4666 
L 1259 0 
L 628 0 
L 628 4666 
z
" transform="scale(0.015625)"/>
      <path id="DejaVuSans-43" d="M 4122 4306 
L 4122 3641 
Q 3803 3938 3442 4084 
Q 3081 4231 2675 4231 
Q 1875 4231 1450 3742 
Q 1025 3253 1025 2328 
Q 1025 1406 1450 917 
Q 1875 428 2675 428 
Q 3081 428 3442 575 
Q 3803 722 4122 1019 
L 4122 359 
Q 3791 134 3420 21 
Q 3050 -91 2638 -91 
Q 1578 -91 968 557 
Q 359 1206 359 2328 
Q 359 3453 968 4101 
Q 1578 4750 2638 4750 
Q 3056 4750 3426 4639 
Q 3797 4528 4122 4306 
z
" transform="scale(0.015625)"/>
      <path id="DejaVuSans-55" d="M 556 4666 
L 1191 4666 
L 1191 1831 
Q 1191 1081 1462 751 
Q 1734 422 2344 422 
Q 2950 422 3222 751 
Q 3494 1081 3494 1831 
L 3494 4666 
L 4128 4666 
L 4128 1753 
Q 4128 841 3676 375 
Q 3225 -91 2344 -91 
Q 1459 -91 1007 375 
Q 556 841 556 1753 
L 556 4666 
z
" transform="scale(0.015625)"/>
      <path id="DejaVuSans-76" d="M 191 3500 
L 800 3500 
L 1894 563 
L 2988 3500 
L 3597 3500 
L 2284 0 
L 1503 0 
L 191 3500 
z
" transform="scale(0.015625)"/>
      <path id="DejaVuSans-2c" d="M 750 794 
L 1409 794 
L 1409 256 
L 897 -744 
L 494 -744 
L 750 256 
L 750 794 
z
" transform="scale(0.015625)"/>
      <path id="DejaVuSans-79" d="M 2059 -325 
Q 1816 -950 1584 -1140 
Q 1353 -1331 966 -1331 
L 506 -1331 
L 506 -850 
L 844 -850 
Q 1081 -850 1212 -737 
Q 1344 -625 1503 -206 
L 1606 56 
L 191 3500 
L 800 3500 
L 1894 763 
L 2988 3500 
L 3597 3500 
L 2059 -325 
z
" transform="scale(0.015625)"/>
      <path id="DejaVuSans-2265" d="M 678 3175 
L 678 3725 
L 4684 2578 
L 4684 2047 
L 678 897 
L 678 1453 
L 3681 2309 
L 678 3175 
z
M 4684 531 
L 4684 0 
L 678 0 
L 678 531 
L 4684 531 
z
" transform="scale(0.015625)"/>
      <path id="DejaVuSans-32" d="M 1228 531 
L 3431 531 
L 3431 0 
L 469 0 
L 469 531 
Q 828 903 1448 1529 
Q 2069 2156 2228 2338 
Q 2531 2678 2651 2914 
Q 2772 3150 2772 3378 
Q 2772 3750 2511 3984 
Q 2250 4219 1831 4219 
Q 1534 4219 1204 4116 
Q 875 4013 500 3803 
L 500 4441 
Q 881 4594 1212 4672 
Q 1544 4750 1819 4750 
Q 2544 4750 2975 4387 
Q 3406 4025 3406 3419 
Q 3406 3131 3298 2873 
Q 3191 2616 2906 2266 
Q 2828 2175 2409 1742 
Q 1991 1309 1228 531 
z
" transform="scale(0.015625)"/>
      <path id="DejaVuSans-34" d="M 2419 4116 
L 825 1625 
L 2419 1625 
L 2419 4116 
z
M 2253 4666 
L 3047 4666 
L 3047 1625 
L 3713 1625 
L 3713 1100 
L 3047 1100 
L 3047 0 
L 2419 0 
L 2419 1100 
L 313 1100 
L 313 1709 
L 2253 4666 
z
" transform="scale(0.015625)"/>
     </defs>
     <use xlink:href="#DejaVuSans-41"/>
     <use xlink:href="#DejaVuSans-64" transform="translate(66.658203 0)"/>
     <use xlink:href="#DejaVuSans-75" transform="translate(130.134766 0)"/>
     <use xlink:href="#DejaVuSans-6c" transform="translate(193.513672 0)"/>
     <use xlink:href="#DejaVuSans-74" transform="translate(221.296875 0)"/>
     <use xlink:href="#DejaVuSans-20" transform="translate(260.505859 0)"/>
     <use xlink:href="#DejaVuSans-66" transform="translate(292.292969 0)"/>
     <use xlink:href="#DejaVuSans-69" transform="translate(327.498047 0)"/>
     <use xlink:href="#DejaVuSans-72" transform="translate(355.28125 0)"/>
     <use xlink:href="#DejaVuSans-73" transform="translate(396.394531 0)"/>
     <use xlink:href="#DejaVuSans-74" transform="translate(448.494141 0)"/>
     <use xlink:href="#DejaVuSans-2d" transform="translate(487.703125 0)"/>
     <use xlink:href="#DejaVuSans-49" transform="translate(523.787109 0)"/>
     <use xlink:href="#DejaVuSans-43" transform="translate(553.279297 0)"/>
     <use xlink:href="#DejaVuSans-55" transform="translate(623.103516 0)"/>
     <use xlink:href="#DejaVuSans-20" transform="translate(696.296875 0)"/>
     <use xlink:href="#DejaVuSans-73" transform="translate(728.083984 0)"/>
     <use xlink:href="#DejaVuSans-75" transform="translate(780.183594 0)"/>
     <use xlink:href="#DejaVuSans-72" transform="translate(843.5625 0)"/>
     <use xlink:href="#DejaVuSans-76" transform="translate(884.675781 0)"/>
     <use xlink:href="#DejaVuSans-69" transform="translate(943.855469 0)"/>
     <use xlink:href="#DejaVuSans-76" transform="translate(971.638672 0)"/>
     <use xlink:href="#DejaVuSans-6f" transform="translate(1030.818359 0)"/>
     <use xlink:href="#DejaVuSans-72" transform="translate(1092 0)"/>
     <use xlink:href="#DejaVuSans-73" transform="translate(1133.113281 0)"/>
     <use xlink:href="#DejaVuSans-2c" transform="translate(1185.212891 0)"/>
     <use xlink:href="#DejaVuSans-20" transform="translate(1217 0)"/>
     <use xlink:href="#DejaVuSans-49" transform="translate(1248.787109 0)"/>
     <use xlink:href="#DejaVuSans-43" transform="translate(1278.279297 0)"/>
     <use xlink:href="#DejaVuSans-55" transform="translate(1348.103516 0)"/>
     <use xlink:href="#DejaVuSans-20" transform="translate(1421.296875 0)"/>
     <use xlink:href="#DejaVuSans-73" transform="translate(1453.083984 0)"/>
     <use xlink:href="#DejaVuSans-74" transform="translate(1505.183594 0)"/>
     <use xlink:href="#DejaVuSans-61" transform="translate(1544.392578 0)"/>
     <use xlink:href="#DejaVuSans-79" transform="translate(1605.671875 0)"/>
     <use xlink:href="#DejaVuSans-20" transform="translate(1664.851562 0)"/>
     <use xlink:href="#DejaVuSans-2265" transform="translate(1696.638672 0)"/>
     <use xlink:href="#DejaVuSans-32" transform="translate(1780.427734 0)"/>
     <use xlink:href="#DejaVuSans-34" transform="translate(1844.050781 0)"/>
     <use xlink:href="#DejaVuSans-20" transform="translate(1907.673828 0)"/>
     <use xlink:href="#DejaVuSans-68" transform="translate(1939.460938 0)"/>
    </g>
    <!-- n = 46,316 -->
    <g transform="translate(272.117969 57.678287) scale(0.1 -0.1)">
     <defs>
      <path id="DejaVuSans-6e" d="M 3513 2113 
L 3513 0 
L 2938 0 
L 2938 2094 
Q 2938 2591 2744 2837 
Q 2550 3084 2163 3084 
Q 1697 3084 1428 2787 
Q 1159 2491 1159 1978 
L 1159 0 
L 581 0 
L 581 3500 
L 1159 3500 
L 1159 2956 
Q 1366 3272 1645 3428 
Q 1925 3584 2291 3584 
Q 2894 3584 3203 3211 
Q 3513 2838 3513 2113 
z
" transform="scale(0.015625)"/>
      <path id="DejaVuSans-3d" d="M 678 2906 
L 4684 2906 
L 4684 2381 
L 678 2381 
L 678 2906 
z
M 678 1631 
L 4684 1631 
L 4684 1100 
L 678 1100 
L 678 1631 
z
" transform="scale(0.015625)"/>
      <path id="DejaVuSans-36" d="M 2113 2584 
Q 1688 2584 1439 2293 
Q 1191 2003 1191 1497 
Q 1191 994 1439 701 
Q 1688 409 2113 409 
Q 2538 409 2786 701 
Q 3034 994 3034 1497 
Q 3034 2003 2786 2293 
Q 2538 2584 2113 2584 
z
M 3366 4563 
L 3366 3988 
Q 3128 4100 2886 4159 
Q 2644 4219 2406 4219 
Q 1781 4219 1451 3797 
Q 1122 3375 1075 2522 
Q 1259 2794 1537 2939 
Q 1816 3084 2150 3084 
Q 2853 3084 3261 2657 
Q 3669 2231 3669 1497 
Q 3669 778 3244 343 
Q 2819 -91 2113 -91 
Q 1303 -91 875 529 
Q 447 1150 447 2328 
Q 447 3434 972 4092 
Q 1497 4750 2381 4750 
Q 2619 4750 2861 4703 
Q 3103 4656 3366 4563 
z
" transform="scale(0.015625)"/>
      <path id="DejaVuSans-33" d="M 2597 2516 
Q 3050 2419 3304 2112 
Q 3559 1806 3559 1356 
Q 3559 666 3084 287 
Q 2609 -91 1734 -91 
Q 1441 -91 1130 -33 
Q 819 25 488 141 
L 488 750 
Q 750 597 1062 519 
Q 1375 441 1716 441 
Q 2309 441 2620 675 
Q 2931 909 2931 1356 
Q 2931 1769 2642 2001 
Q 2353 2234 1838 2234 
L 1294 2234 
L 1294 2753 
L 1863 2753 
Q 2328 2753 2575 2939 
Q 2822 3125 2822 3475 
Q 2822 3834 2567 4026 
Q 2313 4219 1838 4219 
Q 1578 4219 1281 4162 
Q 984 4106 628 3988 
L 628 4550 
Q 988 4650 1302 4700 
Q 1616 4750 1894 4750 
Q 2613 4750 3031 4423 
Q 3450 4097 3450 3541 
Q 3450 3153 3228 2886 
Q 3006 2619 2597 2516 
z
" transform="scale(0.015625)"/>
      <path id="DejaVuSans-31" d="M 794 531 
L 1825 531 
L 1825 4091 
L 703 3866 
L 703 4441 
L 1819 4666 
L 2450 4666 
L 2450 531 
L 3481 531 
L 3481 0 
L 794 0 
L 794 531 
z
" transform="scale(0.015625)"/>
     </defs>
     <use xlink:href="#DejaVuSans-6e"/>
     <use xlink:href="#DejaVuSans-20" transform="translate(63.378906 0)"/>
     <use xlink:href="#DejaVuSans-3d" transform="translate(95.166016 0)"/>
     <use xlink:href="#DejaVuSans-20" transform="translate(178.955078 0)"/>
     <use xlink:href="#DejaVuSans-34" transform="translate(210.742188 0)"/>
     <use xlink:href="#DejaVuSans-36" transform="translate(274.365234 0)"/>
     <use xlink:href="#DejaVuSans-2c" transform="translate(337.988281 0)"/>
     <use xlink:href="#DejaVuSans-33" transform="translate(369.775391 0)"/>
     <use xlink:href="#DejaVuSans-31" transform="translate(433.398438 0)"/>
     <use xlink:href="#DejaVuSans-36" transform="translate(497.021484 0)"/>
    </g>
   </g>
   <g id="text_2">
    <!-- Classifiable early ICU delirium status (72 h) -->
    <g transform="translate(191.741406 109.627169) scale(0.1 -0.1)">
     <defs>
      <path id="DejaVuSans-62" d="M 3116 1747 
Q 3116 2381 2855 2742 
Q 2594 3103 2138 3103 
Q 1681 3103 1420 2742 
Q 1159 2381 1159 1747 
Q 1159 1113 1420 752 
Q 1681 391 2138 391 
Q 2594 391 2855 752 
Q 3116 1113 3116 1747 
z
M 1159 2969 
Q 1341 3281 1617 3432 
Q 1894 3584 2278 3584 
Q 2916 3584 3314 3078 
Q 3713 2572 3713 1747 
Q 3713 922 3314 415 
Q 2916 -91 2278 -91 
Q 1894 -91 1617 61 
Q 1341 213 1159 525 
L 1159 0 
L 581 0 
L 581 4863 
L 1159 4863 
L 1159 2969 
z
" transform="scale(0.015625)"/>
      <path id="DejaVuSans-6d" d="M 3328 2828 
Q 3544 3216 3844 3400 
Q 4144 3584 4550 3584 
Q 5097 3584 5394 3201 
Q 5691 2819 5691 2113 
L 5691 0 
L 5113 0 
L 5113 2094 
Q 5113 2597 4934 2840 
Q 4756 3084 4391 3084 
Q 3944 3084 3684 2787 
Q 3425 2491 3425 1978 
L 3425 0 
L 2847 0 
L 2847 2094 
Q 2847 2600 2669 2842 
Q 2491 3084 2119 3084 
Q 1678 3084 1418 2786 
Q 1159 2488 1159 1978 
L 1159 0 
L 581 0 
L 581 3500 
L 1159 3500 
L 1159 2956 
Q 1356 3278 1631 3431 
Q 1906 3584 2284 3584 
Q 2666 3584 2933 3390 
Q 3200 3197 3328 2828 
z
" transform="scale(0.015625)"/>
      <path id="DejaVuSans-28" d="M 1984 4856 
Q 1566 4138 1362 3434 
Q 1159 2731 1159 2009 
Q 1159 1288 1364 580 
Q 1569 -128 1984 -844 
L 1484 -844 
Q 1016 -109 783 600 
Q 550 1309 550 2009 
Q 550 2706 781 3412 
Q 1013 4119 1484 4856 
L 1984 4856 
z
" transform="scale(0.015625)"/>
      <path id="DejaVuSans-37" d="M 525 4666 
L 3525 4666 
L 3525 4397 
L 1831 0 
L 1172 0 
L 2766 4134 
L 525 4134 
L 525 4666 
z
" transform="scale(0.015625)"/>
      <path id="DejaVuSans-29" d="M 513 4856 
L 1013 4856 
Q 1481 4119 1714 3412 
Q 1947 2706 1947 2009 
Q 1947 1309 1714 600 
Q 1481 -109 1013 -844 
L 513 -844 
Q 928 -128 1133 580 
Q 1338 1288 1338 2009 
Q 1338 2731 1133 3434 
Q 928 4138 513 4856 
z
" transform="scale(0.015625)"/>
     </defs>
     <use xlink:href="#DejaVuSans-43"/>
     <use xlink:href="#DejaVuSans-6c" transform="translate(69.824219 0)"/>
     <use xlink:href="#DejaVuSans-61" transform="translate(97.607422 0)"/>
     <use xlink:href="#DejaVuSans-73" transform="translate(158.886719 0)"/>
     <use xlink:href="#DejaVuSans-73" transform="translate(210.986328 0)"/>
     <use xlink:href="#DejaVuSans-69" transform="translate(263.085938 0)"/>
     <use xlink:href="#DejaVuSans-66" transform="translate(290.869141 0)"/>
     <use xlink:href="#DejaVuSans-69" transform="translate(326.074219 0)"/>
     <use xlink:href="#DejaVuSans-61" transform="translate(353.857422 0)"/>
     <use xlink:href="#DejaVuSans-62" transform="translate(415.136719 0)"/>
     <use xlink:href="#DejaVuSans-6c" transform="translate(478.613281 0)"/>
     <use xlink:href="#DejaVuSans-65" transform="translate(506.396484 0)"/>
     <use xlink:href="#DejaVuSans-20" transform="translate(567.919922 0)"/>
     <use xlink:href="#DejaVuSans-65" transform="translate(599.707031 0)"/>
     <use xlink:href="#DejaVuSans-61" transform="translate(661.230469 0)"/>
     <use xlink:href="#DejaVuSans-72" transform="translate(722.509766 0)"/>
     <use xlink:href="#DejaVuSans-6c" transform="translate(763.623047 0)"/>
     <use xlink:href="#DejaVuSans-79" transform="translate(791.40625 0)"/>
     <use xlink:href="#DejaVuSans-20" transform="translate(850.585938 0)"/>
     <use xlink:href="#DejaVuSans-49" transform="translate(882.373047 0)"/>
     <use xlink:href="#DejaVuSans-43" transform="translate(911.865234 0)"/>
     <use xlink:href="#DejaVuSans-55" transform="translate(981.689453 0)"/>
     <use xlink:href="#DejaVuSans-20" transform="translate(1054.882812 0)"/>
     <use xlink:href="#DejaVuSans-64" transform="translate(1086.669922 0)"/>
     <use xlink:href="#DejaVuSans-65" transform="translate(1150.146484 0)"/>
     <use xlink:href="#DejaVuSans-6c" transform="translate(1211.669922 0)"/>
     <use xlink:href="#DejaVuSans-69" transform="translate(1239.453125 0)"/>
     <use xlink:href="#DejaVuSans-72" transform="translate(1267.236328 0)"/>
     <use xlink:href="#DejaVuSans-69" transform="translate(1308.349609 0)"/>
     <use xlink:href="#DejaVuSans-75" transform="translate(1336.132812 0)"/>
     <use xlink:href="#DejaVuSans-6d" transform="translate(1399.511719 0)"/>
     <use xlink:href="#DejaVuSans-20" transform="translate(1496.923828 0)"/>
     <use xlink:href="#DejaVuSans-73" transform="translate(1528.710938 0)"/>
     <use xlink:href="#DejaVuSans-74" transform="translate(1580.810547 0)"/>
     <use xlink:href="#DejaVuSans-61" transform="translate(1620.019531 0)"/>
     <use xlink:href="#DejaVuSans-74" transform="translate(1681.298828 0)"/>
     <use xlink:href="#DejaVuSans-75" transform="translate(1720.507812 0)"/>
     <use xlink:href="#DejaVuSans-73" transform="translate(1783.886719 0)"/>
     <use xlink:href="#DejaVuSans-20" transform="translate(1835.986328 0)"/>
     <use xlink:href="#DejaVuSans-28" transform="translate(1867.773438 0)"/>
     <use xlink:href="#DejaVuSans-37" transform="translate(1906.787109 0)"/>
     <use xlink:href="#DejaVuSans-32" transform="translate(1970.410156 0)"/>
     <use xlink:href="#DejaVuSans-20" transform="translate(2034.033203 0)"/>
     <use xlink:href="#DejaVuSans-68" transform="translate(2065.820312 0)"/>
     <use xlink:href="#DejaVuSans-29" transform="translate(2129.199219 0)"/>
    </g>
    <!-- n = 29,458 -->
    <g transform="translate(272.117969 120.824981) scale(0.1 -0.1)">
     <defs>
      <path id="DejaVuSans-39" d="M 703 97 
L 703 672 
Q 941 559 1184 500 
Q 1428 441 1663 441 
Q 2288 441 2617 861 
Q 2947 1281 2994 2138 
Q 2813 1869 2534 1725 
Q 2256 1581 1919 1581 
Q 1219 1581 811 2004 
Q 403 2428 403 3163 
Q 403 3881 828 4315 
Q 1253 4750 1959 4750 
Q 2769 4750 3195 4129 
Q 3622 3509 3622 2328 
Q 3622 1225 3098 567 
Q 2575 -91 1691 -91 
Q 1453 -91 1209 -44 
Q 966 3 703 97 
z
M 1959 2075 
Q 2384 2075 2632 2365 
Q 2881 2656 2881 3163 
Q 2881 3666 2632 3958 
Q 2384 4250 1959 4250 
Q 1534 4250 1286 3958 
Q 1038 3666 1038 3163 
Q 1038 2656 1286 2365 
Q 1534 2075 1959 2075 
z
" transform="scale(0.015625)"/>
      <path id="DejaVuSans-35" d="M 691 4666 
L 3169 4666 
L 3169 4134 
L 1269 4134 
L 1269 2991 
Q 1406 3038 1543 3061 
Q 1681 3084 1819 3084 
Q 2600 3084 3056 2656 
Q 3513 2228 3513 1497 
Q 3513 744 3044 326 
Q 2575 -91 1722 -91 
Q 1428 -91 1123 -41 
Q 819 9 494 109 
L 494 744 
Q 775 591 1075 516 
Q 1375 441 1709 441 
Q 2250 441 2565 725 
Q 2881 1009 2881 1497 
Q 2881 1984 2565 2268 
Q 2250 2553 1709 2553 
Q 1456 2553 1204 2497 
Q 953 2441 691 2322 
L 691 4666 
z
" transform="scale(0.015625)"/>
      <path id="DejaVuSans-38" d="M 2034 2216 
Q 1584 2216 1326 1975 
Q 1069 1734 1069 1313 
Q 1069 891 1326 650 
Q 1584 409 2034 409 
Q 2484 409 2743 651 
Q 3003 894 3003 1313 
Q 3003 1734 2745 1975 
Q 2488 2216 2034 2216 
z
M 1403 2484 
Q 997 2584 770 2862 
Q 544 3141 544 3541 
Q 544 4100 942 4425 
Q 1341 4750 2034 4750 
Q 2731 4750 3128 4425 
Q 3525 4100 3525 3541 
Q 3525 3141 3298 2862 
Q 3072 2584 2669 2484 
Q 3125 2378 3379 2068 
Q 3634 1759 3634 1313 
Q 3634 634 3220 271 
Q 2806 -91 2034 -91 
Q 1263 -91 848 271 
Q 434 634 434 1313 
Q 434 1759 690 2068 
Q 947 2378 1403 2484 
z
M 1172 3481 
Q 1172 3119 1398 2916 
Q 1625 2713 2034 2713 
Q 2441 2713 2670 2916 
Q 2900 3119 2900 3481 
Q 2900 3844 2670 4047 
Q 2441 4250 2034 4250 
Q 1625 4250 1398 4047 
Q 1172 3844 1172 3481 
z
" transform="scale(0.015625)"/>
     </defs>
     <use xlink:href="#DejaVuSans-6e"/>
     <use xlink:href="#DejaVuSans-20" transform="translate(63.378906 0)"/>
     <use xlink:href="#DejaVuSans-3d" transform="translate(95.166016 0)"/>
     <use xlink:href="#DejaVuSans-20" transform="translate(178.955078 0)"/>
     <use xlink:href="#DejaVuSans-32" transform="translate(210.742188 0)"/>
     <use xlink:href="#DejaVuSans-39" transform="translate(274.365234 0)"/>
     <use xlink:href="#DejaVuSans-2c" transform="translate(337.988281 0)"/>
     <use xlink:href="#DejaVuSans-34" transform="translate(369.775391 0)"/>
     <use xlink:href="#DejaVuSans-35" transform="translate(433.398438 0)"/>
     <use xlink:href="#DejaVuSans-38" transform="translate(497.021484 0)"/>
    </g>
   </g>
   <g id="text_3">
    <!-- Unclassifiable -->
    <g transform="translate(475.645922 109.911122) scale(0.09 -0.09)">
     <use xlink:href="#DejaVuSans-55"/>
     <use xlink:href="#DejaVuSans-6e" transform="translate(73.193359 0)"/>
     <use xlink:href="#DejaVuSans-63" transform="translate(136.572266 0)"/>
     <use xlink:href="#DejaVuSans-6c" transform="translate(191.552734 0)"/>
     <use xlink:href="#DejaVuSans-61" transform="translate(219.335938 0)"/>
     <use xlink:href="#DejaVuSans-73" transform="translate(280.615234 0)"/>
     <use xlink:href="#DejaVuSans-73" transform="translate(332.714844 0)"/>
     <use xlink:href="#DejaVuSans-69" transform="translate(384.814453 0)"/>
     <use xlink:href="#DejaVuSans-66" transform="translate(412.597656 0)"/>
     <use xlink:href="#DejaVuSans-69" transform="translate(447.802734 0)"/>
     <use xlink:href="#DejaVuSans-61" transform="translate(475.585938 0)"/>
     <use xlink:href="#DejaVuSans-62" transform="translate(536.865234 0)"/>
     <use xlink:href="#DejaVuSans-6c" transform="translate(600.341797 0)"/>
     <use xlink:href="#DejaVuSans-65" transform="translate(628.125 0)"/>
    </g>
    <!-- n = 16,858 -->
    <g transform="translate(481.450922 119.989153) scale(0.09 -0.09)">
     <use xlink:href="#DejaVuSans-6e"/>
     <use xlink:href="#DejaVuSans-20" transform="translate(63.378906 0)"/>
     <use xlink:href="#DejaVuSans-3d" transform="translate(95.166016 0)"/>
     <use xlink:href="#DejaVuSans-20" transform="translate(178.955078 0)"/>
     <use xlink:href="#DejaVuSans-31" transform="translate(210.742188 0)"/>
     <use xlink:href="#DejaVuSans-36" transform="translate(274.365234 0)"/>
     <use xlink:href="#DejaVuSans-2c" transform="translate(337.988281 0)"/>
     <use xlink:href="#DejaVuSans-38" transform="translate(369.775391 0)"/>
     <use xlink:href="#DejaVuSans-35" transform="translate(433.398438 0)"/>
     <use xlink:href="#DejaVuSans-38" transform="translate(497.021484 0)"/>
    </g>
   </g>
   <g id="text_4">
    <!-- G1 -->
    <g transform="translate(78.481828 174.691856) scale(0.09 -0.09)">
     <defs>
      <path id="DejaVuSans-47" d="M 3809 666 
L 3809 1919 
L 2778 1919 
L 2778 2438 
L 4434 2438 
L 4434 434 
Q 4069 175 3628 42 
Q 3188 -91 2688 -91 
Q 1594 -91 976 548 
Q 359 1188 359 2328 
Q 359 3472 976 4111 
Q 1594 4750 2688 4750 
Q 3144 4750 3555 4637 
Q 3966 4525 4313 4306 
L 4313 3634 
Q 3963 3931 3569 4081 
Q 3175 4231 2741 4231 
Q 1884 4231 1454 3753 
Q 1025 3275 1025 2328 
Q 1025 1384 1454 906 
Q 1884 428 2741 428 
Q 3075 428 3337 486 
Q 3600 544 3809 666 
z
" transform="scale(0.015625)"/>
     </defs>
     <use xlink:href="#DejaVuSans-47"/>
     <use xlink:href="#DejaVuSans-31" transform="translate(77.490234 0)"/>
    </g>
    <!-- No psych / no delirium -->
    <g transform="translate(34.218 184.769888) scale(0.09 -0.09)">
     <defs>
      <path id="DejaVuSans-4e" d="M 628 4666 
L 1478 4666 
L 3547 763 
L 3547 4666 
L 4159 4666 
L 4159 0 
L 3309 0 
L 1241 3903 
L 1241 0 
L 628 0 
L 628 4666 
z
" transform="scale(0.015625)"/>
      <path id="DejaVuSans-70" d="M 1159 525 
L 1159 -1331 
L 581 -1331 
L 581 3500 
L 1159 3500 
L 1159 2969 
Q 1341 3281 1617 3432 
Q 1894 3584 2278 3584 
Q 2916 3584 3314 3078 
Q 3713 2572 3713 1747 
Q 3713 922 3314 415 
Q 2916 -91 2278 -91 
Q 1894 -91 1617 61 
Q 1341 213 1159 525 
z
M 3116 1747 
Q 3116 2381 2855 2742 
Q 2594 3103 2138 3103 
Q 1681 3103 1420 2742 
Q 1159 2381 1159 1747 
Q 1159 1113 1420 752 
Q 1681 391 2138 391 
Q 2594 391 2855 752 
Q 3116 1113 3116 1747 
z
" transform="scale(0.015625)"/>
      <path id="DejaVuSans-2f" d="M 1625 4666 
L 2156 4666 
L 531 -594 
L 0 -594 
L 1625 4666 
z
" transform="scale(0.015625)"/>
     </defs>
     <use xlink:href="#DejaVuSans-4e"/>
     <use xlink:href="#DejaVuSans-6f" transform="translate(74.804688 0)"/>
     <use xlink:href="#DejaVuSans-20" transform="translate(135.986328 0)"/>
     <use xlink:href="#DejaVuSans-70" transform="translate(167.773438 0)"/>
     <use xlink:href="#DejaVuSans-73" transform="translate(231.25 0)"/>
     <use xlink:href="#DejaVuSans-79" transform="translate(283.349609 0)"/>
     <use xlink:href="#DejaVuSans-63" transform="translate(342.529297 0)"/>
     <use xlink:href="#DejaVuSans-68" transform="translate(397.509766 0)"/>
     <use xlink:href="#DejaVuSans-20" transform="translate(460.888672 0)"/>
     <use xlink:href="#DejaVuSans-2f" transform="translate(492.675781 0)"/>
     <use xlink:href="#DejaVuSans-20" transform="translate(526.367188 0)"/>
     <use xlink:href="#DejaVuSans-6e" transform="translate(558.154297 0)"/>
     <use xlink:href="#DejaVuSans-6f" transform="translate(621.533203 0)"/>
     <use xlink:href="#DejaVuSans-20" transform="translate(682.714844 0)"/>
     <use xlink:href="#DejaVuSans-64" transform="translate(714.501953 0)"/>
     <use xlink:href="#DejaVuSans-65" transform="translate(777.978516 0)"/>
     <use xlink:href="#DejaVuSans-6c" transform="translate(839.501953 0)"/>
     <use xlink:href="#DejaVuSans-69" transform="translate(867.285156 0)"/>
     <use xlink:href="#DejaVuSans-72" transform="translate(895.068359 0)"/>
     <use xlink:href="#DejaVuSans-69" transform="translate(936.181641 0)"/>
     <use xlink:href="#DejaVuSans-75" transform="translate(963.964844 0)"/>
     <use xlink:href="#DejaVuSans-6d" transform="translate(1027.34375 0)"/>
    </g>
    <!-- n = 13,909 -->
    <g transform="translate(59.602922 194.847919) scale(0.09 -0.09)">
     <defs>
      <path id="DejaVuSans-30" d="M 2034 4250 
Q 1547 4250 1301 3770 
Q 1056 3291 1056 2328 
Q 1056 1369 1301 889 
Q 1547 409 2034 409 
Q 2525 409 2770 889 
Q 3016 1369 3016 2328 
Q 3016 3291 2770 3770 
Q 2525 4250 2034 4250 
z
M 2034 4750 
Q 2819 4750 3233 4129 
Q 3647 3509 3647 2328 
Q 3647 1150 3233 529 
Q 2819 -91 2034 -91 
Q 1250 -91 836 529 
Q 422 1150 422 2328 
Q 422 3509 836 4129 
Q 1250 4750 2034 4750 
z
" transform="scale(0.015625)"/>
     </defs>
     <use xlink:href="#DejaVuSans-6e"/>
     <use xlink:href="#DejaVuSans-20" transform="translate(63.378906 0)"/>
     <use xlink:href="#DejaVuSans-3d" transform="translate(95.166016 0)"/>
     <use xlink:href="#DejaVuSans-20" transform="translate(178.955078 0)"/>
     <use xlink:href="#DejaVuSans-31" transform="translate(210.742188 0)"/>
     <use xlink:href="#DejaVuSans-33" transform="translate(274.365234 0)"/>
     <use xlink:href="#DejaVuSans-2c" transform="translate(337.988281 0)"/>
     <use xlink:href="#DejaVuSans-39" transform="translate(369.775391 0)"/>
     <use xlink:href="#DejaVuSans-30" transform="translate(433.398438 0)"/>
     <use xlink:href="#DejaVuSans-39" transform="translate(497.021484 0)"/>
    </g>
   </g>
   <g id="text_5">
    <!-- G2 -->
    <g transform="translate(222.027328 174.691856) scale(0.09 -0.09)">
     <use xlink:href="#DejaVuSans-47"/>
     <use xlink:href="#DejaVuSans-32" transform="translate(77.490234 0)"/>
    </g>
    <!-- Psych / no delirium -->
    <g transform="translate(185.535844 184.769888) scale(0.09 -0.09)">
     <defs>
      <path id="DejaVuSans-50" d="M 1259 4147 
L 1259 2394 
L 2053 2394 
Q 2494 2394 2734 2622 
Q 2975 2850 2975 3272 
Q 2975 3691 2734 3919 
Q 2494 4147 2053 4147 
L 1259 4147 
z
M 628 4666 
L 2053 4666 
Q 2838 4666 3239 4311 
Q 3641 3956 3641 3272 
Q 3641 2581 3239 2228 
Q 2838 1875 2053 1875 
L 1259 1875 
L 1259 0 
L 628 0 
L 628 4666 
z
" transform="scale(0.015625)"/>
     </defs>
     <use xlink:href="#DejaVuSans-50"/>
     <use xlink:href="#DejaVuSans-73" transform="translate(58.552734 0)"/>
     <use xlink:href="#DejaVuSans-79" transform="translate(110.652344 0)"/>
     <use xlink:href="#DejaVuSans-63" transform="translate(169.832031 0)"/>
     <use xlink:href="#DejaVuSans-68" transform="translate(224.8125 0)"/>
     <use xlink:href="#DejaVuSans-20" transform="translate(288.191406 0)"/>
     <use xlink:href="#DejaVuSans-2f" transform="translate(319.978516 0)"/>
     <use xlink:href="#DejaVuSans-20" transform="translate(353.669922 0)"/>
     <use xlink:href="#DejaVuSans-6e" transform="translate(385.457031 0)"/>
     <use xlink:href="#DejaVuSans-6f" transform="translate(448.835938 0)"/>
     <use xlink:href="#DejaVuSans-20" transform="translate(510.017578 0)"/>
     <use xlink:href="#DejaVuSans-64" transform="translate(541.804688 0)"/>
     <use xlink:href="#DejaVuSans-65" transform="translate(605.28125 0)"/>
     <use xlink:href="#DejaVuSans-6c" transform="translate(666.804688 0)"/>
     <use xlink:href="#DejaVuSans-69" transform="translate(694.587891 0)"/>
     <use xlink:href="#DejaVuSans-72" transform="translate(722.371094 0)"/>
     <use xlink:href="#DejaVuSans-69" transform="translate(763.484375 0)"/>
     <use xlink:href="#DejaVuSans-75" transform="translate(791.267578 0)"/>
     <use xlink:href="#DejaVuSans-6d" transform="translate(854.646484 0)"/>
    </g>
    <!-- n = 5,987 -->
    <g transform="translate(206.011547 194.847919) scale(0.09 -0.09)">
     <use xlink:href="#DejaVuSans-6e"/>
     <use xlink:href="#DejaVuSans-20" transform="translate(63.378906 0)"/>
     <use xlink:href="#DejaVuSans-3d" transform="translate(95.166016 0)"/>
     <use xlink:href="#DejaVuSans-20" transform="translate(178.955078 0)"/>
     <use xlink:href="#DejaVuSans-35" transform="translate(210.742188 0)"/>
     <use xlink:href="#DejaVuSans-2c" transform="translate(274.365234 0)"/>
     <use xlink:href="#DejaVuSans-39" transform="translate(306.152344 0)"/>
     <use xlink:href="#DejaVuSans-38" transform="translate(369.775391 0)"/>
     <use xlink:href="#DejaVuSans-37" transform="translate(433.398438 0)"/>
    </g>
   </g>
   <g id="text_6">
    <!-- G3 -->
    <g transform="translate(365.572828 174.691856) scale(0.09 -0.09)">
     <use xlink:href="#DejaVuSans-47"/>
     <use xlink:href="#DejaVuSans-33" transform="translate(77.490234 0)"/>
    </g>
    <!-- No psych / delirium -->
    <g transform="translate(328.344469 184.769888) scale(0.09 -0.09)">
     <use xlink:href="#DejaVuSans-4e"/>
     <use xlink:href="#DejaVuSans-6f" transform="translate(74.804688 0)"/>
     <use xlink:href="#DejaVuSans-20" transform="translate(135.986328 0)"/>
     <use xlink:href="#DejaVuSans-70" transform="translate(167.773438 0)"/>
     <use xlink:href="#DejaVuSans-73" transform="translate(231.25 0)"/>
     <use xlink:href="#DejaVuSans-79" transform="translate(283.349609 0)"/>
     <use xlink:href="#DejaVuSans-63" transform="translate(342.529297 0)"/>
     <use xlink:href="#DejaVuSans-68" transform="translate(397.509766 0)"/>
     <use xlink:href="#DejaVuSans-20" transform="translate(460.888672 0)"/>
     <use xlink:href="#DejaVuSans-2f" transform="translate(492.675781 0)"/>
     <use xlink:href="#DejaVuSans-20" transform="translate(526.367188 0)"/>
     <use xlink:href="#DejaVuSans-64" transform="translate(558.154297 0)"/>
     <use xlink:href="#DejaVuSans-65" transform="translate(621.630859 0)"/>
     <use xlink:href="#DejaVuSans-6c" transform="translate(683.154297 0)"/>
     <use xlink:href="#DejaVuSans-69" transform="translate(710.9375 0)"/>
     <use xlink:href="#DejaVuSans-72" transform="translate(738.720703 0)"/>
     <use xlink:href="#DejaVuSans-69" transform="translate(779.833984 0)"/>
     <use xlink:href="#DejaVuSans-75" transform="translate(807.617188 0)"/>
     <use xlink:href="#DejaVuSans-6d" transform="translate(870.996094 0)"/>
    </g>
    <!-- n = 6,067 -->
    <g transform="translate(349.557047 194.847919) scale(0.09 -0.09)">
     <use xlink:href="#DejaVuSans-6e"/>
     <use xlink:href="#DejaVuSans-20" transform="translate(63.378906 0)"/>
     <use xlink:href="#DejaVuSans-3d" transform="translate(95.166016 0)"/>
     <use xlink:href="#DejaVuSans-20" transform="translate(178.955078 0)"/>
     <use xlink:href="#DejaVuSans-36" transform="translate(210.742188 0)"/>
     <use xlink:href="#DejaVuSans-2c" transform="translate(274.365234 0)"/>
     <use xlink:href="#DejaVuSans-30" transform="translate(306.152344 0)"/>
     <use xlink:href="#DejaVuSans-36" transform="translate(369.775391 0)"/>
     <use xlink:href="#DejaVuSans-37" transform="translate(433.398438 0)"/>
    </g>
   </g>
   <g id="text_7">
    <!-- G4 -->
    <g transform="translate(509.118328 174.691856) scale(0.09 -0.09)">
     <use xlink:href="#DejaVuSans-47"/>
     <use xlink:href="#DejaVuSans-34" transform="translate(77.490234 0)"/>
    </g>
    <!-- Psych / delirium -->
    <g transform="translate(479.662312 184.769888) scale(0.09 -0.09)">
     <use xlink:href="#DejaVuSans-50"/>
     <use xlink:href="#DejaVuSans-73" transform="translate(58.552734 0)"/>
     <use xlink:href="#DejaVuSans-79" transform="translate(110.652344 0)"/>
     <use xlink:href="#DejaVuSans-63" transform="translate(169.832031 0)"/>
     <use xlink:href="#DejaVuSans-68" transform="translate(224.8125 0)"/>
     <use xlink:href="#DejaVuSans-20" transform="translate(288.191406 0)"/>
     <use xlink:href="#DejaVuSans-2f" transform="translate(319.978516 0)"/>
     <use xlink:href="#DejaVuSans-20" transform="translate(353.669922 0)"/>
     <use xlink:href="#DejaVuSans-64" transform="translate(385.457031 0)"/>
     <use xlink:href="#DejaVuSans-65" transform="translate(448.933594 0)"/>
     <use xlink:href="#DejaVuSans-6c" transform="translate(510.457031 0)"/>
     <use xlink:href="#DejaVuSans-69" transform="translate(538.240234 0)"/>
     <use xlink:href="#DejaVuSans-72" transform="translate(566.023438 0)"/>
     <use xlink:href="#DejaVuSans-69" transform="translate(607.136719 0)"/>
     <use xlink:href="#DejaVuSans-75" transform="translate(634.919922 0)"/>
     <use xlink:href="#DejaVuSans-6d" transform="translate(698.298828 0)"/>
    </g>
    <!-- n = 3,495 -->
    <g transform="translate(493.102547 194.847919) scale(0.09 -0.09)">
     <use xlink:href="#DejaVuSans-6e"/>
     <use xlink:href="#DejaVuSans-20" transform="translate(63.378906 0)"/>
     <use xlink:href="#DejaVuSans-3d" transform="translate(95.166016 0)"/>
     <use xlink:href="#DejaVuSans-20" transform="translate(178.955078 0)"/>
     <use xlink:href="#DejaVuSans-33" transform="translate(210.742188 0)"/>
     <use xlink:href="#DejaVuSans-2c" transform="translate(274.365234 0)"/>
     <use xlink:href="#DejaVuSans-34" transform="translate(306.152344 0)"/>
     <use xlink:href="#DejaVuSans-39" transform="translate(369.775391 0)"/>
     <use xlink:href="#DejaVuSans-35" transform="translate(433.398438 0)"/>
    </g>
   </g>
   <g id="text_8">
    <!-- Primary mortality model -->
    <g transform="translate(100.441547 264.920456) scale(0.09 -0.09)">
     <use xlink:href="#DejaVuSans-50"/>
     <use xlink:href="#DejaVuSans-72" transform="translate(58.552734 0)"/>
     <use xlink:href="#DejaVuSans-69" transform="translate(99.666016 0)"/>
     <use xlink:href="#DejaVuSans-6d" transform="translate(127.449219 0)"/>
     <use xlink:href="#DejaVuSans-61" transform="translate(224.861328 0)"/>
     <use xlink:href="#DejaVuSans-72" transform="translate(286.140625 0)"/>
     <use xlink:href="#DejaVuSans-79" transform="translate(327.253906 0)"/>
     <use xlink:href="#DejaVuSans-20" transform="translate(386.433594 0)"/>
     <use xlink:href="#DejaVuSans-6d" transform="translate(418.220703 0)"/>
     <use xlink:href="#DejaVuSans-6f" transform="translate(515.632812 0)"/>
     <use xlink:href="#DejaVuSans-72" transform="translate(576.814453 0)"/>
     <use xlink:href="#DejaVuSans-74" transform="translate(617.927734 0)"/>
     <use xlink:href="#DejaVuSans-61" transform="translate(657.136719 0)"/>
     <use xlink:href="#DejaVuSans-6c" transform="translate(718.416016 0)"/>
     <use xlink:href="#DejaVuSans-69" transform="translate(746.199219 0)"/>
     <use xlink:href="#DejaVuSans-74" transform="translate(773.982422 0)"/>
     <use xlink:href="#DejaVuSans-79" transform="translate(813.191406 0)"/>
     <use xlink:href="#DejaVuSans-20" transform="translate(872.371094 0)"/>
     <use xlink:href="#DejaVuSans-6d" transform="translate(904.158203 0)"/>
     <use xlink:href="#DejaVuSans-6f" transform="translate(1001.570312 0)"/>
     <use xlink:href="#DejaVuSans-64" transform="translate(1062.751953 0)"/>
     <use xlink:href="#DejaVuSans-65" transform="translate(1126.228516 0)"/>
     <use xlink:href="#DejaVuSans-6c" transform="translate(1187.751953 0)"/>
    </g>
    <!-- Excluded 89 same-day deaths and 3 implausible death dates -->
    <g transform="translate(17.345531 274.998488) scale(0.09 -0.09)">
     <defs>
      <path id="DejaVuSans-45" d="M 628 4666 
L 3578 4666 
L 3578 4134 
L 1259 4134 
L 1259 2753 
L 3481 2753 
L 3481 2222 
L 1259 2222 
L 1259 531 
L 3634 531 
L 3634 0 
L 628 0 
L 628 4666 
z
" transform="scale(0.015625)"/>
      <path id="DejaVuSans-78" d="M 3513 3500 
L 2247 1797 
L 3578 0 
L 2900 0 
L 1881 1375 
L 863 0 
L 184 0 
L 1544 1831 
L 300 3500 
L 978 3500 
L 1906 2253 
L 2834 3500 
L 3513 3500 
z
" transform="scale(0.015625)"/>
     </defs>
     <use xlink:href="#DejaVuSans-45"/>
     <use xlink:href="#DejaVuSans-78" transform="translate(63.183594 0)"/>
     <use xlink:href="#DejaVuSans-63" transform="translate(120.613281 0)"/>
     <use xlink:href="#DejaVuSans-6c" transform="translate(175.59375 0)"/>
     <use xlink:href="#DejaVuSans-75" transform="translate(203.376953 0)"/>
     <use xlink:href="#DejaVuSans-64" transform="translate(266.755859 0)"/>
     <use xlink:href="#DejaVuSans-65" transform="translate(330.232422 0)"/>
     <use xlink:href="#DejaVuSans-64" transform="translate(391.755859 0)"/>
     <use xlink:href="#DejaVuSans-20" transform="translate(455.232422 0)"/>
     <use xlink:href="#DejaVuSans-38" transform="translate(487.019531 0)"/>
     <use xlink:href="#DejaVuSans-39" transform="translate(550.642578 0)"/>
     <use xlink:href="#DejaVuSans-20" transform="translate(614.265625 0)"/>
     <use xlink:href="#DejaVuSans-73" transform="translate(646.052734 0)"/>
     <use xlink:href="#DejaVuSans-61" transform="translate(698.152344 0)"/>
     <use xlink:href="#DejaVuSans-6d" transform="translate(759.431641 0)"/>
     <use xlink:href="#DejaVuSans-65" transform="translate(856.84375 0)"/>
     <use xlink:href="#DejaVuSans-2d" transform="translate(918.367188 0)"/>
     <use xlink:href="#DejaVuSans-64" transform="translate(954.451172 0)"/>
     <use xlink:href="#DejaVuSans-61" transform="translate(1017.927734 0)"/>
     <use xlink:href="#DejaVuSans-79" transform="translate(1079.207031 0)"/>
     <use xlink:href="#DejaVuSans-20" transform="translate(1138.386719 0)"/>
     <use xlink:href="#DejaVuSans-64" transform="translate(1170.173828 0)"/>
     <use xlink:href="#DejaVuSans-65" transform="translate(1233.650391 0)"/>
     <use xlink:href="#DejaVuSans-61" transform="translate(1295.173828 0)"/>
     <use xlink:href="#DejaVuSans-74" transform="translate(1356.453125 0)"/>
     <use xlink:href="#DejaVuSans-68" transform="translate(1395.662109 0)"/>
     <use xlink:href="#DejaVuSans-73" transform="translate(1459.041016 0)"/>
     <use xlink:href="#DejaVuSans-20" transform="translate(1511.140625 0)"/>
     <use xlink:href="#DejaVuSans-61" transform="translate(1542.927734 0)"/>
     <use xlink:href="#DejaVuSans-6e" transform="translate(1604.207031 0)"/>
     <use xlink:href="#DejaVuSans-64" transform="translate(1667.585938 0)"/>
     <use xlink:href="#DejaVuSans-20" transform="translate(1731.0625 0)"/>
     <use xlink:href="#DejaVuSans-33" transform="translate(1762.849609 0)"/>
     <use xlink:href="#DejaVuSans-20" transform="translate(1826.472656 0)"/>
     <use xlink:href="#DejaVuSans-69" transform="translate(1858.259766 0)"/>
     <use xlink:href="#DejaVuSans-6d" transform="translate(1886.042969 0)"/>
     <use xlink:href="#DejaVuSans-70" transform="translate(1983.455078 0)"/>
     <use xlink:href="#DejaVuSans-6c" transform="translate(2046.931641 0)"/>
     <use xlink:href="#DejaVuSans-61" transform="translate(2074.714844 0)"/>
     <use xlink:href="#DejaVuSans-75" transform="translate(2135.994141 0)"/>
     <use xlink:href="#DejaVuSans-73" transform="translate(2199.373047 0)"/>
     <use xlink:href="#DejaVuSans-69" transform="translate(2251.472656 0)"/>
     <use xlink:href="#DejaVuSans-62" transform="translate(2279.255859 0)"/>
     <use xlink:href="#DejaVuSans-6c" transform="translate(2342.732422 0)"/>
     <use xlink:href="#DejaVuSans-65" transform="translate(2370.515625 0)"/>
     <use xlink:href="#DejaVuSans-20" transform="translate(2432.039062 0)"/>
     <use xlink:href="#DejaVuSans-64" transform="translate(2463.826172 0)"/>
     <use xlink:href="#DejaVuSans-65" transform="translate(2527.302734 0)"/>
     <use xlink:href="#DejaVuSans-61" transform="translate(2588.826172 0)"/>
     <use xlink:href="#DejaVuSans-74" transform="translate(2650.105469 0)"/>
     <use xlink:href="#DejaVuSans-68" transform="translate(2689.314453 0)"/>
     <use xlink:href="#DejaVuSans-20" transform="translate(2752.693359 0)"/>
     <use xlink:href="#DejaVuSans-64" transform="translate(2784.480469 0)"/>
     <use xlink:href="#DejaVuSans-61" transform="translate(2847.957031 0)"/>
     <use xlink:href="#DejaVuSans-74" transform="translate(2909.236328 0)"/>
     <use xlink:href="#DejaVuSans-65" transform="translate(2948.445312 0)"/>
     <use xlink:href="#DejaVuSans-73" transform="translate(3009.96875 0)"/>
    </g>
    <!-- n = 29,366; deaths = 5,105 -->
    <g transform="translate(92.107406 285.076519) scale(0.09 -0.09)">
     <defs>
      <path id="DejaVuSans-3b" d="M 750 3309 
L 1409 3309 
L 1409 2516 
L 750 2516 
L 750 3309 
z
M 750 794 
L 1409 794 
L 1409 256 
L 897 -744 
L 494 -744 
L 750 256 
L 750 794 
z
" transform="scale(0.015625)"/>
     </defs>
     <use xlink:href="#DejaVuSans-6e"/>
     <use xlink:href="#DejaVuSans-20" transform="translate(63.378906 0)"/>
     <use xlink:href="#DejaVuSans-3d" transform="translate(95.166016 0)"/>
     <use xlink:href="#DejaVuSans-20" transform="translate(178.955078 0)"/>
     <use xlink:href="#DejaVuSans-32" transform="translate(210.742188 0)"/>
     <use xlink:href="#DejaVuSans-39" transform="translate(274.365234 0)"/>
     <use xlink:href="#DejaVuSans-2c" transform="translate(337.988281 0)"/>
     <use xlink:href="#DejaVuSans-33" transform="translate(369.775391 0)"/>
     <use xlink:href="#DejaVuSans-36" transform="translate(433.398438 0)"/>
     <use xlink:href="#DejaVuSans-36" transform="translate(497.021484 0)"/>
     <use xlink:href="#DejaVuSans-3b" transform="translate(560.644531 0)"/>
     <use xlink:href="#DejaVuSans-20" transform="translate(594.335938 0)"/>
     <use xlink:href="#DejaVuSans-64" transform="translate(626.123047 0)"/>
     <use xlink:href="#DejaVuSans-65" transform="translate(689.599609 0)"/>
     <use xlink:href="#DejaVuSans-61" transform="translate(751.123047 0)"/>
     <use xlink:href="#DejaVuSans-74" transform="translate(812.402344 0)"/>
     <use xlink:href="#DejaVuSans-68" transform="translate(851.611328 0)"/>
     <use xlink:href="#DejaVuSans-73" transform="translate(914.990234 0)"/>
     <use xlink:href="#DejaVuSans-20" transform="translate(967.089844 0)"/>
     <use xlink:href="#DejaVuSans-3d" transform="translate(998.876953 0)"/>
     <use xlink:href="#DejaVuSans-20" transform="translate(1082.666016 0)"/>
     <use xlink:href="#DejaVuSans-35" transform="translate(1114.453125 0)"/>
     <use xlink:href="#DejaVuSans-2c" transform="translate(1178.076172 0)"/>
     <use xlink:href="#DejaVuSans-31" transform="translate(1209.863281 0)"/>
     <use xlink:href="#DejaVuSans-30" transform="translate(1273.486328 0)"/>
     <use xlink:href="#DejaVuSans-35" transform="translate(1337.109375 0)"/>
    </g>
   </g>
   <g id="text_9">
    <!-- Conservative readmission cohort -->
    <g transform="translate(370.965094 259.881441) scale(0.09 -0.09)">
     <use xlink:href="#DejaVuSans-43"/>
     <use xlink:href="#DejaVuSans-6f" transform="translate(69.824219 0)"/>
     <use xlink:href="#DejaVuSans-6e" transform="translate(131.005859 0)"/>
     <use xlink:href="#DejaVuSans-73" transform="translate(194.384766 0)"/>
     <use xlink:href="#DejaVuSans-65" transform="translate(246.484375 0)"/>
     <use xlink:href="#DejaVuSans-72" transform="translate(308.007812 0)"/>
     <use xlink:href="#DejaVuSans-76" transform="translate(349.121094 0)"/>
     <use xlink:href="#DejaVuSans-61" transform="translate(408.300781 0)"/>
     <use xlink:href="#DejaVuSans-74" transform="translate(469.580078 0)"/>
     <use xlink:href="#DejaVuSans-69" transform="translate(508.789062 0)"/>
     <use xlink:href="#DejaVuSans-76" transform="translate(536.572266 0)"/>
     <use xlink:href="#DejaVuSans-65" transform="translate(595.751953 0)"/>
     <use xlink:href="#DejaVuSans-20" transform="translate(657.275391 0)"/>
     <use xlink:href="#DejaVuSans-72" transform="translate(689.0625 0)"/>
     <use xlink:href="#DejaVuSans-65" transform="translate(727.925781 0)"/>
     <use xlink:href="#DejaVuSans-61" transform="translate(789.449219 0)"/>
     <use xlink:href="#DejaVuSans-64" transform="translate(850.728516 0)"/>
     <use xlink:href="#DejaVuSans-6d" transform="translate(914.205078 0)"/>
     <use xlink:href="#DejaVuSans-69" transform="translate(1011.617188 0)"/>
     <use xlink:href="#DejaVuSans-73" transform="translate(1039.400391 0)"/>
     <use xlink:href="#DejaVuSans-73" transform="translate(1091.5 0)"/>
     <use xlink:href="#DejaVuSans-69" transform="translate(1143.599609 0)"/>
     <use xlink:href="#DejaVuSans-6f" transform="translate(1171.382812 0)"/>
     <use xlink:href="#DejaVuSans-6e" transform="translate(1232.564453 0)"/>
     <use xlink:href="#DejaVuSans-20" transform="translate(1295.943359 0)"/>
     <use xlink:href="#DejaVuSans-63" transform="translate(1327.730469 0)"/>
     <use xlink:href="#DejaVuSans-6f" transform="translate(1382.710938 0)"/>
     <use xlink:href="#DejaVuSans-68" transform="translate(1443.892578 0)"/>
     <use xlink:href="#DejaVuSans-6f" transform="translate(1507.271484 0)"/>
     <use xlink:href="#DejaVuSans-72" transform="translate(1568.453125 0)"/>
     <use xlink:href="#DejaVuSans-74" transform="translate(1609.566406 0)"/>
    </g>
    <!-- 90-day same-system readmissions = 6,321 -->
    <g transform="translate(347.359078 269.959472) scale(0.09 -0.09)">
     <use xlink:href="#DejaVuSans-39"/>
     <use xlink:href="#DejaVuSans-30" transform="translate(63.623047 0)"/>
     <use xlink:href="#DejaVuSans-2d" transform="translate(127.246094 0)"/>
     <use xlink:href="#DejaVuSans-64" transform="translate(163.330078 0)"/>
     <use xlink:href="#DejaVuSans-61" transform="translate(226.806641 0)"/>
     <use xlink:href="#DejaVuSans-79" transform="translate(288.085938 0)"/>
     <use xlink:href="#DejaVuSans-20" transform="translate(347.265625 0)"/>
     <use xlink:href="#DejaVuSans-73" transform="translate(379.052734 0)"/>
     <use xlink:href="#DejaVuSans-61" transform="translate(431.152344 0)"/>
     <use xlink:href="#DejaVuSans-6d" transform="translate(492.431641 0)"/>
     <use xlink:href="#DejaVuSans-65" transform="translate(589.84375 0)"/>
     <use xlink:href="#DejaVuSans-2d" transform="translate(651.367188 0)"/>
     <use xlink:href="#DejaVuSans-73" transform="translate(687.451172 0)"/>
     <use xlink:href="#DejaVuSans-79" transform="translate(739.550781 0)"/>
     <use xlink:href="#DejaVuSans-73" transform="translate(798.730469 0)"/>
     <use xlink:href="#DejaVuSans-74" transform="translate(850.830078 0)"/>
     <use xlink:href="#DejaVuSans-65" transform="translate(890.039062 0)"/>
     <use xlink:href="#DejaVuSans-6d" transform="translate(951.5625 0)"/>
     <use xlink:href="#DejaVuSans-20" transform="translate(1048.974609 0)"/>
     <use xlink:href="#DejaVuSans-72" transform="translate(1080.761719 0)"/>
     <use xlink:href="#DejaVuSans-65" transform="translate(1119.625 0)"/>
     <use xlink:href="#DejaVuSans-61" transform="translate(1181.148438 0)"/>
     <use xlink:href="#DejaVuSans-64" transform="translate(1242.427734 0)"/>
     <use xlink:href="#DejaVuSans-6d" transform="translate(1305.904297 0)"/>
     <use xlink:href="#DejaVuSans-69" transform="translate(1403.316406 0)"/>
     <use xlink:href="#DejaVuSans-73" transform="translate(1431.099609 0)"/>
     <use xlink:href="#DejaVuSans-73" transform="translate(1483.199219 0)"/>
     <use xlink:href="#DejaVuSans-69" transform="translate(1535.298828 0)"/>
     <use xlink:href="#DejaVuSans-6f" transform="translate(1563.082031 0)"/>
     <use xlink:href="#DejaVuSans-6e" transform="translate(1624.263672 0)"/>
     <use xlink:href="#DejaVuSans-73" transform="translate(1687.642578 0)"/>
     <use xlink:href="#DejaVuSans-20" transform="translate(1739.742188 0)"/>
     <use xlink:href="#DejaVuSans-3d" transform="translate(1771.529297 0)"/>
     <use xlink:href="#DejaVuSans-20" transform="translate(1855.318359 0)"/>
     <use xlink:href="#DejaVuSans-36" transform="translate(1887.105469 0)"/>
     <use xlink:href="#DejaVuSans-2c" transform="translate(1950.728516 0)"/>
     <use xlink:href="#DejaVuSans-33" transform="translate(1982.515625 0)"/>
     <use xlink:href="#DejaVuSans-32" transform="translate(2046.138672 0)"/>
     <use xlink:href="#DejaVuSans-31" transform="translate(2109.761719 0)"/>
    </g>
    <!-- 365-day same-system ICU readmissions = 3,228 -->
    <g transform="translate(335.302594 280.037503) scale(0.09 -0.09)">
     <use xlink:href="#DejaVuSans-33"/>
     <use xlink:href="#DejaVuSans-36" transform="translate(63.623047 0)"/>
     <use xlink:href="#DejaVuSans-35" transform="translate(127.246094 0)"/>
     <use xlink:href="#DejaVuSans-2d" transform="translate(190.869141 0)"/>
     <use xlink:href="#DejaVuSans-64" transform="translate(226.953125 0)"/>
     <use xlink:href="#DejaVuSans-61" transform="translate(290.429688 0)"/>
     <use xlink:href="#DejaVuSans-79" transform="translate(351.708984 0)"/>
     <use xlink:href="#DejaVuSans-20" transform="translate(410.888672 0)"/>
     <use xlink:href="#DejaVuSans-73" transform="translate(442.675781 0)"/>
     <use xlink:href="#DejaVuSans-61" transform="translate(494.775391 0)"/>
     <use xlink:href="#DejaVuSans-6d" transform="translate(556.054688 0)"/>
     <use xlink:href="#DejaVuSans-65" transform="translate(653.466797 0)"/>
     <use xlink:href="#DejaVuSans-2d" transform="translate(714.990234 0)"/>
     <use xlink:href="#DejaVuSans-73" transform="translate(751.074219 0)"/>
     <use xlink:href="#DejaVuSans-79" transform="translate(803.173828 0)"/>
     <use xlink:href="#DejaVuSans-73" transform="translate(862.353516 0)"/>
     <use xlink:href="#DejaVuSans-74" transform="translate(914.453125 0)"/>
     <use xlink:href="#DejaVuSans-65" transform="translate(953.662109 0)"/>
     <use xlink:href="#DejaVuSans-6d" transform="translate(1015.185547 0)"/>
     <use xlink:href="#DejaVuSans-20" transform="translate(1112.597656 0)"/>
     <use xlink:href="#DejaVuSans-49" transform="translate(1144.384766 0)"/>
     <use xlink:href="#DejaVuSans-43" transform="translate(1173.876953 0)"/>
     <use xlink:href="#DejaVuSans-55" transform="translate(1243.701172 0)"/>
     <use xlink:href="#DejaVuSans-20" transform="translate(1316.894531 0)"/>
     <use xlink:href="#DejaVuSans-72" transform="translate(1348.681641 0)"/>
     <use xlink:href="#DejaVuSans-65" transform="translate(1387.544922 0)"/>
     <use xlink:href="#DejaVuSans-61" transform="translate(1449.068359 0)"/>
     <use xlink:href="#DejaVuSans-64" transform="translate(1510.347656 0)"/>
     <use xlink:href="#DejaVuSans-6d" transform="translate(1573.824219 0)"/>
     <use xlink:href="#DejaVuSans-69" transform="translate(1671.236328 0)"/>
     <use xlink:href="#DejaVuSans-73" transform="translate(1699.019531 0)"/>
     <use xlink:href="#DejaVuSans-73" transform="translate(1751.119141 0)"/>
     <use xlink:href="#DejaVuSans-69" transform="translate(1803.21875 0)"/>
     <use xlink:href="#DejaVuSans-6f" transform="translate(1831.001953 0)"/>
     <use xlink:href="#DejaVuSans-6e" transform="translate(1892.183594 0)"/>
     <use xlink:href="#DejaVuSans-73" transform="translate(1955.5625 0)"/>
     <use xlink:href="#DejaVuSans-20" transform="translate(2007.662109 0)"/>
     <use xlink:href="#DejaVuSans-3d" transform="translate(2039.449219 0)"/>
     <use xlink:href="#DejaVuSans-20" transform="translate(2123.238281 0)"/>
     <use xlink:href="#DejaVuSans-33" transform="translate(2155.025391 0)"/>
     <use xlink:href="#DejaVuSans-2c" transform="translate(2218.648438 0)"/>
     <use xlink:href="#DejaVuSans-32" transform="translate(2250.435547 0)"/>
     <use xlink:href="#DejaVuSans-32" transform="translate(2314.058594 0)"/>
     <use xlink:href="#DejaVuSans-38" transform="translate(2377.681641 0)"/>
    </g>
    <!-- n = 24,033 -->
    <g transform="translate(419.931422 290.115534) scale(0.09 -0.09)">
     <use xlink:href="#DejaVuSans-6e"/>
     <use xlink:href="#DejaVuSans-20" transform="translate(63.378906 0)"/>
     <use xlink:href="#DejaVuSans-3d" transform="translate(95.166016 0)"/>
     <use xlink:href="#DejaVuSans-20" transform="translate(178.955078 0)"/>
     <use xlink:href="#DejaVuSans-32" transform="translate(210.742188 0)"/>
     <use xlink:href="#DejaVuSans-34" transform="translate(274.365234 0)"/>
     <use xlink:href="#DejaVuSans-2c" transform="translate(337.988281 0)"/>
     <use xlink:href="#DejaVuSans-30" transform="translate(369.775391 0)"/>
     <use xlink:href="#DejaVuSans-33" transform="translate(433.398438 0)"/>
     <use xlink:href="#DejaVuSans-33" transform="translate(497.021484 0)"/>
    </g>
   </g>
   <g id="text_10">
    <!-- Study cohort derivation -->
    <g transform="translate(219.749063 22.763025) scale(0.12 -0.12)">
     <defs>
      <path id="DejaVuSans-Bold-53" d="M 3834 4519 
L 3834 3531 
Q 3450 3703 3084 3790 
Q 2719 3878 2394 3878 
Q 1963 3878 1756 3759 
Q 1550 3641 1550 3391 
Q 1550 3203 1689 3098 
Q 1828 2994 2194 2919 
L 2706 2816 
Q 3484 2659 3812 2340 
Q 4141 2022 4141 1434 
Q 4141 663 3683 286 
Q 3225 -91 2284 -91 
Q 1841 -91 1394 -6 
Q 947 78 500 244 
L 500 1259 
Q 947 1022 1364 901 
Q 1781 781 2169 781 
Q 2563 781 2772 912 
Q 2981 1044 2981 1288 
Q 2981 1506 2839 1625 
Q 2697 1744 2272 1838 
L 1806 1941 
Q 1106 2091 782 2419 
Q 459 2747 459 3303 
Q 459 4000 909 4375 
Q 1359 4750 2203 4750 
Q 2588 4750 2994 4692 
Q 3400 4634 3834 4519 
z
" transform="scale(0.015625)"/>
      <path id="DejaVuSans-Bold-74" d="M 1759 4494 
L 1759 3500 
L 2913 3500 
L 2913 2700 
L 1759 2700 
L 1759 1216 
Q 1759 972 1856 886 
Q 1953 800 2241 800 
L 2816 800 
L 2816 0 
L 1856 0 
Q 1194 0 917 276 
Q 641 553 641 1216 
L 641 2700 
L 84 2700 
L 84 3500 
L 641 3500 
L 641 4494 
L 1759 4494 
z
" transform="scale(0.015625)"/>
      <path id="DejaVuSans-Bold-75" d="M 500 1363 
L 500 3500 
L 1625 3500 
L 1625 3150 
Q 1625 2866 1622 2436 
Q 1619 2006 1619 1863 
Q 1619 1441 1641 1255 
Q 1663 1069 1716 984 
Q 1784 875 1895 815 
Q 2006 756 2150 756 
Q 2500 756 2700 1025 
Q 2900 1294 2900 1772 
L 2900 3500 
L 4019 3500 
L 4019 0 
L 2900 0 
L 2900 506 
Q 2647 200 2364 54 
Q 2081 -91 1741 -91 
Q 1134 -91 817 281 
Q 500 653 500 1363 
z
" transform="scale(0.015625)"/>
      <path id="DejaVuSans-Bold-64" d="M 2919 2988 
L 2919 4863 
L 4044 4863 
L 4044 0 
L 2919 0 
L 2919 506 
Q 2688 197 2409 53 
Q 2131 -91 1766 -91 
Q 1119 -91 703 423 
Q 288 938 288 1747 
Q 288 2556 703 3070 
Q 1119 3584 1766 3584 
Q 2128 3584 2408 3439 
Q 2688 3294 2919 2988 
z
M 2181 722 
Q 2541 722 2730 984 
Q 2919 1247 2919 1747 
Q 2919 2247 2730 2509 
Q 2541 2772 2181 2772 
Q 1825 2772 1636 2509 
Q 1447 2247 1447 1747 
Q 1447 1247 1636 984 
Q 1825 722 2181 722 
z
" transform="scale(0.015625)"/>
      <path id="DejaVuSans-Bold-79" d="M 78 3500 
L 1197 3500 
L 2138 1125 
L 2938 3500 
L 4056 3500 
L 2584 -331 
Q 2363 -916 2067 -1148 
Q 1772 -1381 1288 -1381 
L 641 -1381 
L 641 -647 
L 991 -647 
Q 1275 -647 1404 -556 
Q 1534 -466 1606 -231 
L 1638 -134 
L 78 3500 
z
" transform="scale(0.015625)"/>
      <path id="DejaVuSans-Bold-20" transform="scale(0.015625)"/>
      <path id="DejaVuSans-Bold-63" d="M 3366 3391 
L 3366 2478 
Q 3138 2634 2908 2709 
Q 2678 2784 2431 2784 
Q 1963 2784 1702 2511 
Q 1441 2238 1441 1747 
Q 1441 1256 1702 982 
Q 1963 709 2431 709 
Q 2694 709 2930 787 
Q 3166 866 3366 1019 
L 3366 103 
Q 3103 6 2833 -42 
Q 2563 -91 2291 -91 
Q 1344 -91 809 395 
Q 275 881 275 1747 
Q 275 2613 809 3098 
Q 1344 3584 2291 3584 
Q 2566 3584 2833 3536 
Q 3100 3488 3366 3391 
z
" transform="scale(0.015625)"/>
      <path id="DejaVuSans-Bold-6f" d="M 2203 2784 
Q 1831 2784 1636 2517 
Q 1441 2250 1441 1747 
Q 1441 1244 1636 976 
Q 1831 709 2203 709 
Q 2569 709 2762 976 
Q 2956 1244 2956 1747 
Q 2956 2250 2762 2517 
Q 2569 2784 2203 2784 
z
M 2203 3584 
Q 3106 3584 3614 3096 
Q 4122 2609 4122 1747 
Q 4122 884 3614 396 
Q 3106 -91 2203 -91 
Q 1297 -91 786 396 
Q 275 884 275 1747 
Q 275 2609 786 3096 
Q 1297 3584 2203 3584 
z
" transform="scale(0.015625)"/>
      <path id="DejaVuSans-Bold-68" d="M 4056 2131 
L 4056 0 
L 2931 0 
L 2931 347 
L 2931 1625 
Q 2931 2084 2911 2256 
Q 2891 2428 2841 2509 
Q 2775 2619 2662 2680 
Q 2550 2741 2406 2741 
Q 2056 2741 1856 2470 
Q 1656 2200 1656 1722 
L 1656 0 
L 538 0 
L 538 4863 
L 1656 4863 
L 1656 2988 
Q 1909 3294 2193 3439 
Q 2478 3584 2822 3584 
Q 3428 3584 3742 3212 
Q 4056 2841 4056 2131 
z
" transform="scale(0.015625)"/>
      <path id="DejaVuSans-Bold-72" d="M 3138 2547 
Q 2991 2616 2845 2648 
Q 2700 2681 2553 2681 
Q 2122 2681 1889 2404 
Q 1656 2128 1656 1613 
L 1656 0 
L 538 0 
L 538 3500 
L 1656 3500 
L 1656 2925 
Q 1872 3269 2151 3426 
Q 2431 3584 2822 3584 
Q 2878 3584 2943 3579 
Q 3009 3575 3134 3559 
L 3138 2547 
z
" transform="scale(0.015625)"/>
      <path id="DejaVuSans-Bold-65" d="M 4031 1759 
L 4031 1441 
L 1416 1441 
Q 1456 1047 1700 850 
Q 1944 653 2381 653 
Q 2734 653 3104 758 
Q 3475 863 3866 1075 
L 3866 213 
Q 3469 63 3072 -14 
Q 2675 -91 2278 -91 
Q 1328 -91 801 392 
Q 275 875 275 1747 
Q 275 2603 792 3093 
Q 1309 3584 2216 3584 
Q 3041 3584 3536 3087 
Q 4031 2591 4031 1759 
z
M 2881 2131 
Q 2881 2450 2695 2645 
Q 2509 2841 2209 2841 
Q 1884 2841 1681 2658 
Q 1478 2475 1428 2131 
L 2881 2131 
z
" transform="scale(0.015625)"/>
      <path id="DejaVuSans-Bold-69" d="M 538 3500 
L 1656 3500 
L 1656 0 
L 538 0 
L 538 3500 
z
M 538 4863 
L 1656 4863 
L 1656 3950 
L 538 3950 
L 538 4863 
z
" transform="scale(0.015625)"/>
      <path id="DejaVuSans-Bold-76" d="M 97 3500 
L 1216 3500 
L 2088 1081 
L 2956 3500 
L 4078 3500 
L 2700 0 
L 1472 0 
L 97 3500 
z
" transform="scale(0.015625)"/>
      <path id="DejaVuSans-Bold-61" d="M 2106 1575 
Q 1756 1575 1579 1456 
Q 1403 1338 1403 1106 
Q 1403 894 1545 773 
Q 1688 653 1941 653 
Q 2256 653 2472 879 
Q 2688 1106 2688 1447 
L 2688 1575 
L 2106 1575 
z
M 3816 1997 
L 3816 0 
L 2688 0 
L 2688 519 
Q 2463 200 2181 54 
Q 1900 -91 1497 -91 
Q 953 -91 614 226 
Q 275 544 275 1050 
Q 275 1666 698 1953 
Q 1122 2241 2028 2241 
L 2688 2241 
L 2688 2328 
Q 2688 2594 2478 2717 
Q 2269 2841 1825 2841 
Q 1466 2841 1156 2769 
Q 847 2697 581 2553 
L 581 3406 
Q 941 3494 1303 3539 
Q 1666 3584 2028 3584 
Q 2975 3584 3395 3211 
Q 3816 2838 3816 1997 
z
" transform="scale(0.015625)"/>
      <path id="DejaVuSans-Bold-6e" d="M 4056 2131 
L 4056 0 
L 2931 0 
L 2931 347 
L 2931 1631 
Q 2931 2084 2911 2256 
Q 2891 2428 2841 2509 
Q 2775 2619 2662 2680 
Q 2550 2741 2406 2741 
Q 2056 2741 1856 2470 
Q 1656 2200 1656 1722 
L 1656 0 
L 538 0 
L 538 3500 
L 1656 3500 
L 1656 2988 
Q 1909 3294 2193 3439 
Q 2478 3584 2822 3584 
Q 3428 3584 3742 3212 
Q 4056 2841 4056 2131 
z
" transform="scale(0.015625)"/>
     </defs>
     <use xlink:href="#DejaVuSans-Bold-53"/>
     <use xlink:href="#DejaVuSans-Bold-74" transform="translate(72.021484 0)"/>
     <use xlink:href="#DejaVuSans-Bold-75" transform="translate(119.824219 0)"/>
     <use xlink:href="#DejaVuSans-Bold-64" transform="translate(191.015625 0)"/>
     <use xlink:href="#DejaVuSans-Bold-79" transform="translate(262.597656 0)"/>
     <use xlink:href="#DejaVuSans-Bold-20" transform="translate(327.783203 0)"/>
     <use xlink:href="#DejaVuSans-Bold-63" transform="translate(362.597656 0)"/>
     <use xlink:href="#DejaVuSans-Bold-6f" transform="translate(421.875 0)"/>
     <use xlink:href="#DejaVuSans-Bold-68" transform="translate(490.576172 0)"/>
     <use xlink:href="#DejaVuSans-Bold-6f" transform="translate(561.767578 0)"/>
     <use xlink:href="#DejaVuSans-Bold-72" transform="translate(630.46875 0)"/>
     <use xlink:href="#DejaVuSans-Bold-74" transform="translate(679.785156 0)"/>
     <use xlink:href="#DejaVuSans-Bold-20" transform="translate(727.587891 0)"/>
     <use xlink:href="#DejaVuSans-Bold-64" transform="translate(762.402344 0)"/>
     <use xlink:href="#DejaVuSans-Bold-65" transform="translate(833.984375 0)"/>
     <use xlink:href="#DejaVuSans-Bold-72" transform="translate(901.806641 0)"/>
     <use xlink:href="#DejaVuSans-Bold-69" transform="translate(951.123047 0)"/>
     <use xlink:href="#DejaVuSans-Bold-76" transform="translate(985.400391 0)"/>
     <use xlink:href="#DejaVuSans-Bold-61" transform="translate(1050.585938 0)"/>
     <use xlink:href="#DejaVuSans-Bold-74" transform="translate(1118.066406 0)"/>
     <use xlink:href="#DejaVuSans-Bold-69" transform="translate(1165.869141 0)"/>
     <use xlink:href="#DejaVuSans-Bold-6f" transform="translate(1200.146484 0)"/>
     <use xlink:href="#DejaVuSans-Bold-6e" transform="translate(1268.847656 0)"/>
    </g>
   </g>
   <g id="text_11">
    <!-- Psych = documented psychiatric comorbidity at or before the index hospitalization. -->
    <g transform="translate(132.75875 327.2967) scale(0.08 -0.08)">
     <defs>
      <path id="DejaVuSans-7a" d="M 353 3500 
L 3084 3500 
L 3084 2975 
L 922 459 
L 3084 459 
L 3084 0 
L 275 0 
L 275 525 
L 2438 3041 
L 353 3041 
L 353 3500 
z
" transform="scale(0.015625)"/>
      <path id="DejaVuSans-2e" d="M 684 794 
L 1344 794 
L 1344 0 
L 684 0 
L 684 794 
z
" transform="scale(0.015625)"/>
     </defs>
     <use xlink:href="#DejaVuSans-50"/>
     <use xlink:href="#DejaVuSans-73" transform="translate(58.552734 0)"/>
     <use xlink:href="#DejaVuSans-79" transform="translate(110.652344 0)"/>
     <use xlink:href="#DejaVuSans-63" transform="translate(169.832031 0)"/>
     <use xlink:href="#DejaVuSans-68" transform="translate(224.8125 0)"/>
     <use xlink:href="#DejaVuSans-20" transform="translate(288.191406 0)"/>
     <use xlink:href="#DejaVuSans-3d" transform="translate(319.978516 0)"/>
     <use xlink:href="#DejaVuSans-20" transform="translate(403.767578 0)"/>
     <use xlink:href="#DejaVuSans-64" transform="translate(435.554688 0)"/>
     <use xlink:href="#DejaVuSans-6f" transform="translate(499.03125 0)"/>
     <use xlink:href="#DejaVuSans-63" transform="translate(560.212891 0)"/>
     <use xlink:href="#DejaVuSans-75" transform="translate(615.193359 0)"/>
     <use xlink:href="#DejaVuSans-6d" transform="translate(678.572266 0)"/>
     <use xlink:href="#DejaVuSans-65" transform="translate(775.984375 0)"/>
     <use xlink:href="#DejaVuSans-6e" transform="translate(837.507812 0)"/>
     <use xlink:href="#DejaVuSans-74" transform="translate(900.886719 0)"/>
     <use xlink:href="#DejaVuSans-65" transform="translate(940.095703 0)"/>
     <use xlink:href="#DejaVuSans-64" transform="translate(1001.619141 0)"/>
     <use xlink:href="#DejaVuSans-20" transform="translate(1065.095703 0)"/>
     <use xlink:href="#DejaVuSans-70" transform="translate(1096.882812 0)"/>
     <use xlink:href="#DejaVuSans-73" transform="translate(1160.359375 0)"/>
     <use xlink:href="#DejaVuSans-79" transform="translate(1212.458984 0)"/>
     <use xlink:href="#DejaVuSans-63" transform="translate(1271.638672 0)"/>
     <use xlink:href="#DejaVuSans-68" transform="translate(1326.619141 0)"/>
     <use xlink:href="#DejaVuSans-69" transform="translate(1389.998047 0)"/>
     <use xlink:href="#DejaVuSans-61" transform="translate(1417.78125 0)"/>
     <use xlink:href="#DejaVuSans-74" transform="translate(1479.060547 0)"/>
     <use xlink:href="#DejaVuSans-72" transform="translate(1518.269531 0)"/>
     <use xlink:href="#DejaVuSans-69" transform="translate(1559.382812 0)"/>
     <use xlink:href="#DejaVuSans-63" transform="translate(1587.166016 0)"/>
     <use xlink:href="#DejaVuSans-20" transform="translate(1642.146484 0)"/>
     <use xlink:href="#DejaVuSans-63" transform="translate(1673.933594 0)"/>
     <use xlink:href="#DejaVuSans-6f" transform="translate(1728.914062 0)"/>
     <use xlink:href="#DejaVuSans-6d" transform="translate(1790.095703 0)"/>
     <use xlink:href="#DejaVuSans-6f" transform="translate(1887.507812 0)"/>
     <use xlink:href="#DejaVuSans-72" transform="translate(1948.689453 0)"/>
     <use xlink:href="#DejaVuSans-62" transform="translate(1989.802734 0)"/>
     <use xlink:href="#DejaVuSans-69" transform="translate(2053.279297 0)"/>
     <use xlink:href="#DejaVuSans-64" transform="translate(2081.0625 0)"/>
     <use xlink:href="#DejaVuSans-69" transform="translate(2144.539062 0)"/>
     <use xlink:href="#DejaVuSans-74" transform="translate(2172.322266 0)"/>
     <use xlink:href="#DejaVuSans-79" transform="translate(2211.53125 0)"/>
     <use xlink:href="#DejaVuSans-20" transform="translate(2270.710938 0)"/>
     <use xlink:href="#DejaVuSans-61" transform="translate(2302.498047 0)"/>
     <use xlink:href="#DejaVuSans-74" transform="translate(2363.777344 0)"/>
     <use xlink:href="#DejaVuSans-20" transform="translate(2402.986328 0)"/>
     <use xlink:href="#DejaVuSans-6f" transform="translate(2434.773438 0)"/>
     <use xlink:href="#DejaVuSans-72" transform="translate(2495.955078 0)"/>
     <use xlink:href="#DejaVuSans-20" transform="translate(2537.068359 0)"/>
     <use xlink:href="#DejaVuSans-62" transform="translate(2568.855469 0)"/>
     <use xlink:href="#DejaVuSans-65" transform="translate(2632.332031 0)"/>
     <use xlink:href="#DejaVuSans-66" transform="translate(2693.855469 0)"/>
     <use xlink:href="#DejaVuSans-6f" transform="translate(2729.060547 0)"/>
     <use xlink:href="#DejaVuSans-72" transform="translate(2790.242188 0)"/>
     <use xlink:href="#DejaVuSans-65" transform="translate(2829.105469 0)"/>
     <use xlink:href="#DejaVuSans-20" transform="translate(2890.628906 0)"/>
     <use xlink:href="#DejaVuSans-74" transform="translate(2922.416016 0)"/>
     <use xlink:href="#DejaVuSans-68" transform="translate(2961.625 0)"/>
     <use xlink:href="#DejaVuSans-65" transform="translate(3025.003906 0)"/>
     <use xlink:href="#DejaVuSans-20" transform="translate(3086.527344 0)"/>
     <use xlink:href="#DejaVuSans-69" transform="translate(3118.314453 0)"/>
     <use xlink:href="#DejaVuSans-6e" transform="translate(3146.097656 0)"/>
     <use xlink:href="#DejaVuSans-64" transform="translate(3209.476562 0)"/>
     <use xlink:href="#DejaVuSans-65" transform="translate(3272.953125 0)"/>
     <use xlink:href="#DejaVuSans-78" transform="translate(3332.726562 0)"/>
     <use xlink:href="#DejaVuSans-20" transform="translate(3391.90625 0)"/>
     <use xlink:href="#DejaVuSans-68" transform="translate(3423.693359 0)"/>
     <use xlink:href="#DejaVuSans-6f" transform="translate(3487.072266 0)"/>
     <use xlink:href="#DejaVuSans-73" transform="translate(3548.253906 0)"/>
     <use xlink:href="#DejaVuSans-70" transform="translate(3600.353516 0)"/>
     <use xlink:href="#DejaVuSans-69" transform="translate(3663.830078 0)"/>
     <use xlink:href="#DejaVuSans-74" transform="translate(3691.613281 0)"/>
     <use xlink:href="#DejaVuSans-61" transform="translate(3730.822266 0)"/>
     <use xlink:href="#DejaVuSans-6c" transform="translate(3792.101562 0)"/>
     <use xlink:href="#DejaVuSans-69" transform="translate(3819.884766 0)"/>
     <use xlink:href="#DejaVuSans-7a" transform="translate(3847.667969 0)"/>
     <use xlink:href="#DejaVuSans-61" transform="translate(3900.158203 0)"/>
     <use xlink:href="#DejaVuSans-74" transform="translate(3961.4375 0)"/>
     <use xlink:href="#DejaVuSans-69" transform="translate(4000.646484 0)"/>
     <use xlink:href="#DejaVuSans-6f" transform="translate(4028.429688 0)"/>
     <use xlink:href="#DejaVuSans-6e" transform="translate(4089.611328 0)"/>
     <use xlink:href="#DejaVuSans-2e" transform="translate(4152.990234 0)"/>
    </g>
   </g>
  </g>
 </g>
 <defs>
  <clipPath id="p722b06900c">
   <rect x="7.2" y="7.2" width="585.9" height="343.728"/>
  </clipPath>
 </defs>
</svg>
